<svg id="Layer_1" data-name="Layer 1" xmlns="http://www.w3.org/2000/svg" viewBox="0 0 68 68"><defs><style>.cls-1{fill:#999;}</style></defs><title>Artboard 1</title><path class="cls-1" d="M34,68A34,34,0,1,1,68,34,34,34,0,0,1,34,68ZM34,5A29,29,0,1,0,63,34,29,29,0,0,0,34,5Z"/><path class="cls-1" d="M37.35,44.2H30.17c0-1,0-1.66,0-1.88a12.52,12.52,0,0,1,1.16-5.74,17.54,17.54,0,0,1,4.61-5.07,34.87,34.87,0,0,0,4.14-3.69,4.89,4.89,0,0,0,1-3,5.09,5.09,0,0,0-1.84-4,7.19,7.19,0,0,0-5-1.65,7.5,7.5,0,0,0-5,1.72,9.09,9.09,0,0,0-2.78,5.23l-7.27-.9a12.07,12.07,0,0,1,4.3-8.56q4-3.51,10.45-3.51,6.83,0,10.84,3.56a10.78,10.78,0,0,1,4,8.29A9.17,9.17,0,0,1,47.33,30,32.36,32.36,0,0,1,41,36.32a12.09,12.09,0,0,0-3.11,3.35A11.09,11.09,0,0,0,37.35,44.2ZM30.17,54.84V46.93h7.91v7.91Z"/></svg>