<svg xmlns="http://www.w3.org/2000/svg" viewBox="0 0 59.63 59"><defs><style>.cls-1{font-size:7.79px;font-family:Lobster1.4, Lobster 1.4;}.cls-1,.cls-3{fill:#ccc;}.cls-2{fill:none;stroke:#ccc;stroke-miterlimit:10;}.cls-4{fill:#e6e6e6;}.cls-5{fill:#91b8c1;}</style></defs><title>Artboard 9</title><g id="tip1"><text class="cls-1" transform="translate(21.65 26.81)">click on one<tspan x="0.99" y="9.35">of the bars </tspan><tspan x="-3.2" y="18.69">for more info!</tspan></text><g id="arrow1"><path class="cls-2" d="M23.09,14S-1.2,15.56.59,33.5c.64,6.34,7.09,14.88,11.74,20.29"/><polygon class="cls-3" points="17.09 59 7.44 54.27 12.05 53.33 13.52 48.87 17.09 59"/></g><g id="mouse1"><path class="cls-4" d="M38.59,0a5.33,5.33,0,0,0-5.33,5.33v7.34a5.34,5.34,0,0,0,10.67,0V5.33A5.34,5.34,0,0,0,38.59,0Zm4.67,12.67a4.67,4.67,0,0,1-9.33,0V5.33A4.66,4.66,0,0,1,38.56.67h0a4.67,4.67,0,0,1,4.67,4.66Z"/><path class="cls-4" d="M43.26,5.33V9h-4.7V.67h0A4.67,4.67,0,0,1,43.26,5.33Z"/><path class="cls-5" d="M38.56.67V9H33.93V5.33A4.66,4.66,0,0,1,38.56.67Z"/></g></g></svg>