<?xml version="1.0" encoding="utf-8"?>
<!-- Generator: Adobe Illustrator 22.1.0, SVG Export Plug-In . SVG Version: 6.00 Build 0)  -->
<svg version="1.1" xmlns="http://www.w3.org/2000/svg" xmlns:xlink="http://www.w3.org/1999/xlink" x="0px" y="0px" width="1114px"
	 height="1567.06px" viewBox="0 0 1114 1567.06" enable-background="new 0 0 1114 1567.06" xml:space="preserve">
<g id="Layer_1">
</g>
<g id="Layer_2">
</g>
<g id="title">
</g>
<g id="tip1">
	<g>
		<path fill="#CCCCCC" d="M252.817,307.585c0-0.194-0.07-0.319-0.218-0.319c-0.49,0-0.996,1.424-0.996,2.288
			c0,0.529,0.187,0.654,0.56,0.654c0.615,0,0.988-0.342,1.377-0.786h0.265c-0.444,0.716-1.105,1.44-2.14,1.44
			c-0.731,0-1.214-0.358-1.214-1.237c0-0.903,0.514-2.771,2.093-2.771c0.692,0,0.864,0.358,0.864,0.716
			c0,0.381-0.187,0.568-0.413,0.568c-0.085,0-0.179-0.031-0.272-0.094C252.786,307.873,252.817,307.717,252.817,307.585z"/>
		<path fill="#CCCCCC" d="M255.528,305.367l-0.895,4.202c-0.023,0.101-0.031,0.179-0.031,0.249c0,0.218,0.102,0.288,0.319,0.288
			c0.304,0,0.583-0.296,0.7-0.685h0.327c-0.444,1.269-1.214,1.44-1.634,1.44c-0.467,0-0.833-0.28-0.833-0.934
			c0-0.148,0.023-0.319,0.062-0.506l0.833-3.899L255.528,305.367z"/>
		<path fill="#CCCCCC" d="M257.272,306.923l-0.561,2.646c-0.023,0.101-0.031,0.179-0.031,0.249c0,0.218,0.102,0.288,0.319,0.288
			c0.304,0,0.583-0.296,0.7-0.685h0.327c-0.444,1.269-1.214,1.44-1.634,1.44c-0.467,0-0.833-0.28-0.833-0.934
			c0-0.148,0.023-0.319,0.062-0.506l0.529-2.498H257.272z M256.922,305.266c0.342,0,0.623,0.28,0.623,0.623
			c0,0.342-0.28,0.615-0.623,0.615c-0.343,0-0.615-0.272-0.615-0.615C256.308,305.546,256.58,305.266,256.922,305.266z"/>
		<path fill="#CCCCCC" d="M259.967,307.585c0-0.194-0.07-0.319-0.218-0.319c-0.49,0-0.996,1.424-0.996,2.288
			c0,0.529,0.187,0.654,0.56,0.654c0.615,0,0.988-0.342,1.377-0.786h0.265c-0.444,0.716-1.105,1.44-2.14,1.44
			c-0.731,0-1.214-0.358-1.214-1.237c0-0.903,0.514-2.771,2.093-2.771c0.692,0,0.864,0.358,0.864,0.716
			c0,0.381-0.187,0.568-0.413,0.568c-0.085,0-0.179-0.031-0.272-0.094C259.936,307.873,259.967,307.717,259.967,307.585z"/>
		<path fill="#CCCCCC" d="M264.366,306.923l-1.557,1.082c0.085-0.016,0.171-0.031,0.257-0.031c0.576,0,0.856,0.413,0.856,0.911
			c0,0.093-0.008,0.194-0.031,0.295l-0.085,0.389c-0.016,0.078-0.039,0.164-0.039,0.249c0,0.156,0.063,0.288,0.304,0.288
			c0.187,0,0.218-0.023,0.272-0.047c-0.039,0.553-0.521,0.802-0.724,0.802c-0.638,0-0.981-0.319-0.981-0.887
			c0-0.125,0.016-0.257,0.047-0.405l0.062-0.304c0.023-0.101,0.031-0.202,0.031-0.288c0-0.226-0.078-0.374-0.28-0.374
			c-0.179,0-0.358,0.109-0.576,0.288l-0.405,1.922h-1.121l1.128-5.292l1.152-0.155l-0.583,2.739l1.502-1.183H264.366z"/>
		<path fill="#CCCCCC" d="M269.078,308.099c0.031,0.016,0.062,0.016,0.085,0.016c0.358,0,0.864-0.233,1.198-0.467l0.07,0.21
			c-0.296,0.319-0.81,0.552-1.377,0.646c-0.125,1.439-0.903,2.342-1.86,2.342c-0.724,0-1.245-0.343-1.245-1.229
			c0-0.895,0.529-2.763,2.132-2.763C268.751,306.854,269.078,307.281,269.078,308.099z M268.409,308.526
			c-0.164-0.039-0.21-0.171-0.21-0.327c0-0.218,0.101-0.358,0.241-0.42c-0.016-0.327-0.093-0.451-0.296-0.451
			c-0.552,0-1.035,1.424-1.035,2.187c0,0.514,0.101,0.63,0.396,0.63C267.887,310.145,268.284,309.445,268.409,308.526z"/>
		<path fill="#CCCCCC" d="M271.439,307.601c-0.28,0-0.49,0.327-0.607,0.716l-0.529,2.498h-1.121l0.825-3.891h1.121l-0.086,0.405
			c0.327-0.374,0.669-0.436,0.911-0.436c0.498,0,0.864,0.256,0.864,0.879c0,0.63-0.374,1.572-0.374,2.008
			c0,0.195,0.078,0.327,0.312,0.327c0.132,0,0.21-0.016,0.257-0.047c-0.07,0.561-0.444,0.802-0.856,0.802
			c-0.6,0-0.786-0.436-0.786-0.879c0-0.529,0.35-1.486,0.35-1.984C271.719,307.741,271.626,307.601,271.439,307.601z"/>
		<path fill="#CCCCCC" d="M277.723,308.099c0.031,0.016,0.062,0.016,0.085,0.016c0.358,0,0.864-0.233,1.198-0.467l0.07,0.21
			c-0.296,0.319-0.81,0.552-1.377,0.646c-0.125,1.439-0.903,2.342-1.86,2.342c-0.724,0-1.245-0.343-1.245-1.229
			c0-0.895,0.529-2.763,2.132-2.763C277.396,306.854,277.723,307.281,277.723,308.099z M277.054,308.526
			c-0.164-0.039-0.21-0.171-0.21-0.327c0-0.218,0.101-0.358,0.241-0.42c-0.016-0.327-0.093-0.451-0.296-0.451
			c-0.552,0-1.035,1.424-1.035,2.187c0,0.514,0.101,0.63,0.396,0.63C276.532,310.145,276.929,309.445,277.054,308.526z"/>
		<path fill="#CCCCCC" d="M280.083,307.601c-0.28,0-0.49,0.327-0.607,0.716l-0.529,2.498h-1.121l0.825-3.891h1.121l-0.086,0.405
			c0.327-0.374,0.669-0.436,0.911-0.436c0.498,0,0.864,0.256,0.864,0.879c0,0.63-0.374,1.572-0.374,2.008
			c0,0.195,0.078,0.327,0.312,0.327c0.342,0,0.482-0.28,0.653-0.685h0.327c-0.436,1.276-1.035,1.44-1.448,1.44
			c-0.677,0-0.918-0.436-0.918-0.879c0-0.529,0.35-1.486,0.35-1.984C280.364,307.741,280.271,307.601,280.083,307.601z"/>
		<path fill="#CCCCCC" d="M283.581,310.122c0.295,0,0.669-0.195,0.918-0.413c-0.163,0.887-0.724,1.152-1.346,1.152
			c-0.724,0-1.206-0.358-1.206-1.237c0-0.895,0.506-2.771,2.101-2.771c0.692,0,0.856,0.358,0.856,0.747
			c0,0.903-0.856,1.587-1.79,1.642c-0.008,0.078-0.016,0.163-0.016,0.233C283.099,309.966,283.309,310.122,283.581,310.122z
			 M284.11,307.266c-0.389,0-0.778,0.864-0.942,1.604c0.607-0.031,1.136-0.63,1.136-1.284
			C284.305,307.391,284.258,307.266,284.11,307.266z"/>
		<path fill="#CCCCCC" d="M254.562,317.445c0.031,0.016,0.062,0.016,0.085,0.016c0.358,0,0.864-0.233,1.198-0.467l0.07,0.21
			c-0.296,0.319-0.81,0.552-1.377,0.646c-0.125,1.439-0.903,2.342-1.86,2.342c-0.724,0-1.245-0.342-1.245-1.229
			c0-0.895,0.529-2.763,2.132-2.763C254.234,316.2,254.562,316.627,254.562,317.445z M253.892,317.873
			c-0.164-0.039-0.21-0.171-0.21-0.327c0-0.218,0.101-0.358,0.241-0.42c-0.016-0.327-0.093-0.451-0.296-0.451
			c-0.552,0-1.035,1.424-1.035,2.187c0,0.514,0.101,0.63,0.396,0.63C253.371,319.491,253.768,318.791,253.892,317.873z"/>
		<path fill="#CCCCCC" d="M257.568,315.491c0.008-0.078,0.016-0.14,0.016-0.21c0-0.179-0.14-0.265-0.296-0.265
			c-0.171,0-0.436,0.117-0.544,0.638l-0.132,0.615h0.568l-0.054,0.312h-0.576l-0.895,4.202c-0.233,1.113-0.879,1.323-1.393,1.323
			c-0.475,0-0.918-0.334-0.918-0.84c0-0.716,0.599-0.941,1.338-1.167l0.942-4.444c0.233-1.113,0.902-1.323,1.416-1.323
			c0.475,0,0.918,0.334,0.918,0.84c0,0.125-0.008,0.226-0.023,0.319H257.568z M254.082,321.414c0.164,0,0.342-0.148,0.444-0.607
			l0.101-0.452c-0.49,0.164-0.856,0.381-0.856,0.802C253.771,321.266,253.91,321.414,254.082,321.414z"/>
		<path fill="#CCCCCC" d="M260.645,315.04l-0.265,1.229h0.467l-0.062,0.312h-0.467l-0.498,2.334
			c-0.023,0.101-0.031,0.179-0.031,0.249c0,0.218,0.101,0.288,0.319,0.288c0.303,0,0.583-0.296,0.7-0.685h0.327
			c-0.444,1.269-1.214,1.44-1.634,1.44c-0.467,0-0.833-0.28-0.833-0.934c0-0.148,0.023-0.319,0.063-0.506l0.467-2.187h-0.257
			l0.063-0.312h0.257l0.233-1.074L260.645,315.04z"/>
		<path fill="#CCCCCC" d="M262.763,316.947c-0.303,0-0.544,0.475-0.591,0.685l-0.537,2.529h-1.121l1.128-5.292l1.152-0.156
			l-0.42,1.961c0.327-0.374,0.669-0.436,0.911-0.436c0.498,0,0.864,0.257,0.864,0.879c0,0.63-0.374,1.572-0.374,2.008
			c0,0.195,0.078,0.327,0.312,0.327c0.342,0,0.482-0.28,0.653-0.685h0.327c-0.436,1.276-1.035,1.44-1.448,1.44
			c-0.677,0-0.918-0.436-0.918-0.879c0-0.529,0.35-1.486,0.35-1.984C263.051,317.087,262.958,316.947,262.763,316.947z"/>
		<path fill="#CCCCCC" d="M266.269,319.468c0.295,0,0.669-0.195,0.918-0.413c-0.163,0.887-0.724,1.152-1.346,1.152
			c-0.724,0-1.206-0.358-1.206-1.237c0-0.895,0.506-2.771,2.101-2.771c0.692,0,0.856,0.358,0.856,0.747
			c0,0.903-0.856,1.587-1.79,1.642c-0.008,0.078-0.016,0.163-0.016,0.233C265.786,319.313,265.996,319.468,266.269,319.468z
			 M266.798,316.612c-0.389,0-0.778,0.864-0.942,1.603c0.607-0.031,1.136-0.63,1.136-1.284
			C266.992,316.736,266.945,316.612,266.798,316.612z"/>
		<path fill="#CCCCCC" d="M270.116,314.869l1.152-0.156l-0.374,1.751c0.319-0.195,0.482-0.218,0.638-0.218
			c0.545,0,0.918,0.343,0.918,1.331c0,0.91-0.483,2.63-2.132,2.63c-0.716,0-1.09-0.374-1.09-0.996c0-0.132,0.016-0.28,0.055-0.444
			L270.116,314.869z M271.252,316.799c-0.109,0-0.374,0.039-0.459,0.14l-0.428,1.977c-0.016,0.062-0.023,0.125-0.023,0.179
			c0,0.226,0.132,0.358,0.412,0.358c0.506,0,0.911-1.09,0.911-1.907C271.665,317.165,271.532,316.799,271.252,316.799z"/>
		<path fill="#CCCCCC" d="M276.477,316.27l-0.561,2.646c-0.023,0.101-0.031,0.179-0.031,0.249c0,0.218,0.101,0.334,0.319,0.334
			c0.304,0,0.514-0.342,0.63-0.731h0.327c-0.443,1.269-1.144,1.44-1.564,1.44c-0.436,0-0.716-0.249-0.763-0.716
			c-0.241,0.358-0.607,0.716-1.16,0.716c-0.529,0-1.035-0.327-1.035-1.253c0-1.051,0.646-2.724,2-2.724
			c0.443,0,0.63,0.171,0.63,0.396v0.055l0.085-0.413H276.477z M273.792,318.846c0,0.599,0.249,0.607,0.389,0.607
			c0.226,0,0.553-0.233,0.646-0.685l0.374-1.759c0-0.093-0.07-0.295-0.319-0.295C274.22,316.713,273.792,318.114,273.792,318.846z"
			/>
		<path fill="#CCCCCC" d="M278.488,316.27l-0.101,0.482c0.272-0.233,0.568-0.482,0.941-0.482c0.35,0,0.537,0.288,0.537,0.584
			c0,0.272-0.179,0.568-0.561,0.568c-0.436,0-0.218-0.514-0.451-0.514s-0.374,0.117-0.568,0.296l-0.623,2.957h-1.121l0.825-3.891
			H278.488z"/>
		<path fill="#CCCCCC" d="M282.039,316.028c0.093,2.016,0.171,2.319,0.171,2.833c0,1.012-0.918,1.347-1.556,1.347
			c-0.794,0-1.136-0.521-1.136-0.996c0-0.358,0.202-0.623,0.413-0.724c0.436-0.77,0.716-1.541,0.957-2.303L282.039,316.028z
			 M280.14,319.149c-0.078,0-0.171-0.023-0.21-0.101c0,0.366,0.132,0.545,0.475,0.545s0.677-0.179,0.677-0.724
			c0-0.404-0.07-0.646-0.147-1.844c-0.156,0.506-0.374,0.973-0.63,1.471c0.101,0.047,0.179,0.14,0.179,0.272
			C280.482,318.955,280.342,319.149,280.14,319.149z"/>
		<path fill="#CCCCCC" d="M249.962,324.837c0.008-0.078,0.016-0.14,0.016-0.21c0-0.179-0.14-0.265-0.296-0.265
			c-0.171,0-0.436,0.117-0.544,0.638l-0.132,0.615h0.568l-0.054,0.312h-0.576l-0.895,4.202c-0.233,1.113-0.879,1.323-1.393,1.323
			c-0.475,0-0.918-0.334-0.918-0.84c0-0.716,0.599-0.941,1.338-1.167l0.942-4.444c0.233-1.113,0.902-1.323,1.416-1.323
			c0.475,0,0.918,0.334,0.918,0.84c0,0.125-0.008,0.226-0.023,0.319H249.962z M246.476,330.759c0.164,0,0.342-0.148,0.444-0.607
			l0.101-0.452c-0.49,0.164-0.856,0.381-0.856,0.802C246.165,330.611,246.305,330.759,246.476,330.759z"/>
		<path fill="#CCCCCC" d="M252.455,326.791c0.031,0.016,0.062,0.016,0.085,0.016c0.358,0,0.864-0.233,1.198-0.467l0.07,0.21
			c-0.296,0.319-0.81,0.552-1.377,0.646c-0.125,1.439-0.903,2.342-1.86,2.342c-0.724,0-1.245-0.342-1.245-1.229
			c0-0.895,0.529-2.763,2.132-2.763C252.127,325.545,252.455,325.973,252.455,326.791z M251.785,327.218
			c-0.164-0.039-0.21-0.171-0.21-0.327c0-0.218,0.101-0.358,0.241-0.42c-0.016-0.327-0.093-0.451-0.296-0.451
			c-0.552,0-1.035,1.424-1.035,2.187c0,0.514,0.101,0.63,0.396,0.63C251.264,328.837,251.661,328.137,251.785,327.218z"/>
		<path fill="#CCCCCC" d="M254.504,325.615l-0.101,0.482c0.272-0.233,0.568-0.482,0.941-0.482c0.35,0,0.537,0.288,0.537,0.584
			c0,0.272-0.179,0.568-0.561,0.568c-0.436,0-0.218-0.514-0.451-0.514s-0.374,0.117-0.568,0.296l-0.623,2.957h-1.121l0.825-3.891
			H254.504z"/>
		<path fill="#CCCCCC" d="M261.355,326.292c-0.28,0-0.49,0.327-0.607,0.716l-0.529,2.498h-1.121l0.568-2.685
			c0.016-0.063,0.023-0.125,0.023-0.195c0-0.171-0.062-0.342-0.233-0.342c-0.303,0-0.514,0.334-0.63,0.724l-0.529,2.498h-1.121
			l0.825-3.891h1.121l-0.086,0.405c0.327-0.374,0.677-0.443,0.95-0.443c0.413,0,0.716,0.187,0.801,0.669
			c0.374-0.576,0.794-0.662,1.082-0.662c0.498,0,0.864,0.257,0.864,0.879c0,0.63-0.374,1.572-0.374,2.008
			c0,0.195,0.078,0.327,0.311,0.327c0.342,0,0.482-0.28,0.654-0.685h0.327c-0.436,1.276-1.035,1.44-1.447,1.44
			c-0.677,0-0.918-0.436-0.918-0.879c0-0.529,0.351-1.486,0.351-1.984C261.636,326.433,261.542,326.292,261.355,326.292z"/>
		<path fill="#CCCCCC" d="M266.349,326.791c0.031,0.016,0.062,0.016,0.085,0.016c0.358,0,0.864-0.233,1.198-0.467l0.07,0.21
			c-0.296,0.319-0.81,0.552-1.377,0.646c-0.125,1.439-0.903,2.342-1.86,2.342c-0.724,0-1.245-0.342-1.245-1.229
			c0-0.895,0.529-2.763,2.132-2.763C266.021,325.545,266.349,325.973,266.349,326.791z M265.679,327.218
			c-0.164-0.039-0.21-0.171-0.21-0.327c0-0.218,0.101-0.358,0.241-0.42c-0.016-0.327-0.093-0.451-0.296-0.451
			c-0.552,0-1.035,1.424-1.035,2.187c0,0.514,0.101,0.63,0.396,0.63C265.158,328.837,265.555,328.137,265.679,327.218z"/>
		<path fill="#CCCCCC" d="M268.398,325.615l-0.101,0.482c0.272-0.233,0.568-0.482,0.941-0.482c0.35,0,0.537,0.288,0.537,0.584
			c0,0.272-0.179,0.568-0.561,0.568c-0.436,0-0.218-0.514-0.451-0.514s-0.374,0.117-0.568,0.296l-0.623,2.957h-1.121l0.825-3.891
			H268.398z"/>
		<path fill="#CCCCCC" d="M271.202,328.814c0.295,0,0.669-0.195,0.918-0.413c-0.163,0.887-0.724,1.152-1.346,1.152
			c-0.724,0-1.206-0.358-1.206-1.237c0-0.895,0.506-2.771,2.101-2.771c0.692,0,0.856,0.358,0.856,0.747
			c0,0.903-0.856,1.587-1.79,1.642c-0.007,0.078-0.015,0.163-0.015,0.233C270.719,328.658,270.929,328.814,271.202,328.814z
			 M271.73,325.958c-0.389,0-0.778,0.864-0.941,1.603c0.607-0.031,1.136-0.63,1.136-1.284
			C271.925,326.082,271.878,325.958,271.73,325.958z"/>
		<path fill="#CCCCCC" d="M275.867,325.615l-0.561,2.646c-0.023,0.101-0.031,0.179-0.031,0.249c0,0.218,0.101,0.288,0.319,0.288
			c0.303,0,0.583-0.296,0.7-0.685h0.327c-0.444,1.269-1.214,1.44-1.634,1.44c-0.467,0-0.833-0.28-0.833-0.934
			c0-0.148,0.023-0.319,0.063-0.506l0.529-2.498H275.867z M275.517,323.958c0.342,0,0.623,0.28,0.623,0.623
			c0,0.342-0.28,0.615-0.623,0.615c-0.343,0-0.615-0.272-0.615-0.615C274.901,324.238,275.174,323.958,275.517,323.958z"/>
		<path fill="#CCCCCC" d="M278.257,326.292c-0.28,0-0.49,0.327-0.607,0.716l-0.529,2.498H276l0.825-3.891h1.121l-0.086,0.405
			c0.327-0.374,0.669-0.436,0.911-0.436c0.498,0,0.864,0.257,0.864,0.879c0,0.63-0.374,1.572-0.374,2.008
			c0,0.195,0.078,0.327,0.312,0.327c0.342,0,0.482-0.28,0.653-0.685h0.327c-0.436,1.276-1.035,1.44-1.448,1.44
			c-0.677,0-0.918-0.436-0.918-0.879c0-0.529,0.35-1.486,0.35-1.984C278.538,326.433,278.444,326.292,278.257,326.292z"/>
		<path fill="#CCCCCC" d="M282.836,324.837c0.008-0.078,0.016-0.14,0.016-0.21c0-0.179-0.14-0.265-0.296-0.265
			c-0.171,0-0.436,0.117-0.544,0.638l-0.132,0.615h0.568l-0.054,0.312h-0.576l-0.895,4.202c-0.233,1.113-0.879,1.323-1.393,1.323
			c-0.475,0-0.918-0.334-0.918-0.84c0-0.716,0.599-0.941,1.338-1.167l0.942-4.444c0.233-1.113,0.902-1.323,1.416-1.323
			c0.475,0,0.918,0.334,0.918,0.84c0,0.125-0.008,0.226-0.023,0.319H282.836z M279.35,330.759c0.164,0,0.342-0.148,0.444-0.607
			l0.101-0.452c-0.49,0.164-0.856,0.381-0.856,0.802C279.039,330.611,279.179,330.759,279.35,330.759z"/>
		<path fill="#CCCCCC" d="M285.297,326.596c0.272-0.054,0.467-0.389,0.553-0.537h0.249c-0.156,0.334-0.389,0.817-0.802,1.042
			c-0.093,1.494-0.872,2.436-1.852,2.436c-0.724,0-1.245-0.342-1.245-1.229c0-0.895,0.506-2.763,2.109-2.763
			C284.923,325.545,285.25,325.903,285.297,326.596z M284.635,327.218c-0.125-0.046-0.187-0.155-0.187-0.35
			c0-0.21,0.085-0.342,0.218-0.405c-0.016-0.327-0.101-0.443-0.296-0.443c-0.552,0-1.011,1.424-1.011,2.187
			c0,0.514,0.101,0.63,0.396,0.63C284.137,328.837,284.519,328.137,284.635,327.218z"/>
		<path fill="#CCCCCC" d="M286.989,329.506c-0.342,0-0.623-0.28-0.623-0.623s0.28-0.615,0.623-0.615s0.615,0.272,0.615,0.615
			S287.331,329.506,286.989,329.506z M286.864,327.708l0.552-3.649h1.121l-1.011,3.649H286.864z"/>
	</g>
	<g id="arrow">
		<path fill="none" stroke="#CCCCCC" stroke-miterlimit="10" d="M252,298c0,0-24.294,1.562-22.5,19.5
			c0.634,6.336,7.088,14.879,11.733,20.29"/>
		<g>
			<polygon fill="#CCCCCC" points="246,343 236.349,338.27 240.955,337.331 242.422,332.866 			"/>
		</g>
	</g>
	<g id="mouse">
		<g>
			<path fill="#E6E6E6" d="M267.5,284c-2.941,0-5.333,2.392-5.333,5.333v7.333c0,2.941,2.392,5.333,5.333,5.333
				s5.333-2.392,5.333-5.333v-7.333C272.833,286.392,270.441,284,267.5,284z M272.167,296.667c0,2.573-2.093,4.667-4.667,4.667
				s-4.667-2.093-4.667-4.667v-7.333c0-2.561,2.074-4.647,4.631-4.666c0.012-0.001,0.023-0.001,0.035-0.001
				c2.573,0,4.667,2.093,4.667,4.667V296.667z"/>
			<path fill="#E6E6E6" d="M272.167,289.333V293h-4.702v-8.332c0.012-0.001,0.023-0.001,0.035-0.001
				C270.073,284.667,272.167,286.76,272.167,289.333z"/>
			<path fill="#91B8C1" d="M267.465,284.668V293h-4.631v-3.667C262.833,286.772,264.908,284.686,267.465,284.668z"/>
		</g>
	</g>
</g>
</svg>
