<svg xmlns="http://www.w3.org/2000/svg" viewBox="0 0 59.63 59"><defs><style>.cls-1{fill:#b3b3b3;}.cls-2{fill:none;stroke:#ccc;stroke-miterlimit:10;}.cls-3{fill:#ccc;}.cls-4{fill:#16a085;opacity:0.5;}</style></defs><title>Artboard 9</title><g id="tip1"><path class="cls-1" d="M23.91,23.58c0-.19-.07-.31-.22-.31-.49,0-1,1.42-1,2.28,0,.53.18.66.56.66a1.78,1.78,0,0,0,1.38-.79h.26a2.55,2.55,0,0,1-2.14,1.44,1.09,1.09,0,0,1-1.21-1.24c0-.9.51-2.77,2.09-2.77.69,0,.86.36.86.72s-.18.57-.41.57a.45.45,0,0,1-.27-.1A1.38,1.38,0,0,0,23.91,23.58Z"/><path class="cls-1" d="M26.62,21.37l-.89,4.2a.8.8,0,0,0,0,.25c0,.22.1.29.32.29s.58-.3.7-.69H27c-.44,1.27-1.21,1.44-1.63,1.44s-.83-.28-.83-.93a2.5,2.5,0,0,1,.06-.51l.83-3.9Z"/><path class="cls-1" d="M28.37,22.92l-.56,2.65a.8.8,0,0,0,0,.25c0,.22.1.29.31.29s.59-.3.7-.69h.33c-.44,1.27-1.21,1.44-1.63,1.44s-.83-.28-.83-.93a2.5,2.5,0,0,1,.06-.51l.53-2.5ZM28,21.27a.62.62,0,0,1,.62.62.61.61,0,0,1-.62.61.61.61,0,0,1-.62-.61A.62.62,0,0,1,28,21.27Z"/><path class="cls-1" d="M31.06,23.58c0-.19-.07-.31-.22-.31-.49,0-1,1.42-1,2.28,0,.53.18.66.56.66a1.78,1.78,0,0,0,1.38-.79h.26a2.57,2.57,0,0,1-2.14,1.44,1.09,1.09,0,0,1-1.21-1.24c0-.9.51-2.77,2.09-2.77.69,0,.86.36.86.72s-.18.57-.41.57A.43.43,0,0,1,31,24,1.38,1.38,0,0,0,31.06,23.58Z"/><path class="cls-1" d="M35.46,22.92,33.9,24a1.27,1.27,0,0,1,.26,0,.83.83,0,0,1,.86.91,1.53,1.53,0,0,1,0,.3l-.09.39a1,1,0,0,0,0,.25c0,.15.06.29.3.29a.58.58,0,0,0,.28-.05.86.86,0,0,1-.73.8c-.63,0-1-.32-1-.89a2.08,2.08,0,0,1,.05-.4l.06-.3a1.06,1.06,0,0,0,0-.29c0-.23-.07-.38-.28-.38a.94.94,0,0,0-.57.29l-.41,1.92H31.49l1.13-5.29,1.15-.15-.58,2.74,1.5-1.19Z"/><path class="cls-1" d="M40.17,24.1h.09a2.52,2.52,0,0,0,1.2-.46l.07.21a2.44,2.44,0,0,1-1.38.64c-.13,1.44-.9,2.35-1.86,2.35A1.12,1.12,0,0,1,37,25.62c0-.9.53-2.77,2.14-2.77C39.85,22.85,40.17,23.28,40.17,24.1Zm-.67.43c-.16,0-.21-.17-.21-.33a.42.42,0,0,1,.24-.42c0-.33-.09-.45-.29-.45-.55,0-1,1.42-1,2.18,0,.52.11.63.4.63S39.38,25.45,39.5,24.53Z"/><path class="cls-1" d="M42.53,23.6c-.28,0-.49.33-.6.72l-.53,2.49H40.28l.82-3.89h1.12l-.08.41a1.17,1.17,0,0,1,.91-.44.79.79,0,0,1,.86.88c0,.63-.37,1.57-.37,2,0,.19.08.33.31.33a.51.51,0,0,0,.26-.05.83.83,0,0,1-.86.8c-.6,0-.79-.43-.79-.88s.35-1.48.35-2C42.81,23.74,42.72,23.6,42.53,23.6Z"/><path class="cls-1" d="M48.82,24.1h.08a2.48,2.48,0,0,0,1.2-.46l.07.21a2.41,2.41,0,0,1-1.38.64c-.12,1.44-.9,2.35-1.86,2.35a1.11,1.11,0,0,1-1.24-1.23c0-.9.53-2.77,2.13-2.77C48.49,22.85,48.82,23.28,48.82,24.1Zm-.67.43c-.17,0-.21-.17-.21-.33a.42.42,0,0,1,.24-.42c0-.33-.09-.45-.3-.45-.55,0-1,1.42-1,2.18,0,.52.1.63.4.63S48,25.45,48.15,24.53Z"/><path class="cls-1" d="M51.18,23.6c-.28,0-.49.33-.61.72L50,26.81H48.92l.83-3.89h1.12l-.09.41a1.18,1.18,0,0,1,.91-.44.79.79,0,0,1,.87.88c0,.63-.38,1.57-.38,2,0,.19.08.33.31.33s.49-.28.66-.69h.32c-.43,1.28-1,1.44-1.44,1.44a.82.82,0,0,1-.92-.88c0-.53.35-1.48.35-2C51.46,23.74,51.37,23.6,51.18,23.6Z"/><path class="cls-1" d="M54.68,26.12a1.57,1.57,0,0,0,.91-.41,1.24,1.24,0,0,1-1.34,1.15A1.09,1.09,0,0,1,53,25.62c0-.89.51-2.77,2.1-2.77.69,0,.86.36.86.75a1.8,1.8,0,0,1-1.79,1.64,2.12,2.12,0,0,0,0,.24C54.19,26,54.4,26.12,54.68,26.12Zm.53-2.85c-.39,0-.78.86-1,1.6a1.29,1.29,0,0,0,1.14-1.29C55.4,23.39,55.35,23.27,55.21,23.27Z"/><path class="cls-1" d="M25.66,33.45h.08a2.4,2.4,0,0,0,1.2-.47l.07.21a2.45,2.45,0,0,1-1.38.65c-.12,1.44-.9,2.34-1.86,2.34A1.11,1.11,0,0,1,22.53,35c0-.89.53-2.76,2.13-2.76C25.33,32.2,25.66,32.63,25.66,33.45Zm-.67.42c-.17,0-.21-.17-.21-.32a.42.42,0,0,1,.24-.42c0-.33-.1-.46-.3-.46-.55,0-1,1.43-1,2.19,0,.52.1.63.39.63S24.86,34.79,25,33.87Z"/><path class="cls-1" d="M28.66,31.49a1.65,1.65,0,0,0,0-.21c0-.18-.14-.26-.3-.26s-.43.11-.54.63l-.13.62h.56l-.05.31h-.58l-.89,4.2c-.24,1.12-.88,1.33-1.39,1.33a.88.88,0,0,1-.92-.84c0-.72.6-1,1.34-1.17l.94-4.45c.23-1.11.9-1.32,1.41-1.32a.88.88,0,0,1,.92.84,2.73,2.73,0,0,1,0,.32Zm-3.48,5.92c.16,0,.34-.14.44-.6l.1-.45c-.49.16-.85.38-.85.8A.3.3,0,0,0,25.18,37.41Z"/><path class="cls-1" d="M31.74,31l-.26,1.23h.46l-.06.31h-.47l-.5,2.34a1.2,1.2,0,0,0,0,.24c0,.22.1.29.32.29a.83.83,0,0,0,.7-.68h.33C31.79,36,31,36.21,30.6,36.21s-.84-.28-.84-.94a2.59,2.59,0,0,1,.07-.5l.46-2.19H30l.06-.31h.25l.24-1.07Z"/><path class="cls-1" d="M33.86,33c-.31,0-.55.47-.59.68l-.54,2.53H31.61l1.13-5.29,1.15-.16-.42,2a1.16,1.16,0,0,1,.91-.43.79.79,0,0,1,.86.88c0,.63-.37,1.57-.37,2,0,.19.08.32.31.32s.48-.28.65-.68h.33c-.43,1.27-1,1.44-1.45,1.44a.82.82,0,0,1-.91-.88c0-.53.35-1.49.35-2C34.15,33.09,34.05,33,33.86,33Z"/><path class="cls-1" d="M37.36,35.47a1.63,1.63,0,0,0,.92-.41,1.25,1.25,0,0,1-1.35,1.15A1.09,1.09,0,0,1,35.73,35c0-.89.5-2.77,2.1-2.77.69,0,.86.36.86.75a1.81,1.81,0,0,1-1.79,1.64,2,2,0,0,0,0,.23C36.88,35.31,37.09,35.47,37.36,35.47Zm.53-2.86c-.39,0-.78.87-.94,1.6a1.29,1.29,0,0,0,1.14-1.28C38.09,32.74,38,32.61,37.89,32.61Z"/><path class="cls-1" d="M41.21,30.87l1.15-.16L42,32.46a1.12,1.12,0,0,1,.64-.21c.54,0,.92.34.92,1.33s-.49,2.63-2.14,2.63a1,1,0,0,1-1.09-1,1.85,1.85,0,0,1,.06-.44Zm1.14,1.93a.76.76,0,0,0-.46.14l-.43,2a.52.52,0,0,0,0,.17c0,.23.13.36.41.36.5,0,.91-1.09.91-1.9C42.76,33.16,42.63,32.8,42.35,32.8Z"/><path class="cls-1" d="M47.57,32.27,47,34.92a1.2,1.2,0,0,0,0,.24c0,.22.1.34.32.34s.51-.34.63-.73h.33c-.45,1.27-1.15,1.44-1.57,1.44a.72.72,0,0,1-.76-.72,1.41,1.41,0,0,1-1.16.72c-.53,0-1-.33-1-1.25s.65-2.73,2-2.73c.45,0,.64.17.64.4v0l.08-.41Zm-2.68,2.58c0,.6.25.6.39.6a.78.78,0,0,0,.64-.68L46.29,33a.3.3,0,0,0-.31-.3C45.31,32.71,44.89,34.11,44.89,34.85Z"/><path class="cls-1" d="M49.58,32.27l-.1.48a1.53,1.53,0,0,1,.94-.48.58.58,0,0,1,0,1.15c-.44,0-.22-.51-.45-.51a.78.78,0,0,0-.57.29l-.62,3H47.64l.82-3.89Z"/><path class="cls-1" d="M53.13,32c.1,2,.17,2.32.17,2.83a1.41,1.41,0,0,1-1.55,1.35,1,1,0,0,1-1.14-1,.79.79,0,0,1,.41-.72,11.32,11.32,0,0,0,1-2.31Zm-1.9,3.12a.23.23,0,0,1-.21-.1c0,.36.14.54.48.54a.64.64,0,0,0,.68-.72c0-.41-.07-.65-.15-1.85a10,10,0,0,1-.63,1.48.28.28,0,0,1,.18.27A.37.37,0,0,1,51.23,35.15Z"/><path class="cls-1" d="M21.06,40.84c0-.08,0-.14,0-.21a.27.27,0,0,0-.29-.27c-.17,0-.44.12-.55.64l-.13.62h.57l-.06.31H20l-.9,4.2c-.23,1.11-.88,1.32-1.39,1.32a.87.87,0,0,1-.92-.84c0-.71.6-.94,1.34-1.17L19.11,41c.24-1.11.9-1.32,1.42-1.32a.88.88,0,0,1,.92.84,1.58,1.58,0,0,1,0,.32Zm-3.49,5.92c.16,0,.34-.15.44-.61l.11-.45c-.49.16-.86.38-.86.8A.32.32,0,0,0,17.57,46.76Z"/><path class="cls-1" d="M23.55,42.79a.13.13,0,0,0,.08,0,2.5,2.5,0,0,0,1.2-.47l.07.21a2.48,2.48,0,0,1-1.37.65c-.13,1.43-.91,2.34-1.86,2.34a1.11,1.11,0,0,1-1.25-1.23c0-.9.53-2.77,2.13-2.77C23.22,41.54,23.55,42,23.55,42.79Zm-.67.43c-.16,0-.21-.17-.21-.33a.42.42,0,0,1,.24-.42c0-.33-.09-.45-.29-.45-.56,0-1,1.42-1,2.19,0,.51.1.63.4.63S22.76,44.14,22.88,43.22Z"/><path class="cls-1" d="M25.6,41.62l-.1.48a1.48,1.48,0,0,1,.94-.48.54.54,0,0,1,.54.58.55.55,0,0,1-.56.57c-.44,0-.22-.52-.46-.52a.79.79,0,0,0-.56.3l-.63,3H23.65l.83-3.89Z"/><path class="cls-1" d="M32.45,42.29c-.28,0-.49.33-.61.72l-.53,2.5H30.19l.57-2.69a.58.58,0,0,0,0-.19c0-.17-.06-.34-.23-.34s-.51.33-.63.72l-.53,2.5H28.27l.83-3.89h1.12l-.09.4a1.21,1.21,0,0,1,.95-.44.73.73,0,0,1,.8.67A1.25,1.25,0,0,1,33,41.58a.79.79,0,0,1,.87.88c0,.63-.38,1.58-.38,2,0,.2.08.33.32.33s.48-.28.65-.69h.33c-.44,1.28-1,1.44-1.45,1.44a.82.82,0,0,1-.92-.88c0-.53.35-1.48.35-2C32.73,42.43,32.64,42.29,32.45,42.29Z"/><path class="cls-1" d="M37.44,42.79a.16.16,0,0,0,.09,0,2.54,2.54,0,0,0,1.2-.47l.07.21a2.52,2.52,0,0,1-1.38.65c-.12,1.43-.9,2.34-1.86,2.34a1.11,1.11,0,0,1-1.25-1.23c0-.9.53-2.77,2.14-2.77C37.12,41.54,37.44,42,37.44,42.79Zm-.67.43c-.16,0-.21-.17-.21-.33a.41.41,0,0,1,.25-.42c0-.33-.1-.45-.3-.45-.55,0-1,1.42-1,2.19,0,.51.11.63.4.63S36.65,44.14,36.77,43.22Z"/><path class="cls-1" d="M39.49,41.62l-.1.48a1.48,1.48,0,0,1,.94-.48.54.54,0,0,1,.54.58.55.55,0,0,1-.56.57c-.44,0-.22-.52-.45-.52a.79.79,0,0,0-.57.3l-.62,3H37.55l.82-3.89Z"/><path class="cls-1" d="M42.3,44.81a1.54,1.54,0,0,0,.91-.41,1.24,1.24,0,0,1-1.34,1.15,1.08,1.08,0,0,1-1.21-1.23c0-.9.51-2.78,2.1-2.78.7,0,.86.36.86.75a1.79,1.79,0,0,1-1.79,1.64,2.12,2.12,0,0,0,0,.24C41.81,44.66,42,44.81,42.3,44.81ZM42.83,42c-.39,0-.78.86-.95,1.6A1.29,1.29,0,0,0,43,42.28C43,42.08,43,42,42.83,42Z"/><path class="cls-1" d="M47,41.62l-.56,2.64a1.29,1.29,0,0,0,0,.25c0,.22.1.29.32.29s.58-.3.7-.69h.33c-.45,1.27-1.22,1.44-1.64,1.44s-.83-.28-.83-.93a2.5,2.5,0,0,1,.06-.51l.53-2.49ZM46.61,40a.62.62,0,0,1,0,1.24.62.62,0,0,1,0-1.24Z"/><path class="cls-1" d="M49.35,42.29c-.28,0-.49.33-.6.72l-.53,2.5H47.1l.82-3.89H49L49,42a1.15,1.15,0,0,1,.91-.44.79.79,0,0,1,.86.88c0,.63-.37,1.58-.37,2,0,.2.07.33.31.33s.48-.28.65-.69h.33c-.44,1.28-1,1.44-1.45,1.44a.82.82,0,0,1-.92-.88c0-.53.35-1.48.35-2C49.63,42.43,49.54,42.29,49.35,42.29Z"/><path class="cls-1" d="M53.93,40.84a1.65,1.65,0,0,0,0-.21.27.27,0,0,0-.3-.27c-.17,0-.43.12-.54.64l-.14.62h.57l0,.31h-.58L52,46.13c-.24,1.11-.88,1.32-1.4,1.32a.87.87,0,0,1-.91-.84c0-.71.59-.94,1.33-1.17L52,41c.23-1.11.9-1.32,1.41-1.32a.87.87,0,0,1,.92.84,3,3,0,0,1,0,.32Zm-3.49,5.92c.17,0,.35-.15.45-.61l.1-.45c-.49.16-.86.38-.86.8A.32.32,0,0,0,50.44,46.76Z"/><path class="cls-1" d="M56.39,42.6c.27-.06.47-.39.55-.54h.25a2.15,2.15,0,0,1-.8,1c-.09,1.5-.87,2.44-1.85,2.44a1.11,1.11,0,0,1-1.25-1.23c0-.9.51-2.77,2.11-2.77C56,41.54,56.34,41.9,56.39,42.6Zm-.66.62a.34.34,0,0,1-.19-.35.43.43,0,0,1,.22-.41c0-.32-.1-.44-.29-.44-.56,0-1,1.42-1,2.19,0,.51.11.63.4.63S55.61,44.14,55.73,43.22Z"/><path class="cls-1" d="M58.08,45.51a.63.63,0,0,1-.62-.63.61.61,0,0,1,.62-.61.61.61,0,0,1,.62.61A.62.62,0,0,1,58.08,45.51ZM58,43.71l.55-3.65h1.12l-1,3.65Z"/><g id="arrow1"><path class="cls-2" d="M23.09,14S-1.2,15.56.59,33.5c.64,6.34,7.09,14.88,11.74,20.29"/><polygon class="cls-3" points="17.09 59 7.44 54.27 12.05 53.33 13.52 48.87 17.09 59"/></g><g id="mouse1"><path class="cls-3" d="M38.59,0a5.33,5.33,0,0,0-5.33,5.33v7.34a5.34,5.34,0,0,0,10.67,0V5.33A5.34,5.34,0,0,0,38.59,0Zm4.67,12.67a4.67,4.67,0,0,1-9.33,0V5.33A4.66,4.66,0,0,1,38.56.67h0a4.67,4.67,0,0,1,4.67,4.66Z"/><path class="cls-3" d="M43.26,5.33V9h-4.7V.67h0A4.67,4.67,0,0,1,43.26,5.33Z"/><path class="cls-4" d="M38.56.67V9H33.93V5.33A4.66,4.66,0,0,1,38.56.67Z"/></g></g></svg>