<svg xmlns="http://www.w3.org/2000/svg" viewBox="0 0 57.34 54"><defs><style>.cls-1{fill:#ccc;}.cls-2{fill:none;stroke:#ccc;stroke-miterlimit:10;}.cls-3{fill:#e6e6e6;}.cls-4{fill:#91b8c1;}</style></defs><title>Artboard 9_1</title><g id="tip2"><g id="txt2"><path class="cls-1" d="M19.88,22.92l-.56,2.65a.8.8,0,0,0,0,.25c0,.22.1.29.32.29s.51-.3.63-.69h.32c-.44,1.27-1.14,1.44-1.56,1.44a.73.73,0,0,1-.77-.74,1.29,1.29,0,0,1-1.15.74.81.81,0,0,1-.84-.93,2.58,2.58,0,0,1,.07-.51l.53-2.5H18l-.56,2.65a.89.89,0,0,0,0,.22c0,.18.06.32.24.32s.5-.3.62-.69l.53-2.5Z"/><path class="cls-1" d="M23.54,25.42a4.61,4.61,0,0,1-1.19,1,1.7,1.7,0,0,1-1.22.47,1,1,0,0,1-1.14-1,.8.8,0,0,1,.41-.73,11.48,11.48,0,0,0,1-2.3l1.15-.16c.09,2,.17,2.32.17,2.83a1.39,1.39,0,0,1,0,.3,3.65,3.65,0,0,0,.56-.39Zm-2.93.38a.23.23,0,0,1-.21-.1c0,.37.14.55.48.55a.64.64,0,0,0,.67-.73c0-.4-.07-.64-.14-1.84a10.32,10.32,0,0,1-.63,1.47.3.3,0,0,1,.18.27A.37.37,0,0,1,20.61,25.8Z"/><path class="cls-1" d="M24.74,26.12a1.57,1.57,0,0,0,.92-.41,1.26,1.26,0,0,1-1.35,1.15,1.09,1.09,0,0,1-1.2-1.24c0-.89.5-2.77,2.1-2.77.69,0,.85.36.85.75a1.79,1.79,0,0,1-1.79,1.64c0,.08,0,.17,0,.24C24.26,26,24.47,26.12,24.74,26.12Zm.53-2.85c-.39,0-.78.86-.94,1.6a1.29,1.29,0,0,0,1.13-1.29C25.46,23.39,25.42,23.27,25.27,23.27Z"/><path class="cls-1" d="M29.67,21.69l-.27,1.23h.47l-.06.31h-.47l-.5,2.34a1.29,1.29,0,0,0,0,.25c0,.22.1.29.32.29s.59-.3.7-.69h.33c-.44,1.27-1.21,1.44-1.63,1.44a.81.81,0,0,1-.84-.93,3.49,3.49,0,0,1,.06-.51l.47-2.19H28l.07-.31h.25l.24-1.07Z"/><path class="cls-1" d="M31.79,23.6c-.31,0-.55.48-.59.69l-.54,2.52H29.54l1.13-5.29,1.15-.15-.42,2a1.15,1.15,0,0,1,.91-.44.79.79,0,0,1,.86.88c0,.63-.37,1.57-.37,2,0,.19.08.33.31.33s.48-.28.65-.69h.33c-.44,1.28-1,1.44-1.45,1.44a.82.82,0,0,1-.91-.88c0-.53.35-1.48.35-2C32.08,23.74,32,23.6,31.79,23.6Z"/><path class="cls-1" d="M35.29,26.12a1.57,1.57,0,0,0,.92-.41,1.24,1.24,0,0,1-1.35,1.15,1.09,1.09,0,0,1-1.2-1.24c0-.89.5-2.77,2.1-2.77.69,0,.86.36.86.75a1.8,1.8,0,0,1-1.79,1.64,2.12,2.12,0,0,0,0,.24C34.81,26,35,26.12,35.29,26.12Zm.53-2.85c-.39,0-.78.86-.94,1.6A1.29,1.29,0,0,0,36,23.58C36,23.39,36,23.27,35.82,23.27Z"/><path class="cls-1" d="M42.19,23.6c-.28,0-.49.33-.61.72l-.53,2.49H39.93l.57-2.68a.58.58,0,0,0,0-.19c0-.18-.07-.35-.24-.35s-.51.34-.63.73l-.53,2.49H38l.83-3.89H40l-.09.41a1.19,1.19,0,0,1,1-.45.73.73,0,0,1,.8.67,1.26,1.26,0,0,1,1.08-.66.79.79,0,0,1,.87.88c0,.63-.38,1.57-.38,2a.29.29,0,0,0,.32.33c.34,0,.48-.28.65-.69h.33c-.44,1.28-1,1.44-1.45,1.44a.82.82,0,0,1-.92-.88c0-.53.35-1.48.35-2C42.47,23.74,42.38,23.6,42.19,23.6Z"/><path class="cls-1" d="M47.18,24.1h.09a2.52,2.52,0,0,0,1.2-.46l.07.21a2.44,2.44,0,0,1-1.38.64c-.12,1.44-.9,2.35-1.86,2.35a1.11,1.11,0,0,1-1.24-1.23c0-.9.52-2.77,2.13-2.77C46.86,22.85,47.18,23.28,47.18,24.1Zm-.67.43c-.16,0-.21-.17-.21-.33a.43.43,0,0,1,.25-.42c0-.33-.1-.45-.3-.45-.55,0-1,1.42-1,2.18,0,.52.1.64.39.64S46.39,25.44,46.51,24.53Z"/><path class="cls-1" d="M51.16,22.92l-.56,2.65a.85.85,0,0,0,0,.25c0,.22.1.29.32.29s.52-.3.63-.69h.33c-.44,1.27-1.14,1.44-1.56,1.44a.72.72,0,0,1-.77-.74,1.29,1.29,0,0,1-1.16.74c-.46,0-.83-.28-.83-.93a2.5,2.5,0,0,1,.06-.51l.53-2.5h1.12l-.56,2.65a1.8,1.8,0,0,0,0,.22c0,.18.06.32.23.32s.51-.3.63-.69l.52-2.5Z"/><path class="cls-1" d="M54.82,25.42a4.78,4.78,0,0,1-1.19,1,1.71,1.71,0,0,1-1.23.47,1,1,0,0,1-1.13-1,.8.8,0,0,1,.41-.73,11.48,11.48,0,0,0,1-2.3l1.15-.16c.09,2,.17,2.32.17,2.83a1.39,1.39,0,0,1,0,.3,3.65,3.65,0,0,0,.56-.39Zm-2.93.38a.22.22,0,0,1-.21-.1c0,.37.13.55.47.55a.64.64,0,0,0,.68-.73c0-.4-.07-.64-.15-1.84a8.45,8.45,0,0,1-.63,1.47.3.3,0,0,1,.18.27A.37.37,0,0,1,51.89,25.8Z"/><path class="cls-1" d="M56,26.12a1.54,1.54,0,0,0,.91-.41,1.24,1.24,0,0,1-1.34,1.15,1.1,1.1,0,0,1-1.21-1.24c0-.89.51-2.77,2.1-2.77.7,0,.86.36.86.75a1.8,1.8,0,0,1-1.79,1.64,2.12,2.12,0,0,0,0,.24C55.53,26,55.74,26.12,56,26.12Zm.53-2.85c-.39,0-.78.86-.95,1.6a1.29,1.29,0,0,0,1.14-1.29C56.74,23.39,56.69,23.27,56.55,23.27Z"/><path class="cls-1" d="M19.68,34.77a4.65,4.65,0,0,1-1.19,1,1.74,1.74,0,0,1-1.22.47,1,1,0,0,1-1.14-1,.79.79,0,0,1,.41-.72,11.32,11.32,0,0,0,1-2.31L18.65,32c.1,2,.17,2.32.17,2.83a1,1,0,0,1,0,.3,4.86,4.86,0,0,0,.56-.39Zm-2.93.38a.23.23,0,0,1-.21-.1c0,.36.14.54.48.54a.64.64,0,0,0,.68-.72c0-.41-.07-.65-.15-1.85a10,10,0,0,1-.63,1.48.29.29,0,0,1,.18.27A.37.37,0,0,1,16.75,35.15Z"/><path class="cls-1" d="M21.62,32.93c0-.19-.07-.32-.22-.32-.49,0-1,1.43-1,2.29,0,.53.18.65.56.65a1.78,1.78,0,0,0,1.37-.78h.27a2.6,2.6,0,0,1-2.14,1.44A1.1,1.1,0,0,1,19.25,35c0-.9.52-2.77,2.1-2.77.69,0,.86.36.86.72s-.19.56-.41.56a.48.48,0,0,1-.27-.09A1.43,1.43,0,0,0,21.62,32.93Z"/><path class="cls-1" d="M24,32.27l-.11.48a1.56,1.56,0,0,1,.95-.48.58.58,0,0,1,0,1.15c-.43,0-.21-.51-.45-.51a.81.81,0,0,0-.57.29l-.62,3H22.05l.83-3.89Z"/><path class="cls-1" d="M28.29,33.44a.18.18,0,0,0,.09,0,2.44,2.44,0,0,0,1.2-.47l.07.21a2.45,2.45,0,0,1-1.38.65c-.12,1.44-.9,2.34-1.86,2.34A1.11,1.11,0,0,1,25.17,35c0-.89.52-2.76,2.13-2.76C28,32.2,28.29,32.63,28.29,33.44Zm-.67.43a.29.29,0,0,1-.21-.32.43.43,0,0,1,.25-.42c0-.33-.1-.46-.3-.46-.55,0-1,1.43-1,2.19,0,.51.1.63.39.63S27.5,34.79,27.62,33.87Z"/><path class="cls-1" d="M30.68,30.71l-.9,4.21a1.2,1.2,0,0,0,0,.24c0,.22.1.29.32.29s.58-.29.7-.68h.33c-.45,1.27-1.22,1.44-1.64,1.44s-.83-.28-.83-.94a2.41,2.41,0,0,1,.06-.5l.84-3.9Z"/><path class="cls-1" d="M31.85,34.9a1,1,0,0,0,0,.23.27.27,0,0,0,.31.31.52.52,0,0,0,.25,0,.83.83,0,0,1-.85.82c-.47,0-.83-.29-.83-1a2.5,2.5,0,0,1,.06-.51l.83-3.9,1.15-.15Z"/><path class="cls-1" d="M36,31l-.27,1.23h.47l-.06.31h-.47l-.5,2.34a1.2,1.2,0,0,0,0,.24c0,.22.1.29.32.29a.83.83,0,0,0,.7-.68h.33C36,36,35.27,36.21,34.85,36.21s-.84-.28-.84-.94a3.37,3.37,0,0,1,.06-.5l.47-2.19h-.26l.07-.31h.25l.24-1.07Z"/><path class="cls-1" d="M39.14,33.25c.27,0,.47-.39.56-.54h.24a2.11,2.11,0,0,1-.8,1c-.09,1.49-.87,2.43-1.85,2.43A1.11,1.11,0,0,1,36.05,35c0-.89.5-2.76,2.1-2.76C38.77,32.2,39.1,32.56,39.14,33.25Zm-.66.62c-.12,0-.19-.15-.19-.35a.4.4,0,0,1,.22-.4c0-.33-.1-.45-.29-.45-.56,0-1,1.43-1,2.19,0,.51.1.63.39.63S38.36,34.79,38.48,33.87Z"/><path class="cls-1" d="M43.87,35.29a.4.4,0,0,1,.44-.34.34.34,0,0,1,.34.38.91.91,0,0,1-.95.83H41.64l2-3.47h-.43c-.25,0-.43,0-.43.12s.08,0,.08.18a.4.4,0,0,1-.42.41.33.33,0,0,1-.35-.34.9.9,0,0,1,.9-.79h2l-1.91,3.29c.13,0,.38,0,.59,0s.35,0,.37-.16A.16.16,0,0,1,43.87,35.29Z"/><path class="cls-1" d="M48,33.44a.15.15,0,0,0,.09,0A2.41,2.41,0,0,0,49.27,33l.07.21a2.42,2.42,0,0,1-1.37.65c-.13,1.44-.91,2.34-1.86,2.34A1.11,1.11,0,0,1,44.86,35c0-.89.53-2.76,2.13-2.76C47.66,32.2,48,32.63,48,33.44Zm-.67.43a.29.29,0,0,1-.21-.32.42.42,0,0,1,.24-.42c0-.33-.09-.46-.29-.46-.56,0-1,1.43-1,2.19,0,.51.1.63.4.63S47.2,34.79,47.32,33.87Z"/><path class="cls-1" d="M51.41,33.44a.13.13,0,0,0,.08,0,2.4,2.4,0,0,0,1.2-.47l.07.21a2.42,2.42,0,0,1-1.37.65c-.13,1.44-.91,2.34-1.86,2.34A1.11,1.11,0,0,1,48.28,35c0-.89.53-2.76,2.13-2.76C51.08,32.2,51.41,32.63,51.41,33.44Zm-.67.43a.29.29,0,0,1-.21-.32.42.42,0,0,1,.24-.42c0-.33-.09-.46-.29-.46-.56,0-1,1.43-1,2.19,0,.51.1.63.4.63S50.62,34.79,50.74,33.87Z"/><path class="cls-1" d="M55.69,33c-.28,0-.49.32-.61.71l-.52,2.5H53.43L54,33.48a.69.69,0,0,0,0-.2c0-.17-.07-.34-.24-.34s-.51.33-.63.72l-.53,2.5H51.51l.83-3.89h1.12l-.09.4a1.21,1.21,0,0,1,1-.44.73.73,0,0,1,.8.67,1.24,1.24,0,0,1,1.09-.66.79.79,0,0,1,.86.88c0,.63-.37,1.57-.37,2,0,.19.07.32.31.32a.47.47,0,0,0,.25,0,.83.83,0,0,1-.85.8c-.6,0-.79-.44-.79-.88s.35-1.49.35-2C56,33.09,55.88,33,55.69,33Z"/></g><g id="arrow2"><path class="cls-2" d="M23.09,9S-1.2,10.56.59,28.5c.64,6.34,7.09,14.88,11.74,20.29"/><polygon class="cls-1" points="17.09 54 7.44 49.27 12.05 48.33 13.52 43.87 17.09 54"/></g><g id="mouse2"><path class="cls-3" d="M36.59,0a5.33,5.33,0,0,0-5.33,5.33v7.34a5.34,5.34,0,0,0,10.67,0V5.33A5.34,5.34,0,0,0,36.59,0Zm4.67,12.67a4.67,4.67,0,0,1-9.33,0V5.33A4.66,4.66,0,0,1,36.56.67h0a4.67,4.67,0,0,1,4.67,4.66Z"/><path class="cls-3" d="M41.26,5.33V9h-4.7V.67h0A4.67,4.67,0,0,1,41.26,5.33Z"/><path class="cls-3" d="M36.56.67V9H31.93V5.33A4.66,4.66,0,0,1,36.56.67Z"/><rect class="cls-4" x="35.09" y="2" width="3" height="6" rx="1.5" ry="1.5"/></g></g></svg>