<?xml version="1.0" encoding="utf-8"?>
<!-- Generator: Adobe Illustrator 22.1.0, SVG Export Plug-In . SVG Version: 6.00 Build 0)  -->
<svg version="1.1" xmlns="http://www.w3.org/2000/svg" xmlns:xlink="http://www.w3.org/1999/xlink" x="0px" y="0px" width="1114px"
	 height="1567.06px" viewBox="0 0 1114 1567.06" enable-background="new 0 0 1114 1567.06" xml:space="preserve">
<g id="Layer_1">
</g>
<g id="Layer_2">
</g>
<g id="title">
</g>
<g id="tip1">
</g>
<g id="tip2">
	<g id="txt2">
		<path fill="#CCCCCC" d="M103.783,631.923l-0.56,2.646c-0.023,0.101-0.031,0.179-0.031,0.249c0,0.218,0.101,0.288,0.319,0.288
			c0.304,0,0.514-0.296,0.63-0.685h0.327c-0.444,1.269-1.144,1.44-1.564,1.44c-0.443,0-0.724-0.257-0.77-0.739
			c-0.389,0.638-0.825,0.739-1.152,0.739c-0.467,0-0.833-0.28-0.833-0.934c0-0.148,0.023-0.319,0.062-0.506l0.529-2.498h1.121
			l-0.561,2.646c-0.016,0.078-0.023,0.148-0.023,0.218c0,0.179,0.063,0.319,0.234,0.319c0.303,0,0.505-0.296,0.623-0.685
			l0.529-2.498H103.783z"/>
		<path fill="#CCCCCC" d="M107.444,634.421c-0.405,0.467-0.833,0.763-1.191,0.973c-0.327,0.343-0.825,0.467-1.222,0.467
			c-0.794,0-1.136-0.521-1.136-0.996c0-0.358,0.202-0.623,0.413-0.724c0.436-0.77,0.716-1.541,0.957-2.303l1.152-0.156
			c0.093,2.016,0.171,2.319,0.171,2.833c0,0.109-0.008,0.203-0.031,0.296c0.21-0.125,0.412-0.265,0.56-0.389H107.444z
			 M104.518,634.803c-0.078,0-0.171-0.023-0.21-0.101c0,0.366,0.132,0.545,0.475,0.545s0.677-0.179,0.677-0.724
			c0-0.404-0.07-0.646-0.147-1.844c-0.156,0.506-0.374,0.973-0.63,1.471c0.101,0.047,0.179,0.14,0.179,0.272
			C104.86,634.608,104.72,634.803,104.518,634.803z"/>
		<path fill="#CCCCCC" d="M108.645,635.122c0.295,0,0.669-0.195,0.918-0.413c-0.163,0.887-0.724,1.152-1.346,1.152
			c-0.724,0-1.206-0.358-1.206-1.237c0-0.895,0.506-2.771,2.101-2.771c0.692,0,0.856,0.358,0.856,0.747
			c0,0.903-0.856,1.587-1.79,1.642c-0.007,0.078-0.015,0.163-0.015,0.233C108.163,634.966,108.373,635.122,108.645,635.122z
			 M109.174,632.266c-0.389,0-0.778,0.864-0.941,1.604c0.607-0.031,1.136-0.63,1.136-1.284
			C109.369,632.391,109.322,632.266,109.174,632.266z"/>
		<path fill="#CCCCCC" d="M113.575,630.694l-0.265,1.229h0.467l-0.062,0.312h-0.467l-0.498,2.334
			c-0.023,0.101-0.031,0.179-0.031,0.249c0,0.218,0.101,0.288,0.319,0.288c0.303,0,0.583-0.296,0.7-0.685h0.327
			c-0.444,1.269-1.214,1.44-1.634,1.44c-0.467,0-0.833-0.28-0.833-0.934c0-0.148,0.023-0.319,0.063-0.506l0.467-2.187h-0.257
			l0.063-0.312h0.257l0.233-1.074L113.575,630.694z"/>
		<path fill="#CCCCCC" d="M115.692,632.601c-0.303,0-0.544,0.475-0.591,0.685l-0.537,2.529h-1.121l1.128-5.292l1.152-0.155
			l-0.42,1.961c0.327-0.374,0.669-0.436,0.911-0.436c0.498,0,0.864,0.256,0.864,0.879c0,0.63-0.374,1.572-0.374,2.008
			c0,0.195,0.078,0.327,0.312,0.327c0.342,0,0.482-0.28,0.653-0.685h0.327c-0.436,1.276-1.035,1.44-1.448,1.44
			c-0.677,0-0.918-0.436-0.918-0.879c0-0.529,0.35-1.486,0.35-1.984C115.98,632.741,115.887,632.601,115.692,632.601z"/>
		<path fill="#CCCCCC" d="M119.198,635.122c0.295,0,0.669-0.195,0.918-0.413c-0.163,0.887-0.724,1.152-1.346,1.152
			c-0.724,0-1.206-0.358-1.206-1.237c0-0.895,0.506-2.771,2.101-2.771c0.692,0,0.856,0.358,0.856,0.747
			c0,0.903-0.856,1.587-1.79,1.642c-0.007,0.078-0.015,0.163-0.015,0.233C118.715,634.966,118.925,635.122,119.198,635.122z
			 M119.727,632.266c-0.389,0-0.778,0.864-0.941,1.604c0.607-0.031,1.136-0.63,1.136-1.284
			C119.921,632.391,119.875,632.266,119.727,632.266z"/>
		<path fill="#CCCCCC" d="M126.096,632.601c-0.28,0-0.49,0.327-0.607,0.716l-0.529,2.498h-1.121l0.568-2.685
			c0.016-0.063,0.023-0.125,0.023-0.195c0-0.171-0.062-0.342-0.233-0.342c-0.304,0-0.514,0.334-0.63,0.724l-0.529,2.498h-1.121
			l0.825-3.891h1.121l-0.086,0.405c0.327-0.374,0.677-0.443,0.95-0.443c0.412,0,0.716,0.187,0.801,0.669
			c0.374-0.576,0.794-0.661,1.082-0.661c0.498,0,0.864,0.256,0.864,0.879c0,0.63-0.374,1.572-0.374,2.008
			c0,0.195,0.078,0.327,0.311,0.327c0.343,0,0.482-0.28,0.654-0.685h0.327c-0.436,1.276-1.035,1.44-1.447,1.44
			c-0.677,0-0.918-0.436-0.918-0.879c0-0.529,0.351-1.486,0.351-1.984C126.376,632.741,126.283,632.601,126.096,632.601z"/>
		<path fill="#CCCCCC" d="M131.089,633.099c0.031,0.016,0.062,0.016,0.085,0.016c0.358,0,0.864-0.233,1.198-0.467l0.07,0.21
			c-0.296,0.319-0.81,0.552-1.377,0.646c-0.125,1.439-0.903,2.342-1.86,2.342c-0.724,0-1.245-0.343-1.245-1.229
			c0-0.895,0.529-2.763,2.132-2.763C130.762,631.854,131.089,632.281,131.089,633.099z M130.42,633.526
			c-0.164-0.039-0.21-0.171-0.21-0.327c0-0.218,0.101-0.358,0.241-0.42c-0.016-0.327-0.093-0.451-0.296-0.451
			c-0.552,0-1.035,1.424-1.035,2.187c0,0.514,0.101,0.63,0.396,0.63C129.898,635.145,130.295,634.445,130.42,633.526z"/>
		<path fill="#CCCCCC" d="M135.061,631.923l-0.56,2.646c-0.023,0.101-0.031,0.179-0.031,0.249c0,0.218,0.101,0.288,0.319,0.288
			c0.304,0,0.514-0.296,0.63-0.685h0.327c-0.444,1.269-1.144,1.44-1.564,1.44c-0.443,0-0.724-0.257-0.77-0.739
			c-0.389,0.638-0.825,0.739-1.152,0.739c-0.467,0-0.833-0.28-0.833-0.934c0-0.148,0.023-0.319,0.062-0.506l0.529-2.498h1.121
			l-0.561,2.646c-0.016,0.078-0.023,0.148-0.023,0.218c0,0.179,0.063,0.319,0.234,0.319c0.303,0,0.505-0.296,0.623-0.685
			l0.529-2.498H135.061z"/>
		<path fill="#CCCCCC" d="M138.722,634.421c-0.405,0.467-0.833,0.763-1.191,0.973c-0.327,0.343-0.825,0.467-1.222,0.467
			c-0.794,0-1.136-0.521-1.136-0.996c0-0.358,0.202-0.623,0.413-0.724c0.436-0.77,0.716-1.541,0.957-2.303l1.152-0.156
			c0.093,2.016,0.171,2.319,0.171,2.833c0,0.109-0.008,0.203-0.031,0.296c0.21-0.125,0.412-0.265,0.56-0.389H138.722z
			 M135.795,634.803c-0.078,0-0.171-0.023-0.21-0.101c0,0.366,0.132,0.545,0.475,0.545s0.677-0.179,0.677-0.724
			c0-0.404-0.07-0.646-0.147-1.844c-0.156,0.506-0.374,0.973-0.63,1.471c0.101,0.047,0.179,0.14,0.179,0.272
			C136.138,634.608,135.998,634.803,135.795,634.803z"/>
		<path fill="#CCCCCC" d="M139.922,635.122c0.295,0,0.669-0.195,0.918-0.413c-0.163,0.887-0.724,1.152-1.346,1.152
			c-0.724,0-1.206-0.358-1.206-1.237c0-0.895,0.506-2.771,2.101-2.771c0.692,0,0.856,0.358,0.856,0.747
			c0,0.903-0.856,1.587-1.79,1.642c-0.007,0.078-0.015,0.163-0.015,0.233C139.44,634.966,139.65,635.122,139.922,635.122z
			 M140.451,632.266c-0.389,0-0.778,0.864-0.941,1.604c0.607-0.031,1.136-0.63,1.136-1.284
			C140.646,632.391,140.599,632.266,140.451,632.266z"/>
		<path fill="#CCCCCC" d="M103.585,643.768c-0.404,0.467-0.833,0.763-1.19,0.973c-0.327,0.343-0.825,0.467-1.222,0.467
			c-0.794,0-1.136-0.521-1.136-0.996c0-0.358,0.202-0.623,0.413-0.724c0.436-0.77,0.716-1.541,0.957-2.303l1.152-0.156
			c0.093,2.016,0.171,2.319,0.171,2.833c0,0.109-0.008,0.203-0.031,0.296c0.21-0.125,0.412-0.265,0.56-0.389H103.585z
			 M100.659,644.149c-0.078,0-0.171-0.023-0.21-0.101c0,0.366,0.132,0.545,0.475,0.545s0.677-0.179,0.677-0.724
			c0-0.404-0.07-0.646-0.147-1.844c-0.156,0.506-0.374,0.973-0.63,1.471c0.101,0.047,0.179,0.14,0.179,0.272
			C101.001,643.955,100.861,644.149,100.659,644.149z"/>
		<path fill="#CCCCCC" d="M105.525,641.931c0-0.195-0.07-0.319-0.218-0.319c-0.49,0-0.996,1.424-0.996,2.288
			c0,0.529,0.187,0.654,0.56,0.654c0.615,0,0.988-0.342,1.377-0.786h0.265c-0.444,0.716-1.105,1.44-2.14,1.44
			c-0.731,0-1.214-0.358-1.214-1.237c0-0.903,0.514-2.771,2.093-2.771c0.692,0,0.864,0.358,0.864,0.716
			c0,0.381-0.187,0.568-0.413,0.568c-0.085,0-0.179-0.031-0.272-0.093C105.494,642.219,105.525,642.063,105.525,641.931z"/>
		<path fill="#CCCCCC" d="M107.901,641.27l-0.101,0.482c0.272-0.233,0.568-0.482,0.941-0.482c0.35,0,0.537,0.288,0.537,0.584
			c0,0.272-0.179,0.568-0.561,0.568c-0.436,0-0.218-0.514-0.451-0.514s-0.374,0.117-0.568,0.296l-0.623,2.957h-1.121l0.825-3.891
			H107.901z"/>
		<path fill="#CCCCCC" d="M112.199,642.445c0.031,0.016,0.062,0.016,0.085,0.016c0.358,0,0.864-0.233,1.198-0.467l0.07,0.21
			c-0.296,0.319-0.81,0.552-1.377,0.646c-0.125,1.439-0.903,2.342-1.86,2.342c-0.724,0-1.245-0.342-1.245-1.229
			c0-0.895,0.529-2.763,2.132-2.763C111.872,641.2,112.199,641.627,112.199,642.445z M111.53,642.873
			c-0.164-0.039-0.21-0.171-0.21-0.327c0-0.218,0.101-0.358,0.241-0.42c-0.016-0.327-0.093-0.451-0.296-0.451
			c-0.552,0-1.035,1.424-1.035,2.187c0,0.514,0.101,0.63,0.396,0.63C111.008,644.491,111.405,643.791,111.53,642.873z"/>
		<path fill="#CCCCCC" d="M114.583,639.713l-0.895,4.202c-0.023,0.101-0.031,0.179-0.031,0.249c0,0.218,0.101,0.288,0.319,0.288
			c0.303,0,0.583-0.296,0.7-0.685h0.327c-0.444,1.269-1.214,1.44-1.634,1.44c-0.467,0-0.833-0.28-0.833-0.934
			c0-0.148,0.023-0.319,0.063-0.506l0.833-3.898L114.583,639.713z"/>
		<path fill="#CCCCCC" d="M115.752,643.9c-0.016,0.078-0.031,0.156-0.031,0.226c0,0.179,0.078,0.312,0.319,0.312
			c0.14,0,0.202-0.023,0.249-0.047c-0.039,0.553-0.436,0.817-0.856,0.817c-0.467,0-0.833-0.288-0.833-0.95
			c0-0.148,0.023-0.319,0.062-0.506l0.833-3.898l1.152-0.156L115.752,643.9z"/>
		<path fill="#CCCCCC" d="M119.895,640.04l-0.265,1.229h0.467l-0.063,0.312h-0.467l-0.498,2.334
			c-0.023,0.101-0.031,0.179-0.031,0.249c0,0.218,0.102,0.288,0.319,0.288c0.304,0,0.583-0.296,0.7-0.685h0.327
			c-0.444,1.269-1.214,1.44-1.634,1.44c-0.467,0-0.833-0.28-0.833-0.934c0-0.148,0.023-0.319,0.062-0.506l0.467-2.187h-0.257
			l0.063-0.312h0.257l0.233-1.074L119.895,640.04z"/>
		<path fill="#CCCCCC" d="M123.048,642.25c0.272-0.054,0.467-0.389,0.553-0.537h0.249c-0.156,0.334-0.389,0.817-0.802,1.042
			c-0.093,1.494-0.872,2.436-1.852,2.436c-0.724,0-1.245-0.342-1.245-1.229c0-0.895,0.506-2.763,2.109-2.763
			C122.674,641.2,123.001,641.558,123.048,642.25z M122.386,642.873c-0.125-0.046-0.187-0.155-0.187-0.35
			c0-0.21,0.085-0.342,0.218-0.405c-0.016-0.327-0.101-0.443-0.296-0.443c-0.552,0-1.011,1.424-1.011,2.187
			c0,0.514,0.101,0.63,0.396,0.63C121.888,644.491,122.27,643.791,122.386,642.873z"/>
		<path fill="#CCCCCC" d="M127.776,644.289c0-0.14,0.148-0.334,0.436-0.334c0.233,0,0.342,0.163,0.342,0.374
			c0,0.358-0.35,0.833-0.95,0.833h-2.062l1.984-3.471h-0.436c-0.242,0-0.428,0.016-0.428,0.125c0,0.039,0.085-0.008,0.085,0.171
			c0,0.288-0.218,0.413-0.42,0.413c-0.179,0-0.358-0.117-0.358-0.342c0-0.319,0.35-0.786,0.902-0.786h2l-1.906,3.292
			c0.132,0.008,0.381,0.046,0.591,0.046c0.187,0,0.342-0.031,0.366-0.155C127.823,644.445,127.776,644.375,127.776,644.289z"/>
		<path fill="#CCCCCC" d="M131.896,642.445c0.031,0.016,0.062,0.016,0.085,0.016c0.358,0,0.864-0.233,1.198-0.467l0.07,0.21
			c-0.296,0.319-0.81,0.552-1.377,0.646c-0.125,1.439-0.903,2.342-1.86,2.342c-0.724,0-1.245-0.342-1.245-1.229
			c0-0.895,0.529-2.763,2.132-2.763C131.568,641.2,131.896,641.627,131.896,642.445z M131.226,642.873
			c-0.164-0.039-0.21-0.171-0.21-0.327c0-0.218,0.101-0.358,0.241-0.42c-0.016-0.327-0.093-0.451-0.296-0.451
			c-0.552,0-1.035,1.424-1.035,2.187c0,0.514,0.101,0.63,0.396,0.63C130.705,644.491,131.102,643.791,131.226,642.873z"/>
		<path fill="#CCCCCC" d="M135.314,642.445c0.031,0.016,0.062,0.016,0.085,0.016c0.358,0,0.864-0.233,1.198-0.467l0.07,0.21
			c-0.296,0.319-0.81,0.552-1.377,0.646c-0.125,1.439-0.903,2.342-1.86,2.342c-0.724,0-1.245-0.342-1.245-1.229
			c0-0.895,0.529-2.763,2.132-2.763C134.987,641.2,135.314,641.627,135.314,642.445z M134.645,642.873
			c-0.164-0.039-0.21-0.171-0.21-0.327c0-0.218,0.101-0.358,0.241-0.42c-0.016-0.327-0.093-0.451-0.296-0.451
			c-0.552,0-1.035,1.424-1.035,2.187c0,0.514,0.101,0.63,0.396,0.63C134.124,644.491,134.521,643.791,134.645,642.873z"/>
		<path fill="#CCCCCC" d="M139.597,641.947c-0.28,0-0.49,0.327-0.607,0.716l-0.529,2.498h-1.121l0.568-2.685
			c0.016-0.063,0.023-0.125,0.023-0.195c0-0.171-0.062-0.342-0.233-0.342c-0.304,0-0.514,0.334-0.63,0.724l-0.529,2.498h-1.121
			l0.825-3.891h1.121l-0.086,0.405c0.327-0.374,0.677-0.443,0.95-0.443c0.412,0,0.716,0.187,0.801,0.669
			c0.374-0.576,0.794-0.662,1.082-0.662c0.498,0,0.864,0.257,0.864,0.879c0,0.63-0.374,1.572-0.374,2.008
			c0,0.195,0.078,0.327,0.311,0.327c0.132,0,0.21-0.016,0.257-0.047c-0.07,0.561-0.443,0.802-0.856,0.802
			c-0.599,0-0.786-0.436-0.786-0.879c0-0.529,0.351-1.486,0.351-1.984C139.877,642.087,139.784,641.947,139.597,641.947z"/>
	</g>
	<g id="arrow2">
		<path fill="none" stroke="#CCCCCC" stroke-miterlimit="10" d="M107,618c0,0-24.294,1.562-22.5,19.5
			c0.634,6.336,7.088,14.879,11.733,20.29"/>
		<g>
			<polygon fill="#CCCCCC" points="101,663 91.349,658.27 95.955,657.331 97.422,652.866 			"/>
		</g>
	</g>
	<g id="mouse2">
		<g>
			<path fill="#E6E6E6" d="M120.5,609c-2.941,0-5.333,2.392-5.333,5.333v7.333c0,2.941,2.392,5.333,5.333,5.333
				s5.333-2.392,5.333-5.333v-7.333C125.833,611.392,123.441,609,120.5,609z M125.167,621.667c0,2.573-2.093,4.667-4.667,4.667
				s-4.667-2.093-4.667-4.667v-7.333c0-2.561,2.074-4.647,4.631-4.666c0.012-0.001,0.023-0.001,0.035-0.001
				c2.573,0,4.667,2.093,4.667,4.667V621.667z"/>
			<path fill="#E6E6E6" d="M125.167,614.333V618h-4.702v-8.332c0.012-0.001,0.023-0.001,0.035-0.001
				C123.073,609.667,125.167,611.76,125.167,614.333z"/>
			<path fill="#E6E6E6" d="M120.465,609.668V618h-4.631v-3.667C115.833,611.772,117.908,609.686,120.465,609.668z"/>
			<path fill="#91B8C1" d="M120.5,617L120.5,617c-0.825,0-1.5-0.675-1.5-1.5v-3c0-0.825,0.675-1.5,1.5-1.5l0,0
				c0.825,0,1.5,0.675,1.5,1.5v3C122,616.325,121.325,617,120.5,617z"/>
		</g>
	</g>
</g>
</svg>
