<svg xmlns="http://www.w3.org/2000/svg" viewBox="0 0 51.25 61.3"><defs><style>.cls-1{fill:#b3b3b3;}.cls-2{fill:none;stroke:#ccc;stroke-miterlimit:10;}.cls-3{fill:#ccc;}.cls-4{fill:#16a085;opacity:0.5;}</style></defs><title>Artboard 1 copy 2</title><g id="tip3"><g id="txt3"><path class="cls-1" d="M8,39.34c0-.2-.07-.32-.22-.32-.49,0-1,1.42-1,2.29,0,.53.19.65.56.65a1.76,1.76,0,0,0,1.38-.79H9a2.58,2.58,0,0,1-2.14,1.44,1.1,1.1,0,0,1-1.22-1.23c0-.91.52-2.77,2.1-2.77.69,0,.86.35.86.71s-.19.57-.41.57a.48.48,0,0,1-.27-.09A1.43,1.43,0,0,0,8,39.34Z"/><path class="cls-1" d="M10.72,37.12l-.9,4.2a1.29,1.29,0,0,0,0,.25c0,.22.1.29.32.29s.59-.3.7-.69h.33c-.44,1.27-1.21,1.44-1.63,1.44a.81.81,0,0,1-.84-.93,3.49,3.49,0,0,1,.06-.51l.84-3.9Z"/><path class="cls-1" d="M12.46,38.68l-.56,2.64a1.29,1.29,0,0,0,0,.25c0,.22.1.29.32.29s.58-.3.7-.69h.33c-.45,1.27-1.22,1.44-1.64,1.44s-.83-.28-.83-.93a2.5,2.5,0,0,1,.06-.51l.53-2.49ZM12.11,37a.62.62,0,1,1,0,1.24.62.62,0,0,1,0-1.24Z"/><path class="cls-1" d="M15.16,39.34c0-.2-.07-.32-.22-.32-.49,0-1,1.42-1,2.29,0,.53.19.65.56.65a1.76,1.76,0,0,0,1.38-.79h.27A2.58,2.58,0,0,1,14,42.61a1.09,1.09,0,0,1-1.22-1.23c0-.91.52-2.77,2.1-2.77.69,0,.86.35.86.71s-.19.57-.41.57a.54.54,0,0,1-.28-.09A1.24,1.24,0,0,0,15.16,39.34Z"/><path class="cls-1" d="M19.56,38.68,18,39.76a1.15,1.15,0,0,1,.26,0,.82.82,0,0,1,.85.91,1,1,0,0,1,0,.29l-.08.39a1,1,0,0,0,0,.25c0,.16.06.29.3.29s.22,0,.27,0a.85.85,0,0,1-.72.8c-.64,0-1-.32-1-.88a2.08,2.08,0,0,1,.05-.41l.06-.3a1.5,1.5,0,0,0,0-.29c0-.23-.08-.37-.28-.37a1,1,0,0,0-.58.28l-.4,1.93H15.59l1.13-5.3,1.15-.15-.58,2.74,1.5-1.18Z"/><path class="cls-1" d="M24.27,39.85a.13.13,0,0,0,.08,0,2.5,2.5,0,0,0,1.2-.47l.07.21a2.48,2.48,0,0,1-1.37.65c-.13,1.44-.91,2.34-1.86,2.34a1.11,1.11,0,0,1-1.25-1.23c0-.9.53-2.76,2.13-2.76C23.94,38.61,24.27,39,24.27,39.85Zm-.67.43c-.16,0-.21-.17-.21-.33a.42.42,0,0,1,.24-.42c0-.32-.09-.45-.29-.45-.56,0-1,1.42-1,2.19,0,.51.1.63.4.63S23.48,41.2,23.6,40.28Z"/><path class="cls-1" d="M26.63,39.35c-.28,0-.49.33-.61.72l-.53,2.5H24.37l.83-3.89h1.12l-.09.4a1.18,1.18,0,0,1,.91-.44.79.79,0,0,1,.87.88c0,.63-.38,1.58-.38,2,0,.2.08.33.32.33a.44.44,0,0,0,.25,0,.83.83,0,0,1-.85.8c-.6,0-.79-.43-.79-.88s.35-1.48.35-2C26.91,39.49,26.82,39.35,26.63,39.35Z"/><path class="cls-1" d="M31.81,37.45l-.27,1.23H32L32,39h-.47L31,41.32a1.29,1.29,0,0,0,0,.25c0,.22.1.29.32.29s.59-.3.7-.69h.33c-.44,1.27-1.21,1.44-1.63,1.44a.81.81,0,0,1-.84-.93,2.58,2.58,0,0,1,.07-.51L30.36,39H30.1l.07-.31h.25l.24-1.08Z"/><path class="cls-1" d="M33.93,39.35c-.31,0-.55.48-.59.69l-.54,2.53H31.68l1.13-5.3L34,37.12l-.42,2a1.18,1.18,0,0,1,.91-.44.79.79,0,0,1,.86.88c0,.63-.37,1.58-.37,2,0,.2.08.33.31.33s.48-.28.65-.69h.33c-.43,1.28-1,1.44-1.45,1.44a.82.82,0,0,1-.91-.88c0-.52.35-1.48.35-2C34.22,39.49,34.12,39.35,33.93,39.35Z"/><path class="cls-1" d="M37.43,41.87a1.57,1.57,0,0,0,.92-.41A1.24,1.24,0,0,1,37,42.61a1.09,1.09,0,0,1-1.2-1.23c0-.9.5-2.77,2.1-2.77.69,0,.86.35.86.74A1.79,1.79,0,0,1,37,41a2.12,2.12,0,0,0,0,.24C37,41.72,37.16,41.87,37.43,41.87ZM38,39c-.39,0-.78.86-.94,1.6a1.29,1.29,0,0,0,1.14-1.28C38.16,39.14,38.11,39,38,39Z"/><path class="cls-1" d="M2.05,46.46l-.9,4.21a1.29,1.29,0,0,0,0,.25c0,.21.1.29.32.29s.58-.3.7-.69h.33C2,51.79,1.25,52,.83,52S0,51.68,0,51a2.5,2.5,0,0,1,.06-.51l.84-3.9Z"/><path class="cls-1" d="M3.75,51.31a1.79,1.79,0,0,0,1.38-.79H5.4A2.58,2.58,0,0,1,3.25,52,1.09,1.09,0,0,1,2,50.72c0-.89.51-2.77,2.1-2.77.69,0,.86.36.86.75a1.81,1.81,0,0,1-1.79,1.64c0,.11,0,.22,0,.31C3.19,51.18,3.38,51.31,3.75,51.31Zm.45-3c-.39,0-.77.84-.93,1.61A1.31,1.31,0,0,0,4.4,48.68C4.4,48.49,4.35,48.36,4.2,48.36Z"/><path class="cls-1" d="M8.87,48,8.1,51.63a1.48,1.48,0,0,0,1-1.11H9.4A1.85,1.85,0,0,1,8,52l-.12.57c-.23,1.11-.89,1.32-1.4,1.32a.77.77,0,0,1-.87-.76c0-.65.68-1,1.27-1.16L7,51.53a1.26,1.26,0,0,1-.93.43c-.53,0-1-.33-1-1.25S5.68,48,7,48c.44,0,.63.17.63.4v0L7.75,48ZM6.33,53.25c.16,0,.35-.23.45-.69l0-.23c-.4.15-.76.35-.76.66A.26.26,0,0,0,6.33,53.25ZM6.18,50.6c0,.6.25.61.39.61a.76.76,0,0,0,.62-.61l.4-1.85a.31.31,0,0,0-.32-.29C6.61,48.46,6.18,49.87,6.18,50.6Z"/><path class="cls-1" d="M10.69,51.31a1.79,1.79,0,0,0,1.38-.79h.26A2.55,2.55,0,0,1,10.19,52,1.09,1.09,0,0,1,9,50.72c0-.89.51-2.77,2.1-2.77.69,0,.86.36.86.75a1.81,1.81,0,0,1-1.79,1.64c0,.11,0,.22,0,.31C10.13,51.18,10.32,51.31,10.69,51.31Zm.45-3c-.39,0-.77.84-.93,1.61a1.31,1.31,0,0,0,1.13-1.29C11.34,48.49,11.29,48.36,11.14,48.36Z"/><path class="cls-1" d="M14,48.7c-.28,0-.49.33-.6.71l-.53,2.5H11.78L12.6,48h1.12l-.08.41a1.14,1.14,0,0,1,.91-.44.79.79,0,0,1,.86.88c0,.63-.37,1.57-.37,2,0,.19.07.33.31.33s.48-.29.65-.69h.33c-.44,1.28-1,1.44-1.45,1.44a.83.83,0,0,1-.92-.88c0-.53.35-1.49.35-2C14.31,48.84,14.22,48.7,14,48.7Z"/><path class="cls-1" d="M19.17,50.67a1.92,1.92,0,0,0,0,.22.28.28,0,0,0,.32.32.55.55,0,0,0,.25-.05.82.82,0,0,1-.86.8.77.77,0,0,1-.81-.65,1.33,1.33,0,0,1-1.1.65c-.53,0-1-.33-1-1.25s.65-2.73,2-2.73c.45,0,.63.17.63.4v0l.39-1.79,1.15-.16Zm-.71-1.93a.3.3,0,0,0-.31-.28c-.67,0-1.09,1.41-1.09,2.14s.24.61.38.61a.68.68,0,0,0,.61-.57Z"/><path class="cls-1" d="M23.32,46.79,23.05,48h.47l-.06.31H23l-.5,2.34a1.29,1.29,0,0,0,0,.25c0,.21.1.29.32.29s.58-.3.7-.69h.33C23.36,51.79,22.59,52,22.17,52s-.83-.28-.83-.93a2.5,2.5,0,0,1,.06-.51l.47-2.19h-.26l.06-.31h.26L22.16,47Z"/><path class="cls-1" d="M26.47,49c.27,0,.47-.39.55-.54h.25a2.17,2.17,0,0,1-.8,1c-.09,1.49-.87,2.43-1.85,2.43a1.11,1.11,0,0,1-1.25-1.23c0-.89.51-2.76,2.11-2.76C26.1,48,26.42,48.31,26.47,49Zm-.66.63c-.13-.05-.19-.16-.19-.36a.4.4,0,0,1,.22-.4c0-.33-.1-.44-.3-.44-.55,0-1,1.42-1,2.18,0,.52.1.63.4.63S25.69,50.54,25.81,49.63Z"/><path class="cls-1" d="M32.26,50.52a4.45,4.45,0,0,1-1.19,1,1.67,1.67,0,0,1-1.22.47,1,1,0,0,1-1.13-1,.8.8,0,0,1,.41-.72,12,12,0,0,0,.95-2.3l1.16-.16c.09,2,.17,2.32.17,2.83a1.39,1.39,0,0,1,0,.3,5.93,5.93,0,0,0,.56-.39Zm-2.92.38a.22.22,0,0,1-.21-.1c0,.37.13.54.47.54a.64.64,0,0,0,.68-.72c0-.4-.07-.65-.15-1.84a8.45,8.45,0,0,1-.63,1.47.29.29,0,0,1,.18.27A.37.37,0,0,1,29.34,50.9Z"/><path class="cls-1" d="M33.89,48.7c-.3,0-.54.47-.59.68l-.54,2.53H31.64l1.13-5.29,1.15-.16-.42,2a1.15,1.15,0,0,1,.91-.44.79.79,0,0,1,.87.88c0,.63-.38,1.57-.38,2a.29.29,0,0,0,.32.33c.34,0,.48-.29.65-.69h.33c-.44,1.28-1,1.44-1.45,1.44a.83.83,0,0,1-.92-.88c0-.53.35-1.49.35-2C34.18,48.84,34.09,48.7,33.89,48.7Z"/><path class="cls-1" d="M38.89,49.2H39a2.52,2.52,0,0,0,1.2-.46l.07.21a2.51,2.51,0,0,1-1.38.64C38.74,51,38,51.94,37,51.94a1.11,1.11,0,0,1-1.25-1.23c0-.89.53-2.76,2.14-2.76C38.56,48,38.89,48.38,38.89,49.2Zm-.67.43A.3.3,0,0,1,38,49.3a.42.42,0,0,1,.24-.42c0-.33-.09-.45-.29-.45-.55,0-1,1.42-1,2.18,0,.52.1.63.4.63S38.1,50.54,38.22,49.63Z"/><path class="cls-1" d="M40.94,48l-.56,2.65a1.23,1.23,0,0,0,0,.19c0,.18,0,.35.23.35s.51-.3.62-.69l.53-2.5h1.12l-.56,2.65a1.86,1.86,0,0,0,0,.28.24.24,0,0,0,.27.26c.76,0,1.35-1.75,1.35-2.6,0,0-.19.07-.25.07s-.28-.22-.28-.39.15-.42.48-.42.49.33.49.67c0,1.25-.63,3.42-2.22,3.42a.83.83,0,0,1-.93-.65,1.27,1.27,0,0,1-1.11.65c-.46,0-.83-.28-.83-.93a2.5,2.5,0,0,1,.06-.51l.53-2.5Z"/><path class="cls-1" d="M6.44,58.54a.13.13,0,0,0,.08,0,2.54,2.54,0,0,0,1.2-.47l.07.21A2.52,2.52,0,0,1,6.41,59c-.12,1.44-.9,2.34-1.86,2.34a1.11,1.11,0,0,1-1.24-1.23c0-.89.53-2.76,2.13-2.76C6.11,57.3,6.44,57.72,6.44,58.54ZM5.77,59c-.17,0-.21-.17-.21-.33a.44.44,0,0,1,.24-.42c0-.32-.1-.45-.3-.45-.55,0-1,1.43-1,2.19,0,.51.1.63.39.63S5.64,59.89,5.77,59Z"/><path class="cls-1" d="M8.48,57.37l-.1.48a1.56,1.56,0,0,1,.94-.48.58.58,0,0,1,0,1.15c-.43,0-.22-.51-.45-.51a.81.81,0,0,0-.57.29l-.62,3H6.54l.82-3.89Z"/><path class="cls-1" d="M13.41,58c-.31,0-.55.48-.6.69l-.53,2.53H11.16L12.29,56l1.15-.16-.42,2a1.15,1.15,0,0,1,.91-.43.78.78,0,0,1,.86.87c0,.64-.37,1.58-.37,2,0,.2.08.33.31.33s.48-.28.65-.68h.33c-.44,1.27-1,1.43-1.45,1.43a.83.83,0,0,1-.92-.87c0-.53.35-1.49.35-2C13.69,58.18,13.6,58,13.41,58Z"/><path class="cls-1" d="M17,57.37,16.48,60a.85.85,0,0,0,0,.25c0,.22.11.29.32.29a.84.84,0,0,0,.7-.68h.33c-.44,1.26-1.21,1.43-1.63,1.43s-.84-.27-.84-.93a2.4,2.4,0,0,1,.07-.5l.53-2.5Zm-.35-1.66a.62.62,0,1,1,0,1.24.62.62,0,1,1,0-1.24Z"/><path class="cls-1" d="M21.53,55.81l-.9,4.2a1.29,1.29,0,0,0,0,.25c0,.22.1.29.32.29s.51-.3.63-.68h.33c-.45,1.26-1.15,1.39-1.57,1.39a.71.71,0,0,1-.76-.67,1.37,1.37,0,0,1-1.15.71c-.53,0-1-.32-1-1.25s.65-2.72,2-2.72c.45,0,.63.17.63.39v0L20.38,56Zm-2,4.06.38-1.79a.3.3,0,0,0-.31-.27c-.67,0-1.09,1.4-1.09,2.13s.25.61.38.61a.77.77,0,0,0,.64-.65Z"/><path class="cls-1" d="M23.08,60.57a1.58,1.58,0,0,0,.92-.42,1.26,1.26,0,0,1-1.35,1.15,1.08,1.08,0,0,1-1.2-1.23c0-.9.5-2.77,2.1-2.77.69,0,.85.36.85.74a1.8,1.8,0,0,1-1.79,1.65,1.77,1.77,0,0,0,0,.23C22.6,60.41,22.81,60.57,23.08,60.57Zm.53-2.86c-.39,0-.78.86-.94,1.6A1.29,1.29,0,0,0,23.8,58C23.8,57.83,23.76,57.71,23.61,57.71Z"/><path class="cls-1" d="M26.93,56l1.15-.16-.37,1.75a1.13,1.13,0,0,1,.63-.22c.55,0,.92.35.92,1.33s-.48,2.63-2.13,2.63c-.72,0-1.09-.37-1.09-1a2.47,2.47,0,0,1,.05-.44Zm1.13,1.93a.78.78,0,0,0-.46.14l-.42,2a.67.67,0,0,0,0,.18c0,.23.14.36.42.36.5,0,.91-1.09.91-1.91C28.48,58.26,28.34,57.9,28.06,57.9Z"/><path class="cls-1" d="M33.29,57.37,32.73,60a.8.8,0,0,0,0,.25c0,.22.1.34.32.34s.51-.35.63-.73H34c-.44,1.26-1.14,1.43-1.56,1.43a.7.7,0,0,1-.76-.71,1.42,1.42,0,0,1-1.16.71c-.53,0-1-.32-1-1.25s.65-2.72,2-2.72c.45,0,.63.17.63.39v.06l.09-.41ZM30.6,59.94c0,.6.25.61.39.61a.78.78,0,0,0,.65-.68L32,58.11a.3.3,0,0,0-.32-.3C31,57.81,30.6,59.21,30.6,59.94Z"/><path class="cls-1" d="M35.3,57.37l-.1.48a1.53,1.53,0,0,1,.94-.48.58.58,0,0,1,0,1.15c-.44,0-.22-.51-.46-.51a.78.78,0,0,0-.56.29l-.63,3H33.35l.83-3.89Z"/><path class="cls-1" d="M38.85,57.13c.09,2,.17,2.32.17,2.83a1.41,1.41,0,0,1-1.56,1.34,1,1,0,0,1-1.13-1,.79.79,0,0,1,.41-.72,11.81,11.81,0,0,0,1-2.31ZM37,60.25a.24.24,0,0,1-.21-.1c0,.36.13.54.48.54a.63.63,0,0,0,.67-.72c0-.41-.07-.65-.14-1.85a9,9,0,0,1-.64,1.47.29.29,0,0,1,.18.28A.37.37,0,0,1,37,60.25Z"/><path class="cls-1" d="M39.89,60.05a.63.63,0,0,1,.63.62.62.62,0,0,1-.63.62.61.61,0,0,1-.61-.62A.61.61,0,0,1,39.89,60.05Z"/></g><g id="arrow3"><path class="cls-2" d="M42.1,40.29S59,22.75,45.56,10.72C40.82,6.47,30.29,4.51,23.22,3.65"/><polygon class="cls-3" points="16.18 3.02 26.5 0 23.73 3.8 25.66 8.09 16.18 3.02"/></g><g id="mouse3"><path class="cls-3" d="M22,14.75a5.34,5.34,0,0,0-5.33,5.34v7.33a5.33,5.33,0,0,0,10.66,0V20.09A5.34,5.34,0,0,0,22,14.75Zm4.67,12.67a4.67,4.67,0,0,1-9.34,0V20.09A4.68,4.68,0,0,1,22,15.42h0a4.68,4.68,0,0,1,4.67,4.67Z"/><path class="cls-3" d="M26.69,20.09v3.66H22V15.42h0A4.68,4.68,0,0,1,26.69,20.09Z"/><path class="cls-4" d="M22,15.42v8.33H17.35V20.09A4.68,4.68,0,0,1,22,15.42Z"/></g></g></svg>