<svg xmlns="http://www.w3.org/2000/svg" viewBox="0 0 52.64 62.3"><defs><style>.cls-1{fill:#ccc;}.cls-2{fill:none;stroke:#ccc;stroke-miterlimit:10;}.cls-3{fill:#e6e6e6;}.cls-4{fill:#16a085;opacity:0.5;}</style></defs><title>Artboard 1 copy 2</title><g id="tip3"><g id="txt3"><path class="cls-1" d="M16.33,40.34c0-.2-.07-.32-.22-.32-.49,0-1,1.42-1,2.29,0,.53.19.65.56.65a1.76,1.76,0,0,0,1.38-.79h.27a2.58,2.58,0,0,1-2.14,1.44A1.09,1.09,0,0,1,14,42.38c0-.91.52-2.77,2.09-2.77.7,0,.87.35.87.71s-.19.57-.41.57a.54.54,0,0,1-.28-.09A1.24,1.24,0,0,0,16.33,40.34Z"/><path class="cls-1" d="M19,38.12l-.9,4.2a1.29,1.29,0,0,0,0,.25c0,.22.1.29.32.29s.58-.3.7-.69h.33c-.45,1.27-1.22,1.44-1.64,1.44s-.83-.28-.83-.93a2.5,2.5,0,0,1,.06-.51l.84-3.9Z"/><path class="cls-1" d="M20.78,39.68l-.56,2.64a1.29,1.29,0,0,0,0,.25c0,.22.1.29.32.29s.58-.3.7-.69h.33c-.45,1.27-1.22,1.44-1.64,1.44s-.83-.28-.83-.93a2.5,2.5,0,0,1,.06-.51l.53-2.49ZM20.43,38a.62.62,0,0,1,0,1.24.62.62,0,0,1,0-1.24Z"/><path class="cls-1" d="M23.48,40.34c0-.2-.07-.32-.22-.32-.49,0-1,1.42-1,2.29,0,.53.19.65.56.65a1.76,1.76,0,0,0,1.38-.79h.26a2.55,2.55,0,0,1-2.14,1.44,1.09,1.09,0,0,1-1.21-1.23c0-.91.51-2.77,2.09-2.77.7,0,.87.35.87.71s-.19.57-.41.57a.54.54,0,0,1-.28-.09A1.24,1.24,0,0,0,23.48,40.34Z"/><path class="cls-1" d="M27.88,39.68l-1.56,1.08a1.09,1.09,0,0,1,.26,0,.82.82,0,0,1,.85.91,1.5,1.5,0,0,1,0,.29l-.08.39a1,1,0,0,0,0,.25c0,.16.06.29.3.29s.22,0,.27,0a.86.86,0,0,1-.72.8c-.64,0-1-.32-1-.88a2,2,0,0,1,0-.41l.07-.3a1.5,1.5,0,0,0,0-.29c0-.23-.08-.37-.28-.37a1,1,0,0,0-.58.28L25,43.57H23.91L25,38.27l1.15-.15-.59,2.74,1.51-1.18Z"/><path class="cls-1" d="M32.59,40.85a.13.13,0,0,0,.08,0,2.5,2.5,0,0,0,1.2-.47l.07.21a2.48,2.48,0,0,1-1.38.65c-.12,1.44-.9,2.34-1.86,2.34a1.11,1.11,0,0,1-1.24-1.23c0-.9.53-2.76,2.13-2.76C32.26,39.61,32.59,40,32.59,40.85Zm-.67.43c-.17,0-.21-.17-.21-.33a.42.42,0,0,1,.24-.42c0-.32-.09-.45-.3-.45-.55,0-1,1.42-1,2.19,0,.51.1.63.4.63S31.79,42.2,31.92,41.28Z"/><path class="cls-1" d="M35,40.35c-.28,0-.49.33-.61.72l-.53,2.5H32.69l.83-3.89h1.12l-.09.4a1.18,1.18,0,0,1,.91-.44.79.79,0,0,1,.87.88c0,.63-.38,1.58-.38,2,0,.2.08.33.31.33a.49.49,0,0,0,.26,0,.83.83,0,0,1-.85.8c-.6,0-.79-.43-.79-.88s.35-1.48.35-2C35.23,40.49,35.14,40.35,35,40.35Z"/><path class="cls-1" d="M40.13,38.45l-.27,1.23h.47l-.06.31H39.8l-.5,2.33a1.29,1.29,0,0,0,0,.25c0,.22.1.29.32.29s.58-.3.7-.69h.33c-.45,1.27-1.22,1.44-1.64,1.44s-.83-.28-.83-.93a2.5,2.5,0,0,1,.06-.51L38.68,40h-.26l.07-.31h.25L39,38.6Z"/><path class="cls-1" d="M42.25,40.35c-.31,0-.55.48-.6.69l-.53,2.53H40l1.13-5.3,1.15-.15-.42,2a1.17,1.17,0,0,1,.91-.44.79.79,0,0,1,.86.88c0,.63-.37,1.58-.37,2,0,.2.08.33.31.33s.48-.28.65-.69h.33c-.44,1.28-1,1.44-1.45,1.44a.83.83,0,0,1-.92-.88c0-.52.35-1.48.35-2C42.53,40.49,42.44,40.35,42.25,40.35Z"/><path class="cls-1" d="M45.75,42.87a1.57,1.57,0,0,0,.92-.41,1.24,1.24,0,0,1-1.35,1.15,1.09,1.09,0,0,1-1.2-1.23c0-.9.5-2.77,2.1-2.77.69,0,.85.35.85.74A1.78,1.78,0,0,1,45.28,42c0,.08,0,.17,0,.24C45.27,42.72,45.48,42.87,45.75,42.87ZM46.28,40c-.39,0-.78.86-.94,1.6a1.29,1.29,0,0,0,1.14-1.28C46.48,40.14,46.43,40,46.28,40Z"/><path class="cls-1" d="M10.37,47.46l-.9,4.21a1.29,1.29,0,0,0,0,.25c0,.21.1.29.32.29s.58-.3.7-.69h.33C10.34,52.79,9.57,53,9.15,53s-.83-.28-.83-.93a2.5,2.5,0,0,1,.06-.51l.83-3.9Z"/><path class="cls-1" d="M12.07,52.31a1.79,1.79,0,0,0,1.38-.79h.26A2.55,2.55,0,0,1,11.57,53a1.09,1.09,0,0,1-1.21-1.24c0-.89.51-2.77,2.1-2.77.69,0,.86.36.86.75a1.81,1.81,0,0,1-1.79,1.64c0,.11,0,.22,0,.31C11.51,52.18,11.7,52.31,12.07,52.31Zm.45-3c-.39,0-.78.84-.93,1.61a1.31,1.31,0,0,0,1.13-1.29C12.72,49.49,12.67,49.36,12.52,49.36Z"/><path class="cls-1" d="M17.19,49l-.77,3.61a1.48,1.48,0,0,0,1-1.11h.32A1.85,1.85,0,0,1,16.35,53l-.12.57c-.23,1.11-.89,1.32-1.4,1.32A.77.77,0,0,1,14,54.1c0-.65.68-1,1.27-1.16l.09-.41a1.27,1.27,0,0,1-.94.43c-.52,0-1-.33-1-1.25S14,49,15.35,49c.44,0,.63.17.63.4v0l.09-.41Zm-2.54,5.23c.16,0,.35-.23.45-.69l.05-.23c-.4.15-.77.35-.77.66A.27.27,0,0,0,14.65,54.25ZM14.5,51.6c0,.6.25.61.39.61a.77.77,0,0,0,.62-.61l.4-1.85a.31.31,0,0,0-.32-.29C14.93,49.46,14.5,50.87,14.5,51.6Z"/><path class="cls-1" d="M19,52.31a1.79,1.79,0,0,0,1.38-.79h.26A2.55,2.55,0,0,1,18.51,53a1.09,1.09,0,0,1-1.21-1.24c0-.89.5-2.77,2.1-2.77.69,0,.86.36.86.75a1.81,1.81,0,0,1-1.79,1.64c0,.11,0,.22,0,.31C18.45,52.18,18.64,52.31,19,52.31Zm.45-3c-.39,0-.78.84-.93,1.61a1.31,1.31,0,0,0,1.13-1.29C19.66,49.49,19.61,49.36,19.46,49.36Z"/><path class="cls-1" d="M22.35,49.7c-.28,0-.49.33-.61.71l-.53,2.5H20.09L20.92,49H22l-.09.41a1.15,1.15,0,0,1,.91-.44.79.79,0,0,1,.87.88c0,.63-.37,1.57-.37,2,0,.19.07.33.31.33s.48-.29.65-.69h.33c-.44,1.28-1,1.44-1.45,1.44a.83.83,0,0,1-.92-.88c0-.53.35-1.49.35-2C22.63,49.84,22.54,49.7,22.35,49.7Z"/><path class="cls-1" d="M27.49,51.67a1.92,1.92,0,0,0,0,.22.28.28,0,0,0,.32.32.55.55,0,0,0,.25-.05.82.82,0,0,1-.86.8.77.77,0,0,1-.81-.65,1.33,1.33,0,0,1-1.1.65c-.53,0-1-.33-1-1.25s.65-2.73,2-2.73c.45,0,.63.17.63.4v0l.38-1.79,1.16-.16Zm-.71-1.93a.3.3,0,0,0-.32-.28c-.66,0-1.09,1.41-1.09,2.14s.25.61.39.61a.69.69,0,0,0,.61-.57Z"/><path class="cls-1" d="M31.63,47.79,31.37,49h.47l-.07.31h-.46l-.5,2.34a1.29,1.29,0,0,0,0,.25c0,.21.1.29.32.29s.58-.3.7-.69h.33C31.68,52.79,30.91,53,30.49,53s-.83-.28-.83-.93a2.5,2.5,0,0,1,.06-.51l.47-2.19h-.26L30,49h.26L30.48,48Z"/><path class="cls-1" d="M34.79,50c.27,0,.46-.39.55-.54h.25a2.23,2.23,0,0,1-.8,1c-.1,1.49-.87,2.43-1.85,2.43a1.11,1.11,0,0,1-1.25-1.23c0-.89.51-2.76,2.11-2.76C34.41,49,34.74,49.31,34.79,50Zm-.66.63c-.13-.05-.19-.16-.19-.36a.4.4,0,0,1,.22-.4c0-.33-.1-.44-.3-.44-.55,0-1,1.42-1,2.18,0,.52.1.63.4.63S34,51.54,34.13,50.63Z"/><path class="cls-1" d="M40.58,51.52a4.45,4.45,0,0,1-1.19,1,1.67,1.67,0,0,1-1.22.47A1,1,0,0,1,37,52a.8.8,0,0,1,.42-.72,12,12,0,0,0,.95-2.3l1.16-.16c.09,2,.17,2.32.17,2.83a1.39,1.39,0,0,1,0,.3,5.93,5.93,0,0,0,.56-.39Zm-2.92.38c-.08,0-.18,0-.21-.1,0,.37.13.54.47.54a.64.64,0,0,0,.68-.72c0-.4-.07-.65-.15-1.84a9.29,9.29,0,0,1-.63,1.47.29.29,0,0,1,.18.27A.37.37,0,0,1,37.66,51.9Z"/><path class="cls-1" d="M42.21,49.7c-.3,0-.54.47-.59.68l-.54,2.53H40l1.13-5.29,1.15-.16-.42,2a1.15,1.15,0,0,1,.91-.44.79.79,0,0,1,.87.88c0,.63-.38,1.57-.38,2,0,.19.08.33.31.33s.49-.29.66-.69h.32c-.43,1.28-1,1.44-1.44,1.44a.83.83,0,0,1-.92-.88c0-.53.35-1.49.35-2C42.5,49.84,42.41,49.7,42.21,49.7Z"/><path class="cls-1" d="M47.21,50.2h.09a2.49,2.49,0,0,0,1.19-.46l.07.21a2.48,2.48,0,0,1-1.37.64c-.13,1.44-.91,2.34-1.86,2.34a1.11,1.11,0,0,1-1.25-1.23c0-.89.53-2.76,2.13-2.76C46.88,49,47.21,49.38,47.21,50.2Zm-.67.43a.3.3,0,0,1-.21-.33.42.42,0,0,1,.24-.42c0-.33-.09-.45-.29-.45-.56,0-1,1.42-1,2.18,0,.52.1.63.4.63S46.42,51.54,46.54,50.63Z"/><path class="cls-1" d="M49.26,49l-.56,2.65a.62.62,0,0,0,0,.19c0,.18,0,.35.23.35s.51-.3.62-.69l.53-2.5h1.12l-.56,2.65a1.86,1.86,0,0,0,0,.28.24.24,0,0,0,.27.26c.76,0,1.34-1.75,1.34-2.6,0,0-.18.07-.25.07s-.28-.22-.28-.39.16-.42.49-.42.49.33.49.67c0,1.25-.63,3.42-2.22,3.42a.83.83,0,0,1-.93-.65,1.28,1.28,0,0,1-1.11.65c-.47,0-.83-.28-.83-.93a2.5,2.5,0,0,1,.06-.51l.53-2.5Z"/><path class="cls-1" d="M14.75,59.54a.16.16,0,0,0,.09,0,2.54,2.54,0,0,0,1.2-.47l.07.21a2.52,2.52,0,0,1-1.38.65c-.12,1.44-.9,2.34-1.86,2.34a1.11,1.11,0,0,1-1.24-1.23c0-.89.52-2.76,2.13-2.76C14.43,58.3,14.75,58.72,14.75,59.54Zm-.67.43c-.16,0-.21-.17-.21-.33a.45.45,0,0,1,.25-.42c0-.32-.1-.45-.3-.45-.55,0-1,1.43-1,2.19,0,.51.11.63.4.63S14,60.89,14.08,60Z"/><path class="cls-1" d="M16.8,58.37l-.1.48a1.53,1.53,0,0,1,.94-.48.58.58,0,0,1,0,1.15c-.44,0-.22-.51-.45-.51a.79.79,0,0,0-.57.29l-.62,3H14.86l.82-3.89Z"/><path class="cls-1" d="M21.72,59c-.3,0-.54.48-.59.69l-.53,2.53H19.48L20.6,57l1.16-.16-.42,2a1.14,1.14,0,0,1,.91-.43.78.78,0,0,1,.86.87c0,.64-.37,1.58-.37,2,0,.2.07.33.31.33s.48-.28.65-.68H24c-.44,1.27-1,1.43-1.45,1.43a.82.82,0,0,1-.92-.87c0-.53.35-1.49.35-2C22,59.18,21.92,59,21.72,59Z"/><path class="cls-1" d="M25.35,58.37,24.79,61a1.29,1.29,0,0,0,0,.25c0,.22.1.29.32.29a.85.85,0,0,0,.7-.68h.33c-.44,1.26-1.22,1.43-1.64,1.43s-.83-.27-.83-.93a3.22,3.22,0,0,1,.06-.5l.53-2.5ZM25,56.71A.62.62,0,1,1,25,58a.62.62,0,0,1,0-1.24Z"/><path class="cls-1" d="M29.85,56.81,29,61a1.29,1.29,0,0,0,0,.25c0,.22.1.29.32.29s.51-.3.63-.68h.33c-.45,1.26-1.15,1.39-1.57,1.39a.71.71,0,0,1-.76-.67,1.37,1.37,0,0,1-1.15.71c-.53,0-1-.32-1-1.25s.65-2.72,2-2.72c.45,0,.63.17.63.39v0L28.69,57Zm-2,4.06.38-1.79a.3.3,0,0,0-.32-.27c-.66,0-1.09,1.4-1.09,2.13s.25.61.39.61a.77.77,0,0,0,.64-.65Z"/><path class="cls-1" d="M31.4,61.57a1.61,1.61,0,0,0,.92-.42A1.26,1.26,0,0,1,31,62.3a1.09,1.09,0,0,1-1.21-1.23c0-.9.51-2.77,2.1-2.77.7,0,.86.36.86.74a1.81,1.81,0,0,1-1.79,1.65,1.77,1.77,0,0,0,0,.23C30.92,61.41,31.13,61.57,31.4,61.57Zm.53-2.86c-.39,0-.78.86-.94,1.6A1.29,1.29,0,0,0,32.12,59C32.12,58.83,32.07,58.71,31.93,58.71Z"/><path class="cls-1" d="M35.25,57l1.15-.16L36,58.56a1.18,1.18,0,0,1,.64-.22c.55,0,.92.35.92,1.33s-.48,2.63-2.13,2.63c-.72,0-1.09-.37-1.09-1a1.8,1.8,0,0,1,0-.44Zm1.13,1.93a.78.78,0,0,0-.46.14l-.43,2a1.41,1.41,0,0,0,0,.18c0,.23.13.36.41.36.51,0,.91-1.09.91-1.91C36.79,59.26,36.66,58.9,36.38,58.9Z"/><path class="cls-1" d="M41.61,58.37,41.05,61a.8.8,0,0,0,0,.25c0,.22.1.34.31.34s.52-.35.63-.73h.33c-.44,1.26-1.14,1.43-1.56,1.43a.71.71,0,0,1-.77-.71,1.39,1.39,0,0,1-1.16.71c-.52,0-1-.32-1-1.25s.65-2.72,2-2.72c.44,0,.63.17.63.39v.06l.09-.41Zm-2.69,2.57c0,.6.25.61.39.61a.78.78,0,0,0,.65-.68l.37-1.76a.3.3,0,0,0-.32-.3C39.35,58.81,38.92,60.21,38.92,60.94Z"/><path class="cls-1" d="M43.62,58.37l-.1.48a1.5,1.5,0,0,1,.94-.48.58.58,0,0,1,0,1.15c-.43,0-.21-.51-.45-.51a.81.81,0,0,0-.57.29l-.62,3H41.67l.83-3.89Z"/><path class="cls-1" d="M47.17,58.13c.09,2,.17,2.32.17,2.83a1.41,1.41,0,0,1-1.56,1.34,1,1,0,0,1-1.13-1,.79.79,0,0,1,.41-.72,11.81,11.81,0,0,0,1-2.31Zm-1.9,3.12a.24.24,0,0,1-.21-.1c0,.36.13.54.47.54a.64.64,0,0,0,.68-.72c0-.41-.07-.65-.15-1.85a8.13,8.13,0,0,1-.63,1.47.3.3,0,0,1,.18.28A.37.37,0,0,1,45.27,61.25Z"/><path class="cls-1" d="M48.21,61.05a.63.63,0,0,1,.63.62.62.62,0,0,1-.63.62.61.61,0,0,1-.61-.62A.61.61,0,0,1,48.21,61.05Z"/></g><g id="arrow3"><path class="cls-2" d="M9.14,40.29S-7.74,22.75,5.68,10.72C10.43,6.47,21,4.51,28,3.65"/><polygon class="cls-1" points="35.06 3.02 24.75 0 27.52 3.8 25.59 8.09 35.06 3.02"/></g><g id="mouse3"><path class="cls-3" d="M30.34,15.75A5.34,5.34,0,0,0,25,21.09v7.33a5.33,5.33,0,0,0,10.66,0V21.09A5.34,5.34,0,0,0,30.34,15.75ZM35,28.42a4.67,4.67,0,0,1-9.34,0V21.09a4.67,4.67,0,0,1,4.63-4.67h0A4.68,4.68,0,0,1,35,21.09Z"/><path class="cls-3" d="M35,21.09v3.66H30.3V16.42h0A4.68,4.68,0,0,1,35,21.09Z"/><path class="cls-4" d="M30.3,16.42v8.33H25.67V21.09A4.67,4.67,0,0,1,30.3,16.42Z"/></g></g></svg>