<?xml version="1.0" encoding="utf-8"?>
<!-- Generator: Adobe Illustrator 22.1.0, SVG Export Plug-In . SVG Version: 6.00 Build 0)  -->
<svg version="1.1" xmlns="http://www.w3.org/2000/svg" xmlns:xlink="http://www.w3.org/1999/xlink" x="0px" y="0px" width="1114px"
	 height="1567.06px" viewBox="0 0 1114 1567.06" enable-background="new 0 0 1114 1567.06" xml:space="preserve">
<g id="Layer_1">
</g>
<g id="Layer_2">
</g>
<g id="tip3">
	<g id="txt3">
		<path fill="#CCCCCC" d="M532.487,931.585c0-0.194-0.07-0.319-0.218-0.319c-0.49,0-0.996,1.424-0.996,2.288
			c0,0.529,0.187,0.653,0.56,0.653c0.615,0,0.988-0.342,1.377-0.785h0.265c-0.444,0.715-1.105,1.439-2.14,1.439
			c-0.731,0-1.214-0.358-1.214-1.237c0-0.903,0.514-2.771,2.093-2.771c0.692,0,0.864,0.357,0.864,0.716
			c0,0.382-0.187,0.568-0.413,0.568c-0.085,0-0.179-0.031-0.272-0.094C532.456,931.873,532.487,931.717,532.487,931.585z"/>
		<path fill="#CCCCCC" d="M535.198,929.367l-0.895,4.202c-0.023,0.101-0.031,0.179-0.031,0.249c0,0.218,0.102,0.288,0.319,0.288
			c0.304,0,0.583-0.296,0.7-0.685h0.327c-0.444,1.268-1.214,1.439-1.634,1.439c-0.467,0-0.833-0.28-0.833-0.934
			c0-0.148,0.023-0.319,0.062-0.506l0.833-3.899L535.198,929.367z"/>
		<path fill="#CCCCCC" d="M536.942,930.924l-0.561,2.646c-0.023,0.101-0.031,0.179-0.031,0.249c0,0.218,0.102,0.288,0.319,0.288
			c0.304,0,0.583-0.296,0.7-0.685h0.327c-0.444,1.268-1.214,1.439-1.634,1.439c-0.467,0-0.833-0.28-0.833-0.934
			c0-0.148,0.023-0.319,0.062-0.506l0.529-2.498H536.942z M536.592,929.266c0.342,0,0.623,0.28,0.623,0.623
			c0,0.342-0.28,0.615-0.623,0.615c-0.343,0-0.615-0.273-0.615-0.615C535.978,929.546,536.25,929.266,536.592,929.266z"/>
		<path fill="#CCCCCC" d="M539.637,931.585c0-0.194-0.07-0.319-0.218-0.319c-0.49,0-0.996,1.424-0.996,2.288
			c0,0.529,0.187,0.653,0.56,0.653c0.615,0,0.988-0.342,1.377-0.785h0.265c-0.444,0.715-1.105,1.439-2.14,1.439
			c-0.731,0-1.214-0.358-1.214-1.237c0-0.903,0.514-2.771,2.093-2.771c0.692,0,0.864,0.357,0.864,0.716
			c0,0.382-0.187,0.568-0.413,0.568c-0.085,0-0.179-0.031-0.272-0.094C539.605,931.873,539.637,931.717,539.637,931.585z"/>
		<path fill="#CCCCCC" d="M544.036,930.924l-1.557,1.082c0.085-0.016,0.171-0.031,0.257-0.031c0.576,0,0.856,0.412,0.856,0.91
			c0,0.094-0.008,0.194-0.031,0.295l-0.085,0.39c-0.016,0.077-0.039,0.163-0.039,0.249c0,0.156,0.063,0.288,0.304,0.288
			c0.187,0,0.218-0.023,0.272-0.047c-0.039,0.553-0.521,0.802-0.724,0.802c-0.638,0-0.981-0.319-0.981-0.887
			c0-0.125,0.016-0.258,0.047-0.405l0.062-0.304c0.023-0.102,0.031-0.202,0.031-0.287c0-0.227-0.078-0.374-0.28-0.374
			c-0.179,0-0.358,0.108-0.576,0.288l-0.405,1.922h-1.121l1.128-5.292l1.152-0.155l-0.583,2.739l1.502-1.183H544.036z"/>
		<path fill="#CCCCCC" d="M548.748,932.099c0.031,0.016,0.062,0.016,0.085,0.016c0.358,0,0.864-0.233,1.198-0.468l0.07,0.211
			c-0.296,0.318-0.81,0.553-1.377,0.646c-0.125,1.439-0.903,2.342-1.86,2.342c-0.724,0-1.245-0.343-1.245-1.229
			c0-0.896,0.529-2.763,2.132-2.763C548.421,930.854,548.748,931.281,548.748,932.099z M548.079,932.526
			c-0.164-0.038-0.21-0.171-0.21-0.327c0-0.217,0.101-0.357,0.241-0.42c-0.016-0.326-0.093-0.451-0.296-0.451
			c-0.552,0-1.035,1.424-1.035,2.187c0,0.514,0.101,0.63,0.396,0.63C547.557,934.145,547.954,933.445,548.079,932.526z"/>
		<path fill="#CCCCCC" d="M551.109,931.601c-0.28,0-0.49,0.327-0.607,0.716l-0.529,2.498h-1.121l0.825-3.891h1.121l-0.086,0.404
			c0.327-0.373,0.669-0.436,0.911-0.436c0.498,0,0.864,0.256,0.864,0.879c0,0.631-0.374,1.572-0.374,2.008
			c0,0.195,0.078,0.327,0.312,0.327c0.132,0,0.21-0.016,0.257-0.047c-0.07,0.561-0.444,0.802-0.856,0.802
			c-0.6,0-0.786-0.436-0.786-0.879c0-0.529,0.35-1.486,0.35-1.984C551.389,931.74,551.296,931.601,551.109,931.601z"/>
		<path fill="#CCCCCC" d="M556.288,929.693l-0.265,1.23h0.467l-0.063,0.311h-0.467l-0.498,2.335
			c-0.023,0.101-0.031,0.179-0.031,0.249c0,0.218,0.102,0.288,0.319,0.288c0.304,0,0.583-0.296,0.7-0.685h0.327
			c-0.444,1.268-1.214,1.439-1.634,1.439c-0.467,0-0.833-0.28-0.833-0.934c0-0.148,0.023-0.319,0.062-0.506l0.467-2.188h-0.257
			l0.063-0.311h0.257l0.233-1.074L556.288,929.693z"/>
		<path fill="#CCCCCC" d="M558.406,931.601c-0.303,0-0.544,0.475-0.591,0.685l-0.537,2.529h-1.121l1.128-5.292l1.152-0.155
			l-0.42,1.961c0.327-0.373,0.669-0.436,0.911-0.436c0.498,0,0.864,0.256,0.864,0.879c0,0.631-0.374,1.572-0.374,2.008
			c0,0.195,0.078,0.327,0.312,0.327c0.342,0,0.482-0.28,0.653-0.685h0.327c-0.436,1.275-1.035,1.439-1.448,1.439
			c-0.677,0-0.918-0.436-0.918-0.879c0-0.529,0.35-1.486,0.35-1.984C558.694,931.74,558.601,931.601,558.406,931.601z"/>
		<path fill="#CCCCCC" d="M561.912,934.122c0.295,0,0.669-0.194,0.918-0.413c-0.163,0.888-0.724,1.152-1.346,1.152
			c-0.724,0-1.206-0.358-1.206-1.237c0-0.896,0.506-2.771,2.101-2.771c0.692,0,0.856,0.357,0.856,0.747
			c0,0.903-0.856,1.587-1.79,1.642c-0.007,0.078-0.015,0.164-0.015,0.234C561.429,933.967,561.639,934.122,561.912,934.122z
			 M562.44,931.266c-0.389,0-0.778,0.864-0.941,1.604c0.607-0.031,1.136-0.631,1.136-1.284
			C562.635,931.391,562.588,931.266,562.44,931.266z"/>
		<path fill="#CCCCCC" d="M526.525,938.713l-0.895,4.203c-0.023,0.101-0.031,0.179-0.031,0.248c0,0.219,0.101,0.289,0.319,0.289
			c0.303,0,0.583-0.297,0.7-0.686h0.327c-0.444,1.269-1.214,1.439-1.634,1.439c-0.467,0-0.833-0.279-0.833-0.934
			c0-0.148,0.023-0.318,0.063-0.506l0.833-3.898L526.525,938.713z"/>
		<path fill="#CCCCCC" d="M528.231,943.554c0.615,0,0.988-0.343,1.377-0.786h0.265c-0.444,0.716-1.105,1.439-2.14,1.439
			c-0.731,0-1.214-0.357-1.214-1.236c0-0.896,0.506-2.771,2.101-2.771c0.692,0,0.856,0.358,0.856,0.748
			c0,0.895-0.856,1.587-1.79,1.642c-0.008,0.108-0.015,0.218-0.015,0.312C527.671,943.43,527.858,943.554,528.231,943.554z
			 M528.683,940.612c-0.396,0-0.778,0.833-0.934,1.603c0.599-0.039,1.128-0.638,1.128-1.283
			C528.877,940.736,528.831,940.612,528.683,940.612z"/>
		<path fill="#CCCCCC" d="M533.346,940.27l-0.771,3.611c0.475-0.172,0.763-0.436,0.98-1.113h0.327
			c-0.304,1.027-0.895,1.323-1.377,1.455l-0.117,0.561c-0.233,1.113-0.887,1.322-1.401,1.322c-0.475,0-0.872-0.248-0.872-0.754
			c0-0.654,0.685-0.98,1.269-1.16l0.093-0.412c-0.226,0.241-0.529,0.428-0.934,0.428c-0.529,0-1.035-0.326-1.035-1.252
			c0-1.051,0.646-2.725,2-2.725c0.443,0,0.63,0.172,0.63,0.396v0.047l0.085-0.404H533.346z M530.809,945.499
			c0.164,0,0.351-0.233,0.452-0.692l0.046-0.226c-0.396,0.147-0.762,0.351-0.762,0.661
			C530.545,945.352,530.638,945.499,530.809,945.499z M530.662,942.846c0,0.6,0.249,0.607,0.389,0.607
			c0.21,0,0.514-0.211,0.623-0.607l0.397-1.845c-0.008-0.085-0.07-0.288-0.319-0.288
			C531.089,940.713,530.662,942.113,530.662,942.846z"/>
		<path fill="#CCCCCC" d="M535.17,943.554c0.615,0,0.988-0.343,1.377-0.786h0.265c-0.444,0.716-1.105,1.439-2.14,1.439
			c-0.731,0-1.214-0.357-1.214-1.236c0-0.896,0.506-2.771,2.101-2.771c0.692,0,0.856,0.358,0.856,0.748
			c0,0.895-0.856,1.587-1.79,1.642c-0.007,0.108-0.015,0.218-0.015,0.312C534.61,943.43,534.797,943.554,535.17,943.554z
			 M535.622,940.612c-0.396,0-0.778,0.833-0.934,1.603c0.599-0.039,1.128-0.638,1.128-1.283
			C535.816,940.736,535.77,940.612,535.622,940.612z"/>
		<path fill="#CCCCCC" d="M538.511,940.947c-0.28,0-0.49,0.326-0.607,0.715l-0.529,2.498h-1.121l0.825-3.891h1.121l-0.086,0.404
			c0.327-0.373,0.669-0.436,0.911-0.436c0.498,0,0.864,0.257,0.864,0.879c0,0.631-0.374,1.572-0.374,2.008
			c0,0.195,0.078,0.328,0.312,0.328c0.342,0,0.482-0.281,0.653-0.686h0.327c-0.436,1.276-1.035,1.439-1.448,1.439
			c-0.677,0-0.918-0.436-0.918-0.879c0-0.529,0.35-1.486,0.35-1.984C538.792,941.087,538.698,940.947,538.511,940.947z"/>
		<path fill="#CCCCCC" d="M543.651,942.916c-0.016,0.077-0.031,0.155-0.031,0.225c0,0.18,0.078,0.313,0.319,0.313
			c0.14,0,0.203-0.023,0.249-0.047c-0.039,0.553-0.436,0.801-0.856,0.801c-0.397,0-0.716-0.194-0.809-0.646
			c-0.233,0.335-0.592,0.646-1.105,0.646c-0.529,0-1.035-0.326-1.035-1.252c0-1.051,0.646-2.725,2-2.725
			c0.443,0,0.63,0.172,0.63,0.396v0.031l0.381-1.789l1.151-0.156L543.651,942.916z M542.942,940.985
			c-0.016-0.093-0.085-0.272-0.319-0.272c-0.662,0-1.089,1.4-1.089,2.133c0,0.6,0.249,0.607,0.389,0.607
			c0.203,0,0.521-0.18,0.607-0.561L542.942,940.985z"/>
		<path fill="#CCCCCC" d="M547.795,939.04l-0.265,1.229h0.467l-0.063,0.312h-0.467l-0.498,2.335
			c-0.023,0.101-0.031,0.179-0.031,0.248c0,0.219,0.102,0.289,0.319,0.289c0.304,0,0.583-0.297,0.7-0.686h0.327
			c-0.444,1.269-1.214,1.439-1.634,1.439c-0.467,0-0.833-0.279-0.833-0.934c0-0.148,0.023-0.318,0.062-0.506l0.467-2.187h-0.257
			l0.063-0.312h0.257l0.233-1.074L547.795,939.04z"/>
		<path fill="#CCCCCC" d="M550.948,941.25c0.272-0.055,0.467-0.389,0.553-0.537h0.249c-0.156,0.335-0.389,0.817-0.802,1.043
			c-0.093,1.494-0.872,2.436-1.852,2.436c-0.724,0-1.245-0.342-1.245-1.229c0-0.896,0.506-2.764,2.109-2.764
			C550.575,940.199,550.901,940.558,550.948,941.25z M550.287,941.873c-0.125-0.047-0.187-0.156-0.187-0.351
			c0-0.21,0.085-0.343,0.218-0.405c-0.016-0.326-0.101-0.443-0.296-0.443c-0.552,0-1.011,1.425-1.011,2.188
			c0,0.514,0.101,0.63,0.396,0.63C549.789,943.491,550.17,942.791,550.287,941.873z"/>
		<path fill="#CCCCCC" d="M556.742,942.768c-0.404,0.467-0.833,0.763-1.19,0.973c-0.327,0.343-0.825,0.467-1.222,0.467
			c-0.794,0-1.136-0.521-1.136-0.996c0-0.357,0.202-0.622,0.413-0.724c0.436-0.771,0.716-1.54,0.957-2.304l1.152-0.155
			c0.093,2.016,0.171,2.319,0.171,2.833c0,0.109-0.008,0.202-0.031,0.295c0.21-0.124,0.412-0.264,0.56-0.389H556.742z
			 M553.816,943.148c-0.078,0-0.171-0.023-0.21-0.101c0,0.366,0.132,0.545,0.475,0.545s0.677-0.179,0.677-0.724
			c0-0.404-0.07-0.646-0.147-1.845c-0.156,0.506-0.374,0.973-0.63,1.471c0.101,0.047,0.179,0.14,0.179,0.272
			C554.159,942.955,554.019,943.148,553.816,943.148z"/>
		<path fill="#CCCCCC" d="M558.371,940.947c-0.303,0-0.544,0.475-0.591,0.684l-0.537,2.529h-1.121l1.128-5.291l1.152-0.156
			l-0.42,1.961c0.327-0.373,0.669-0.436,0.911-0.436c0.498,0,0.864,0.257,0.864,0.879c0,0.631-0.374,1.572-0.374,2.008
			c0,0.195,0.078,0.328,0.312,0.328c0.342,0,0.482-0.281,0.653-0.686h0.327c-0.436,1.276-1.035,1.439-1.448,1.439
			c-0.677,0-0.918-0.436-0.918-0.879c0-0.529,0.35-1.486,0.35-1.984C558.659,941.087,558.566,940.947,558.371,940.947z"/>
		<path fill="#CCCCCC" d="M563.371,941.445c0.031,0.016,0.062,0.016,0.085,0.016c0.358,0,0.864-0.234,1.198-0.468l0.07,0.21
			c-0.296,0.319-0.81,0.553-1.377,0.646c-0.125,1.439-0.903,2.342-1.86,2.342c-0.724,0-1.245-0.342-1.245-1.229
			c0-0.896,0.529-2.764,2.132-2.764C563.043,940.199,563.371,940.627,563.371,941.445z M562.701,941.873
			c-0.164-0.039-0.21-0.172-0.21-0.327c0-0.218,0.101-0.358,0.241-0.421c-0.016-0.326-0.093-0.451-0.296-0.451
			c-0.552,0-1.035,1.425-1.035,2.188c0,0.514,0.101,0.63,0.396,0.63C562.18,943.491,562.577,942.791,562.701,941.873z"/>
		<path fill="#CCCCCC" d="M565.42,940.27l-0.561,2.646c-0.016,0.062-0.023,0.132-0.023,0.193c0,0.18,0.055,0.344,0.234,0.344
			c0.303,0,0.505-0.297,0.623-0.686l0.529-2.498h1.121l-0.56,2.646c-0.023,0.108-0.039,0.209-0.039,0.279
			c0,0.156,0.078,0.258,0.265,0.258c0.763,0,1.346-1.744,1.346-2.6c-0.023,0.055-0.187,0.078-0.249,0.078
			c-0.187,0-0.28-0.227-0.28-0.397c0-0.241,0.156-0.42,0.483-0.42c0.374,0,0.49,0.335,0.49,0.677c0,1.245-0.63,3.416-2.218,3.416
			c-0.506,0-0.84-0.218-0.934-0.653c-0.381,0.56-0.794,0.653-1.105,0.653c-0.467,0-0.833-0.279-0.833-0.934
			c0-0.148,0.023-0.318,0.062-0.506l0.529-2.498H565.42z"/>
		<path fill="#CCCCCC" d="M530.914,950.791c0.031,0.016,0.062,0.016,0.085,0.016c0.358,0,0.864-0.234,1.198-0.468l0.07,0.21
			c-0.296,0.319-0.81,0.553-1.377,0.646c-0.125,1.439-0.903,2.342-1.86,2.342c-0.724,0-1.245-0.342-1.245-1.229
			c0-0.896,0.529-2.764,2.132-2.764C530.586,949.545,530.914,949.973,530.914,950.791z M530.244,951.219
			c-0.164-0.039-0.21-0.172-0.21-0.327c0-0.218,0.101-0.358,0.241-0.421c-0.016-0.326-0.093-0.451-0.296-0.451
			c-0.552,0-1.035,1.425-1.035,2.188c0,0.514,0.101,0.63,0.396,0.63C529.723,952.837,530.12,952.137,530.244,951.219z"/>
		<path fill="#CCCCCC" d="M532.963,949.615l-0.101,0.482c0.272-0.233,0.568-0.482,0.941-0.482c0.35,0,0.537,0.288,0.537,0.584
			c0,0.271-0.179,0.568-0.561,0.568c-0.436,0-0.218-0.514-0.451-0.514s-0.374,0.116-0.568,0.295l-0.623,2.957h-1.121l0.825-3.891
			H532.963z"/>
		<path fill="#CCCCCC" d="M537.885,950.293c-0.303,0-0.544,0.475-0.591,0.684l-0.537,2.529h-1.121l1.128-5.291l1.152-0.156
			l-0.42,1.961c0.327-0.373,0.669-0.436,0.911-0.436c0.498,0,0.864,0.257,0.864,0.879c0,0.631-0.374,1.572-0.374,2.008
			c0,0.195,0.078,0.328,0.312,0.328c0.342,0,0.482-0.281,0.653-0.686h0.327c-0.436,1.276-1.035,1.439-1.448,1.439
			c-0.677,0-0.918-0.436-0.918-0.879c0-0.529,0.35-1.486,0.35-1.984C538.173,950.433,538.08,950.293,537.885,950.293z"/>
		<path fill="#CCCCCC" d="M541.514,949.615l-0.561,2.646c-0.023,0.101-0.031,0.179-0.031,0.248c0,0.219,0.101,0.289,0.319,0.289
			c0.303,0,0.583-0.297,0.7-0.686h0.327c-0.444,1.269-1.214,1.439-1.634,1.439c-0.467,0-0.833-0.279-0.833-0.934
			c0-0.148,0.023-0.318,0.063-0.506l0.529-2.498H541.514z M541.164,947.958c0.342,0,0.623,0.28,0.623,0.622
			c0,0.343-0.28,0.615-0.623,0.615c-0.343,0-0.615-0.272-0.615-0.615C540.549,948.238,540.821,947.958,541.164,947.958z"/>
		<path fill="#CCCCCC" d="M546.006,948.059l-0.895,4.203c-0.023,0.101-0.031,0.179-0.031,0.248c0,0.219,0.101,0.289,0.319,0.289
			c0.304,0,0.514-0.297,0.63-0.686h0.327c-0.444,1.269-1.144,1.393-1.564,1.393c-0.42,0-0.7-0.232-0.763-0.669
			c-0.233,0.358-0.599,0.716-1.151,0.716c-0.529,0-1.035-0.326-1.035-1.252c0-1.051,0.646-2.725,2-2.725
			c0.443,0,0.63,0.172,0.63,0.396v0.031l0.381-1.789L546.006,948.059z M544.021,952.113l0.381-1.782
			c-0.016-0.093-0.085-0.272-0.319-0.272c-0.662,0-1.089,1.4-1.089,2.133c0,0.6,0.249,0.607,0.389,0.607
			c0.218,0,0.537-0.219,0.638-0.646V952.113z"/>
		<path fill="#CCCCCC" d="M547.558,952.814c0.295,0,0.669-0.195,0.918-0.413c-0.163,0.888-0.724,1.151-1.346,1.151
			c-0.724,0-1.206-0.357-1.206-1.236c0-0.896,0.506-2.771,2.101-2.771c0.692,0,0.856,0.358,0.856,0.748
			c0,0.902-0.856,1.587-1.79,1.642c-0.007,0.077-0.015,0.163-0.015,0.233C547.076,952.658,547.286,952.814,547.558,952.814z
			 M548.087,949.958c-0.389,0-0.778,0.864-0.941,1.603c0.607-0.031,1.136-0.63,1.136-1.283
			C548.282,950.082,548.235,949.958,548.087,949.958z"/>
		<path fill="#CCCCCC" d="M551.406,948.215l1.152-0.156l-0.374,1.752c0.319-0.195,0.482-0.219,0.638-0.219
			c0.545,0,0.918,0.343,0.918,1.331c0,0.91-0.483,2.63-2.132,2.63c-0.716,0-1.09-0.373-1.09-0.996c0-0.132,0.016-0.279,0.055-0.443
			L551.406,948.215z M552.542,950.145c-0.109,0-0.374,0.039-0.459,0.141l-0.428,1.977c-0.016,0.062-0.023,0.124-0.023,0.179
			c0,0.226,0.132,0.358,0.412,0.358c0.506,0,0.911-1.09,0.911-1.907C552.955,950.51,552.822,950.145,552.542,950.145z"/>
		<path fill="#CCCCCC" d="M557.767,949.615l-0.561,2.646c-0.023,0.101-0.031,0.179-0.031,0.248c0,0.219,0.101,0.335,0.319,0.335
			c0.304,0,0.514-0.343,0.63-0.731h0.327c-0.443,1.269-1.144,1.439-1.564,1.439c-0.436,0-0.716-0.248-0.763-0.716
			c-0.241,0.358-0.607,0.716-1.16,0.716c-0.529,0-1.035-0.326-1.035-1.252c0-1.051,0.646-2.725,2-2.725
			c0.443,0,0.63,0.172,0.63,0.396v0.055l0.085-0.412H557.767z M555.082,952.191c0,0.6,0.249,0.607,0.389,0.607
			c0.226,0,0.553-0.234,0.646-0.686l0.374-1.759c0-0.093-0.07-0.296-0.319-0.296C555.51,950.059,555.082,951.459,555.082,952.191z"
			/>
		<path fill="#CCCCCC" d="M559.777,949.615l-0.101,0.482c0.272-0.233,0.568-0.482,0.941-0.482c0.35,0,0.537,0.288,0.537,0.584
			c0,0.271-0.179,0.568-0.561,0.568c-0.436,0-0.218-0.514-0.451-0.514s-0.374,0.116-0.568,0.295l-0.623,2.957h-1.121l0.825-3.891
			H559.777z"/>
		<path fill="#CCCCCC" d="M563.329,949.374c0.093,2.016,0.171,2.319,0.171,2.833c0,1.012-0.918,1.346-1.556,1.346
			c-0.794,0-1.136-0.521-1.136-0.996c0-0.357,0.202-0.622,0.413-0.724c0.436-0.771,0.716-1.54,0.957-2.304L563.329,949.374z
			 M561.43,952.494c-0.078,0-0.171-0.023-0.21-0.101c0,0.366,0.132,0.545,0.475,0.545s0.677-0.179,0.677-0.724
			c0-0.404-0.07-0.646-0.147-1.845c-0.156,0.506-0.374,0.973-0.63,1.471c0.101,0.047,0.179,0.14,0.179,0.272
			C561.772,952.301,561.632,952.494,561.43,952.494z"/>
		<path fill="#CCCCCC" d="M564.373,952.301c0.342,0,0.623,0.279,0.623,0.622s-0.28,0.614-0.623,0.614s-0.615-0.271-0.615-0.614
			S564.031,952.301,564.373,952.301z"/>
	</g>
	<g id="arrow3">
		<path fill="none" stroke="#CCCCCC" stroke-miterlimit="10" d="M525.305,931.536c0,0-16.883-17.538-3.46-29.572
			c4.741-4.25,15.268-6.205,22.347-7.067"/>
		<g>
			<polygon fill="#CCCCCC" points="551.225,894.265 540.909,891.248 543.677,895.048 541.748,899.334 			"/>
		</g>
	</g>
	<g id="mouse3">
		<g>
			<path fill="#E6E6E6" d="M546.5,907c-2.941,0-5.333,2.392-5.333,5.333v7.333c0,2.941,2.392,5.333,5.333,5.333
				s5.333-2.392,5.333-5.333v-7.333C551.833,909.392,549.441,907,546.5,907z M551.167,919.667c0,2.573-2.093,4.667-4.667,4.667
				s-4.667-2.093-4.667-4.667v-7.333c0-2.561,2.074-4.647,4.631-4.666c0.012-0.001,0.023-0.001,0.035-0.001
				c2.573,0,4.667,2.093,4.667,4.667V919.667z"/>
			<path fill="#E6E6E6" d="M551.167,912.333V916h-4.702v-8.332c0.012-0.001,0.023-0.001,0.035-0.001
				C549.073,907.667,551.167,909.76,551.167,912.333z"/>
			<path fill="#91B8C1" d="M546.465,907.668V916h-4.631v-3.667C541.833,909.772,543.908,907.686,546.465,907.668z"/>
		</g>
	</g>
</g>
<g id="title">
</g>
<g id="tip1">
</g>
<g id="tip2">
</g>
</svg>
