<?xml version="1.0" encoding="utf-8"?>
<!-- Generator: Adobe Illustrator 22.1.0, SVG Export Plug-In . SVG Version: 6.00 Build 0)  -->
<svg version="1.1" xmlns="http://www.w3.org/2000/svg" xmlns:xlink="http://www.w3.org/1999/xlink" x="0px" y="0px" width="1114px"
	 height="1567.06px" viewBox="0 0 1114 1567.06" enable-background="new 0 0 1114 1567.06" xml:space="preserve">
<g id="Layer_1">
</g>
<g id="Layer_2">
</g>
<g id="title">
	<g id="title_x5F_main">
		<g>
			<path fill="#AF7AC5" d="M486.948,22.835c-0.303,0.912-1.367,1.216-2.204,0.684c-0.988-0.684-1.216-1.824-0.988-2.66
				c0,0.152,0.684,0.988,1.14,0.684c0.456-0.304,1.216-1.596-0.228-3.268c-1.14-1.292-2.736-1.976-4.332-2.28
				c-9.348-1.824-19,4.408-26.22,10.488c-5.168,4.332-9.88,9.348-14.288,14.516c-4.332,5.168-8.436,10.716-12.236,16.416
				c-0.456,2.128-0.988,4.256-1.596,6.384c-0.836,3.04-1.596,6.232-2.888,9.196c-0.608,1.444-1.368,2.964-2.508,4.028
				c-0.76,0.76-2.432,1.444-3.04,0.076c-0.532-1.368,0.456-3.268,0.988-4.484c1.443-3.268,3.268-6.232,4.94-9.348
				c0.759-6.916,1.748-13.68,3.268-20.444c1.368-6.536,3.116-13.3,6.84-19.152c-0.911,0.912-1.9,1.824-2.812,2.736
				c-4.788,4.636-9.272,9.652-13.452,14.896c-4.256,5.244-8.208,10.716-12.236,16.036c-3.952,5.32-8.208,11.476-13.528,15.504
				c-2.584,1.976-5.624,3.724-8.74,4.56c-2.888,0.836-6.536,0.836-8.74-1.52c-0.988-1.14-1.52-2.584-1.52-4.104
				c0-2.736,1.824-6.764,4.94-7.448c1.368-0.304,2.128,0.76,1.976,1.976c-0.152,1.368-0.988,2.356-2.204,2.432
				c0.228-0.152,0.608-1.216,0.076-1.52c-0.608-0.304-2.28-0.38-3.648,2.052c-1.064,1.9-0.532,4.94,1.216,6.536
				c2.356,2.128,6.003,1.596,8.74,0.608c2.964-0.988,5.852-2.736,8.284-4.712c5.092-4.18,9.272-10.26,13.224-15.58
				s7.904-10.792,12.084-15.96c4.18-5.168,8.664-10.184,13.452-14.82c1.52-1.52,3.116-2.964,4.788-4.408
				c-0.836,0.076-1.672,0.152-2.432,0.228c-6.84,0.76-13.68,1.368-20.368,3.268c-6.308,1.748-12.236,4.56-17.404,8.588
				c-4.484,3.42-8.664,7.6-10.26,13.148c-0.759,2.736-0.987,5.928,0.456,8.436c2.584,4.56,9.576,4.256,13.681,1.14
				c2.356-1.748,4.484-4.636,4.712-7.676c0.228-2.128-1.216-4.028-3.801-3.8c-1.824,0.304-3.192,1.52-4.18,2.964
				c-0.456,0.684-0.912,0.38-0.608-0.076c1.368-1.976,4.029-4.332,7.068-3.04c2.736,1.292,2.28,4.712,1.292,6.992
				c-2.432,5.32-8.36,8.664-14.136,7.904c-2.432-0.38-4.637-1.748-5.928-3.876c-1.672-2.66-1.9-6.08-1.216-9.12
				c1.216-5.852,5.396-10.336,10.108-13.68c11.02-7.828,24.7-10.032,37.848-11.552c2.052-0.228,4.104-0.456,6.156-0.76
				c1.444-1.444,3.344-3.04,5.548-4.104c1.139-0.608,3.192-1.216,4.256-0.76c1.216,0.532,0.532,1.824-0.228,2.508
				c-2.052,1.672-4.636,2.356-7.296,2.812c-0.607,0.152-1.063,0.608-1.748,1.444c-2.508,3.724-3.496,8.208-4.56,12.54
				c-0.76,3.192-1.368,6.384-2.052,9.576c-0.76,3.952-1.52,7.904-2.432,11.856c2.888-4.408,6.003-8.74,9.272-12.844
				c4.256-5.32,8.816-10.336,13.832-14.972c4.864-4.484,10.336-8.74,16.567-11.248c5.016-1.9,13.452-3.192,17.48,0.836
				C486.493,19.035,487.48,21.239,486.948,22.835z M423.337,64.635c-1.748,3.42-3.725,6.688-4.864,10.336
				c-0.304,1.064-0.228,2.736,1.139,1.672c1.14-1.064,1.748-2.66,2.28-4.104C422.729,70.031,423.033,67.295,423.337,64.635z
				 M438.005,19.795c2.052-0.38,4.18-0.684,6.307-1.748c0.456-0.304,1.9-1.064,1.824-1.9c0-1.292-3.724,0.38-4.18,0.684
				C440.513,17.591,439.221,18.655,438.005,19.795z"/>
			<path fill="#AF7AC5" d="M458.069,63.951c0.228-0.228,0.607,0.076,0.379,0.38c-2.28,2.888-6.688,8.284-9.728,11.4
				c-1.52,1.444-3.344,2.812-5.016,1.9c-1.824-1.064-0.987-3.572-0.227-5.396c-1.52,2.052-3.344,4.256-5.776,5.244
				c-1.292,0.532-2.888,0.684-4.104-0.228c-1.292-1.064-1.596-2.888-1.52-4.484c0.152-2.964,1.748-6.156,3.648-8.436
				c2.052-2.356,4.864-4.408,7.98-4.94c1.444-0.228,3.192,0,3.953,1.368c0.532,1.064,0.456,2.204,0.228,3.344
				c0.684-1.14,1.367-2.204,2.052-3.268c0.456-0.76,1.444-0.988,2.204-0.532c0.912,0.608,0.76,1.672,0.304,2.508
				c-1.216,1.976-2.508,4.028-3.725,6.004c-1.063,1.596-2.28,3.496-3.268,5.472c-0.988,2.28,0.684,2.736,3.116,0.684
				C451.609,71.855,455.637,67.143,458.069,63.951z M444.085,70.487c0.988-1.596,2.812-4.484,3.344-6.232
				c0.38-1.596,0-3.952-2.052-3.952c-1.596,0-3.04,1.064-4.104,2.052c-2.964,2.584-6.08,7.22-6.84,11.552
				c-0.152,1.14,0,2.508,1.368,2.812c0.76,0.152,1.596,0,2.28-0.228C440.665,75.427,442.641,72.767,444.085,70.487z"/>
			<path fill="#AF7AC5" d="M472.357,75.047c3.268-3.344,6.536-7.372,9.5-11.096c0.228-0.304,0.608,0.152,0.38,0.38
				c-1.596,2.052-3.344,4.18-5.016,6.156c-1.976,2.204-4.18,5.168-6.308,6.612c-0.987,0.684-2.28,1.064-3.344,0.684
				c-0.836-0.38-1.368-1.216-1.368-2.128c0.076-4.028,4.56-9.5,6.688-14.212c0.228-0.532-0.076-0.912-0.684-1.064
				c-1.596-0.38-3.648,1.52-4.864,2.736c-1.9,1.824-3.572,4.104-5.092,6.308c-1.444,2.584-2.964,4.864-4.56,7.372
				c-0.532,0.836-1.368,1.444-2.356,0.912c-0.532-0.304-0.912-0.836-0.912-1.444c0-0.532,0.304-0.836,0.532-1.292
				c1.9-3.04,3.8-6.08,5.775-9.12c0.152-0.228,3.42-5.092,1.9-5.092c-0.76,0-1.596,0.76-2.052,1.216
				c-0.835,0.76-1.215,1.292-2.128,2.356c-0.38,0.456-0.912,0.304-0.38-0.38c0.76-0.912,1.216-1.52,2.508-2.888
				c1.216-1.292,3.496-2.584,4.561-0.988c0.759,1.216,0.076,3.116-1.064,5.928c0.912-1.14,1.976-2.432,3.04-3.496
				c1.064-0.988,2.052-1.824,3.42-2.584c2.736-1.52,5.472-0.228,4.561,3.192c-1.52,4.408-6.992,11.932-6.308,12.92
				C469.469,77.099,471.52,75.883,472.357,75.047z"/>
			<path fill="#AF7AC5" d="M500.323,64.331c-1.52,1.9-4.104,4.256-6.535,4.712c-1.292,2.888-3.496,5.396-6.08,7.22
				c-2.128,1.444-5.776,2.736-7.904,0.532c-2.204-2.28-1.748-6.536-0.531-9.196c1.9-4.332,6.155-7.828,10.867-8.284
				c1.368-0.152,2.964,0,4.028,1.064c0.608,0.608,1.14,2.052,0.684,3.42c-0.076,0.228-0.38,0.076-0.38-0.152
				c0.152-0.988,0.076-1.976-0.759-2.812c-2.28-1.976-6.232,0.988-7.98,2.888c-2.128,2.356-3.8,5.396-4.94,8.284
				c-0.532,1.368-1.064,3.116-0.228,4.408c0.836,1.292,2.508,1.216,3.724,0.684c2.584-1.292,5.472-5.928,7.068-8.436
				c-0.532-0.304-0.988-0.76-1.14-1.368c-0.38-1.368,0.608-2.888,1.748-3.496c0.912-0.532,1.9-0.38,2.356,0.608
				c0.532,1.292,0.152,2.736-0.304,4.028c2.128-0.608,4.637-2.736,5.928-4.484C500.095,63.723,500.627,63.951,500.323,64.331z
				 M491.66,68.283c0.152-0.228,2.508-4.712,0.532-3.952c-1.064,0.38-1.824,1.824-1.444,2.888
				C490.976,67.751,491.28,68.055,491.66,68.283z"/>
			<path fill="#AF7AC5" d="M522.514,60.531c-1.292-0.532-2.964,0.912-3.952,1.748c-2.052,1.824-3.648,4.104-5.092,6.384
				c-1.443,2.736-2.888,5.548-4.332,8.284c-0.456,0.836-1.292,1.216-2.204,0.912c-1.064-0.456-1.14-1.596-0.684-2.508
				c1.139-2.432,2.508-4.788,3.876-7.144c0.836-1.368,1.596-2.66,2.356-4.028c0.456-0.912,1.14-2.28,1.14-3.344
				c-0.456-1.52-3.116,0.836-3.648,1.292c-1.368,1.216-2.432,2.964-3.496,4.408c-2.432,3.344-4.712,6.764-6.84,10.336
				c-0.532,0.836-1.368,1.444-2.432,0.912c-0.532-0.304-0.836-0.836-0.836-1.444c0-0.532,0.228-0.912,0.532-1.368
				c1.9-2.964,3.724-5.928,5.699-9.12c0.532-0.836,2.964-4.712,1.9-5.168c-0.684-0.152-1.52,0.836-2.052,1.292
				c-0.759,0.76-1.443,1.444-2.128,2.356c-0.304,0.38-0.836,0.228-0.38-0.38c0.684-0.836,1.368-1.672,2.508-2.888
				c1.064-1.064,3.42-2.736,4.561-0.912c1.063,1.748-0.456,4.712-1.444,6.688c1.444-2.052,2.964-4.18,4.788-5.776
				c1.064-0.912,2.508-2.052,4.028-1.672c2.508,0.836,1.444,4.028,0.456,6.156c0.836-0.988,1.672-2.052,2.66-2.964
				c1.444-1.444,5.624-4.864,7.296-2.356c0.456,0.836,0.456,1.748,0.152,2.888c-1.292,4.484-6.992,11.932-6.308,12.92
				c0.684,1.064,2.736-0.152,3.572-0.988c3.268-3.344,6.536-7.372,9.5-11.096c0.228-0.304,0.608,0.152,0.38,0.38
				c-1.596,2.052-3.344,4.18-5.016,6.156c-1.976,2.204-4.18,5.168-6.307,6.612c-0.988,0.684-2.28,1.064-3.344,0.684
				c-0.835-0.38-1.367-1.216-1.367-2.128c0.076-3.572,3.648-8.284,5.927-12.692C522.286,62.355,523.198,60.835,522.514,60.531z"/>
			<path fill="#AF7AC5" d="M550.179,64.331c-1.52,1.9-4.104,4.256-6.536,4.712c-1.292,2.888-3.496,5.396-6.08,7.22
				c-2.128,1.444-5.776,2.736-7.904,0.532c-2.204-2.28-1.748-6.536-0.531-9.196c1.9-4.332,6.155-7.828,10.867-8.284
				c1.368-0.152,2.964,0,4.028,1.064c0.608,0.608,1.14,2.052,0.684,3.42c-0.076,0.228-0.38,0.076-0.38-0.152
				c0.152-0.988,0.076-1.976-0.759-2.812c-2.28-1.976-6.232,0.988-7.98,2.888c-2.128,2.356-3.8,5.396-4.94,8.284
				c-0.532,1.368-1.064,3.116-0.228,4.408c0.836,1.292,2.508,1.216,3.725,0.684c2.584-1.292,5.471-5.928,7.068-8.436
				c-0.532-0.304-0.988-0.76-1.14-1.368c-0.38-1.368,0.608-2.888,1.748-3.496c0.912-0.532,1.9-0.38,2.356,0.608
				c0.532,1.292,0.152,2.736-0.303,4.028c2.128-0.608,4.636-2.736,5.927-4.484C549.951,63.723,550.483,63.951,550.179,64.331z
				 M541.515,68.283c0.152-0.228,2.508-4.712,0.532-3.952c-1.064,0.38-1.824,1.824-1.444,2.888
				C540.831,67.751,541.135,68.055,541.515,68.283z"/>
			<path fill="#AF7AC5" d="M577.537,44.571c-4.256,2.204-9.5,1.216-14.06,1.292c-4.56,7.372-8.816,15.048-13.224,24.32
				c-0.228,0.532-3.116,7.068-0.76,6.004c0.836-0.38,1.52-1.064,2.204-1.672c3.268-3.268,6.231-6.916,9.196-10.564
				c0.228-0.304,0.608,0.152,0.38,0.38c-2.66,3.268-5.396,6.612-8.208,9.652c-1.063,1.14-1.976,2.204-3.344,3.268
				c-0.456,0.38-1.824,0.988-2.736,0.532c-1.216-0.608-1.14-2.28-0.988-3.42c0.456-3.04,1.824-6.004,3.116-8.816
				c3.116-6.764,6.916-13.3,10.868-19.76c-2.584-0.076-5.32,0-7.904,0.456c-0.228,0.076-0.38-0.228-0.152-0.38
				c2.812-0.912,5.775-1.14,8.664-1.14c3.344-5.548,6.839-11.02,10.336-16.416c0.76-1.064,2.736-0.228,2.28,0.988
				c-0.152,0.38-0.684,1.292-0.988,1.824c-2.812,4.484-5.471,9.12-8.132,13.68c2.204,0.076,4.332,0.228,6.46,0.304
				c2.28,0,4.636,0,6.763-0.836C577.917,43.963,578.145,44.191,577.537,44.571z"/>
			<path fill="#AF7AC5" d="M566.898,70.487c-2.052,2.28-4.408,5.396-6.612,6.84c-0.836,0.532-2.356,0.988-3.42,0.152
				c-0.836-0.76-0.76-2.052-0.456-3.04c1.292-3.268,3.116-6.764,4.788-10.032c-0.228,0.228-0.684,0.076-0.304-0.456
				c0.684-0.912,1.368-1.9,2.128-3.116c0.303-0.608,0.683-1.14,1.139-1.368c0.988-0.456,2.128,0.228,2.128,1.292
				c0,0.38-0.532,1.444-0.912,2.052c-2.052,3.724-4.56,7.676-6.46,11.552c-0.531,1.064-0.607,2.28,1.14,1.9
				c0.836-0.304,1.368-0.608,1.976-1.216c3.268-3.344,6.536-7.372,9.5-11.096c0.228-0.304,0.608,0.152,0.38,0.38
				C570.318,66.383,568.57,68.511,566.898,70.487z M566.746,51.715c0.38-0.836,1.444-1.292,2.204-0.912
				c0.836,0.456,1.064,1.444,0.608,2.432c-0.456,0.912-1.443,1.292-2.28,0.912C566.518,53.767,566.214,52.627,566.746,51.715z"/>
			<path fill="#AF7AC5" d="M590.002,64.331c-1.52,1.9-4.104,4.256-6.535,4.712c-1.292,2.888-3.497,5.396-6.08,7.22
				c-2.128,1.444-5.776,2.736-7.904,0.532c-2.204-2.28-1.747-6.536-0.531-9.196c1.9-4.332,6.155-7.828,10.867-8.284
				c1.368-0.152,2.964,0,4.028,1.064c0.608,0.608,1.14,2.052,0.684,3.42c-0.076,0.228-0.38,0.076-0.38-0.152
				c0.152-0.988,0.076-1.976-0.759-2.812c-2.28-1.976-6.232,0.988-7.98,2.888c-2.128,2.356-3.8,5.396-4.94,8.284
				c-0.532,1.368-1.064,3.116-0.228,4.408c0.836,1.292,2.508,1.216,3.724,0.684c2.584-1.292,5.472-5.928,7.068-8.436
				c-0.532-0.304-0.988-0.76-1.14-1.368c-0.38-1.368,0.608-2.888,1.748-3.496c0.912-0.532,1.9-0.38,2.356,0.608
				c0.532,1.292,0.152,2.736-0.304,4.028c2.128-0.608,4.637-2.736,5.928-4.484C589.774,63.723,590.306,63.951,590.002,64.331z
				 M581.338,68.283c0.152-0.228,2.508-4.712,0.532-3.952c-1.064,0.38-1.824,1.824-1.444,2.888
				C580.654,67.751,580.958,68.055,581.338,68.283z"/>
			<path fill="#AF7AC5" d="M603.909,75.047c3.268-3.344,6.536-7.372,9.5-11.096c0.228-0.304,0.608,0.152,0.38,0.38
				c-1.596,2.052-3.344,4.18-5.016,6.156c-1.976,2.204-4.18,5.168-6.308,6.612c-0.987,0.684-2.28,1.064-3.344,0.684
				c-0.836-0.38-1.368-1.216-1.368-2.128c0.076-4.028,4.56-9.5,6.688-14.212c0.228-0.532-0.076-0.912-0.684-1.064
				c-1.596-0.38-3.648,1.52-4.864,2.736c-1.9,1.824-3.572,4.104-5.092,6.308c-1.444,2.584-2.964,4.864-4.56,7.372
				c-0.532,0.836-1.368,1.444-2.356,0.912c-0.532-0.304-0.912-0.836-0.912-1.444c0-0.532,0.304-0.836,0.532-1.292
				c1.9-3.04,3.8-6.08,5.775-9.12c0.152-0.228,3.42-5.092,1.9-5.092c-0.76,0-1.596,0.76-2.052,1.216
				c-0.835,0.76-1.215,1.292-2.128,2.356c-0.38,0.456-0.912,0.304-0.38-0.38c0.76-0.912,1.216-1.52,2.508-2.888
				c1.216-1.292,3.497-2.584,4.561-0.988c0.759,1.216,0.076,3.116-1.064,5.928c0.912-1.14,1.976-2.432,3.04-3.496
				c1.064-0.988,2.052-1.824,3.42-2.584c2.736-1.52,5.472-0.228,4.56,3.192c-1.52,4.408-6.992,11.932-6.307,12.92
				C601.021,77.099,603.073,75.883,603.909,75.047z"/>
			<path fill="#AF7AC5" d="M681.807,25.951l0.076,0.076c5.244,4.256,7.828,10.716,7.98,17.328c0.152,6.688-2.128,13.3-5.776,18.772
				c-3.572,5.32-8.588,9.804-14.364,12.692c-2.964,1.444-6.232,2.508-9.576,2.964c-3.344,0.38-6.688,0-10.032-0.684
				c-1.52-0.304-3.04-0.684-4.56-1.064c-1.216,0.608-2.584,1.064-3.952,1.368c-3.344,0.684-6.916,0.608-10.26-0.076
				c-1.52-0.304-3.116-0.76-4.408-1.672c-1.368-0.912-1.216-2.356,0.38-2.812c4.484-1.444,11.475,1.216,17.024,2.356
				c6.992-3.724,14.288-18.924,19.608-27.512c3.496-5.7,7.22-11.4,11.476-16.568c1.596-1.9,3.268-3.8,5.168-5.396
				c-5.472-3.8-12.464-4.484-18.848-3.42c-5.928,0.988-11.476,3.572-15.884,7.6c-4.484,4.104-8.74,9.956-10.336,16.72
				c-0.684,2.812-0.836,6.232,1.14,8.588c2.052,2.432,5.548,3.344,8.588,3.192c2.736-0.152,5.396-1.14,7.676-2.736
				c1.976-1.444,3.801-3.344,4.94-5.472c1.064-2.128,1.292-5.396-0.987-6.84c-1.14-0.76-2.736-0.608-3.801,0.076
				c-1.672,1.064-2.204,3.268-1.672,3.648c0.608,0.38,1.367,0,1.52-0.228c0,1.14-0.759,1.976-2.204,2.356
				c-1.14,0.304-2.204-0.304-2.204-1.672c0.152-2.736,3.268-5.168,6.536-5.168c1.52,0,2.888,0.836,3.648,2.128
				c1.444,2.584,0.228,5.7-1.443,7.904c-1.9,2.432-4.333,4.484-7.22,5.7c-3.04,1.292-6.536,1.596-9.728,0.684
				c-2.812-0.836-5.168-2.584-6.46-5.168c-1.367-3.04-1.292-6.536-0.456-9.728c1.672-6.232,6.156-11.552,11.324-15.352
				c5.244-3.876,11.628-6.308,18.164-7.068c6.156-0.684,12.996,0.152,18.164,3.876c2.432-2.052,5.32-3.572,8.664-3.952
				c0.608-0.076,0.38,0.38,0.152,0.38c-0.836,0.076-2.052,0.304-2.584,0.532C685.304,23.139,683.404,24.203,681.807,25.951z
				 M643.58,75.579c-4.332-1.064-8.74-2.508-13.3-2.584c-0.608,0-4.18,0.304-3.572,1.52c0.608,1.216,2.964,1.748,4.18,2.052
				c3.268,0.76,6.688,0.76,9.88,0C641.756,76.263,642.744,75.959,643.58,75.579z M681.428,26.331
				c-1.596,1.596-2.888,3.496-4.105,5.32c-3.724,5.7-6.612,11.78-10.032,17.632c-4.028,6.916-13.452,21.432-20.975,26.372
				c3.42,0.76,6.84,1.52,10.412,1.444c3.268,0,6.535-0.836,9.576-2.204c5.851-2.736,10.412-7.6,13.832-12.92
				c3.572-5.624,6.308-12.008,7.144-18.62C688.04,37.047,686.52,30.359,681.428,26.331z"/>
			<path fill="#AF7AC5" d="M710.079,63.951c0.228-0.228,0.607,0.076,0.379,0.38c-2.28,2.888-6.688,8.284-9.728,11.4
				c-1.519,1.444-3.344,2.812-5.016,1.9c-1.824-1.064-0.987-3.572-0.227-5.396c-1.52,2.052-3.344,4.256-5.776,5.244
				c-1.292,0.532-2.888,0.684-4.104-0.228c-1.292-1.064-1.596-2.888-1.52-4.484c0.152-2.964,1.748-6.156,3.648-8.436
				c2.052-2.356,4.864-4.408,7.98-4.94c1.444-0.228,3.192,0,3.953,1.368c0.532,1.064,0.456,2.204,0.228,3.344
				c0.684-1.14,1.367-2.204,2.052-3.268c0.456-0.76,1.444-0.988,2.204-0.532c0.912,0.608,0.76,1.672,0.304,2.508
				c-1.216,1.976-2.508,4.028-3.725,6.004c-1.063,1.596-2.28,3.496-3.268,5.472c-0.988,2.28,0.684,2.736,3.116,0.684
				C703.619,71.855,707.647,67.143,710.079,63.951z M696.095,70.487c0.988-1.596,2.812-4.484,3.344-6.232
				c0.38-1.596,0-3.952-2.052-3.952c-1.596,0-3.04,1.064-4.104,2.052c-2.964,2.584-6.08,7.22-6.84,11.552
				c-0.152,1.14,0,2.508,1.368,2.812c0.76,0.152,1.596,0,2.28-0.228C692.675,75.427,694.651,72.767,696.095,70.487z"/>
			<path fill="#AF7AC5" d="M737.514,44.571c-4.256,2.204-9.5,1.216-14.06,1.292c-4.56,7.372-8.816,15.048-13.224,24.32
				c-0.228,0.532-3.116,7.068-0.76,6.004c0.836-0.38,1.52-1.064,2.204-1.672c3.268-3.268,6.231-6.916,9.196-10.564
				c0.228-0.304,0.608,0.152,0.38,0.38c-2.66,3.268-5.396,6.612-8.208,9.652c-1.063,1.14-1.976,2.204-3.344,3.268
				c-0.456,0.38-1.824,0.988-2.736,0.532c-1.216-0.608-1.14-2.28-0.988-3.42c0.456-3.04,1.824-6.004,3.116-8.816
				c3.116-6.764,6.916-13.3,10.868-19.76c-2.584-0.076-5.32,0-7.904,0.456c-0.228,0.076-0.38-0.228-0.152-0.38
				c2.812-0.912,5.775-1.14,8.664-1.14c3.344-5.548,6.839-11.02,10.336-16.416c0.76-1.064,2.736-0.228,2.28,0.988
				c-0.152,0.38-0.684,1.292-0.988,1.824c-2.812,4.484-5.471,9.12-8.132,13.68c2.204,0.076,4.332,0.228,6.46,0.304
				c2.28,0,4.636,0,6.764-0.836C737.894,43.963,738.122,44.191,737.514,44.571z"/>
			<path fill="#AF7AC5" d="M742.531,63.951c0.227-0.228,0.607,0.076,0.379,0.38c-2.28,2.888-6.688,8.284-9.728,11.4
				c-1.519,1.444-3.344,2.812-5.015,1.9c-1.824-1.064-0.988-3.572-0.228-5.396c-1.52,2.052-3.344,4.256-5.776,5.244
				c-1.292,0.532-2.888,0.684-4.104-0.228c-1.292-1.064-1.596-2.888-1.52-4.484c0.152-2.964,1.748-6.156,3.648-8.436
				c2.052-2.356,4.864-4.408,7.98-4.94c1.443-0.228,3.192,0,3.952,1.368c0.532,1.064,0.456,2.204,0.228,3.344
				c0.683-1.14,1.367-2.204,2.052-3.268c0.456-0.76,1.444-0.988,2.204-0.532c0.912,0.608,0.76,1.672,0.304,2.508
				c-1.216,1.976-2.508,4.028-3.725,6.004c-1.063,1.596-2.28,3.496-3.268,5.472c-0.988,2.28,0.684,2.736,3.116,0.684
				C736.07,71.855,740.098,67.143,742.531,63.951z M728.546,70.487c0.988-1.596,2.812-4.484,3.344-6.232
				c0.38-1.596,0-3.952-2.052-3.952c-1.596,0-3.04,1.064-4.104,2.052c-2.964,2.584-6.08,7.22-6.84,11.552
				c-0.152,1.14,0,2.508,1.368,2.812c0.76,0.152,1.596,0,2.28-0.228C725.126,75.427,727.103,72.767,728.546,70.487z"/>
		</g>
		<g>
			<path fill="#808080" d="M486.948,22.835c-0.303,0.912-1.367,1.216-2.204,0.684c-0.988-0.684-1.216-1.824-0.988-2.66
				c0,0.152,0.684,0.988,1.14,0.684c0.456-0.304,1.216-1.596-0.228-3.268c-1.14-1.292-2.736-1.976-4.332-2.28
				c-9.348-1.824-19,4.408-26.22,10.488c-5.168,4.332-9.88,9.348-14.288,14.516c-4.332,5.168-8.436,10.716-12.236,16.416
				c-0.456,2.128-0.988,4.256-1.596,6.384c-0.836,3.04-1.596,6.232-2.888,9.196c-0.608,1.444-1.368,2.964-2.508,4.028
				c-0.76,0.76-2.432,1.444-3.04,0.076c-0.532-1.368,0.456-3.268,0.988-4.484c1.443-3.268,3.268-6.232,4.94-9.348
				c0.759-6.916,1.748-13.68,3.268-20.444c1.368-6.536,3.116-13.3,6.84-19.152c-0.911,0.912-1.9,1.824-2.812,2.736
				c-4.788,4.636-9.272,9.652-13.452,14.896c-4.256,5.244-8.208,10.716-12.236,16.036c-3.952,5.32-8.208,11.476-13.528,15.504
				c-2.584,1.976-5.624,3.724-8.74,4.56c-2.888,0.836-6.536,0.836-8.74-1.52c-0.988-1.14-1.52-2.584-1.52-4.104
				c0-2.736,1.824-6.764,4.94-7.448c1.368-0.304,2.128,0.76,1.976,1.976c-0.152,1.368-0.988,2.356-2.204,2.432
				c0.228-0.152,0.608-1.216,0.076-1.52c-0.608-0.304-2.28-0.38-3.648,2.052c-1.064,1.9-0.532,4.94,1.216,6.536
				c2.356,2.128,6.003,1.596,8.74,0.608c2.964-0.988,5.852-2.736,8.284-4.712c5.092-4.18,9.272-10.26,13.224-15.58
				s7.904-10.792,12.084-15.96c4.18-5.168,8.664-10.184,13.452-14.82c1.52-1.52,3.116-2.964,4.788-4.408
				c-0.836,0.076-1.672,0.152-2.432,0.228c-6.84,0.76-13.68,1.368-20.368,3.268c-6.308,1.748-12.236,4.56-17.404,8.588
				c-4.484,3.42-8.664,7.6-10.26,13.148c-0.759,2.736-0.987,5.928,0.456,8.436c2.584,4.56,9.576,4.256,13.681,1.14
				c2.356-1.748,4.484-4.636,4.712-7.676c0.228-2.128-1.216-4.028-3.801-3.8c-1.824,0.304-3.192,1.52-4.18,2.964
				c-0.456,0.684-0.912,0.38-0.608-0.076c1.368-1.976,4.029-4.332,7.068-3.04c2.736,1.292,2.28,4.712,1.292,6.992
				c-2.432,5.32-8.36,8.664-14.136,7.904c-2.432-0.38-4.637-1.748-5.928-3.876c-1.672-2.66-1.9-6.08-1.216-9.12
				c1.216-5.852,5.396-10.336,10.108-13.68c11.02-7.828,24.7-10.032,37.848-11.552c2.052-0.228,4.104-0.456,6.156-0.76
				c1.444-1.444,3.344-3.04,5.548-4.104c1.139-0.608,3.192-1.216,4.256-0.76c1.216,0.532,0.532,1.824-0.228,2.508
				c-2.052,1.672-4.636,2.356-7.296,2.812c-0.607,0.152-1.063,0.608-1.748,1.444c-2.508,3.724-3.496,8.208-4.56,12.54
				c-0.76,3.192-1.368,6.384-2.052,9.576c-0.76,3.952-1.52,7.904-2.432,11.856c2.888-4.408,6.003-8.74,9.272-12.844
				c4.256-5.32,8.816-10.336,13.832-14.972c4.864-4.484,10.336-8.74,16.567-11.248c5.016-1.9,13.452-3.192,17.48,0.836
				C486.493,19.035,487.48,21.239,486.948,22.835z M423.337,64.635c-1.748,3.42-3.725,6.688-4.864,10.336
				c-0.304,1.064-0.228,2.736,1.139,1.672c1.14-1.064,1.748-2.66,2.28-4.104C422.729,70.031,423.033,67.295,423.337,64.635z
				 M438.005,19.795c2.052-0.38,4.18-0.684,6.307-1.748c0.456-0.304,1.9-1.064,1.824-1.9c0-1.292-3.724,0.38-4.18,0.684
				C440.513,17.591,439.221,18.655,438.005,19.795z"/>
			<path fill="#808080" d="M458.069,63.951c0.228-0.228,0.607,0.076,0.379,0.38c-2.28,2.888-6.688,8.284-9.728,11.4
				c-1.52,1.444-3.344,2.812-5.016,1.9c-1.824-1.064-0.987-3.572-0.227-5.396c-1.52,2.052-3.344,4.256-5.776,5.244
				c-1.292,0.532-2.888,0.684-4.104-0.228c-1.292-1.064-1.596-2.888-1.52-4.484c0.152-2.964,1.748-6.156,3.648-8.436
				c2.052-2.356,4.864-4.408,7.98-4.94c1.444-0.228,3.192,0,3.953,1.368c0.532,1.064,0.456,2.204,0.228,3.344
				c0.684-1.14,1.367-2.204,2.052-3.268c0.456-0.76,1.444-0.988,2.204-0.532c0.912,0.608,0.76,1.672,0.304,2.508
				c-1.216,1.976-2.508,4.028-3.725,6.004c-1.063,1.596-2.28,3.496-3.268,5.472c-0.988,2.28,0.684,2.736,3.116,0.684
				C451.609,71.855,455.637,67.143,458.069,63.951z M444.085,70.487c0.988-1.596,2.812-4.484,3.344-6.232
				c0.38-1.596,0-3.952-2.052-3.952c-1.596,0-3.04,1.064-4.104,2.052c-2.964,2.584-6.08,7.22-6.84,11.552
				c-0.152,1.14,0,2.508,1.368,2.812c0.76,0.152,1.596,0,2.28-0.228C440.665,75.427,442.641,72.767,444.085,70.487z"/>
			<path fill="#808080" d="M472.357,75.047c3.268-3.344,6.536-7.372,9.5-11.096c0.228-0.304,0.608,0.152,0.38,0.38
				c-1.596,2.052-3.344,4.18-5.016,6.156c-1.976,2.204-4.18,5.168-6.308,6.612c-0.987,0.684-2.28,1.064-3.344,0.684
				c-0.836-0.38-1.368-1.216-1.368-2.128c0.076-4.028,4.56-9.5,6.688-14.212c0.228-0.532-0.076-0.912-0.684-1.064
				c-1.596-0.38-3.648,1.52-4.864,2.736c-1.9,1.824-3.572,4.104-5.092,6.308c-1.444,2.584-2.964,4.864-4.56,7.372
				c-0.532,0.836-1.368,1.444-2.356,0.912c-0.532-0.304-0.912-0.836-0.912-1.444c0-0.532,0.304-0.836,0.532-1.292
				c1.9-3.04,3.8-6.08,5.775-9.12c0.152-0.228,3.42-5.092,1.9-5.092c-0.76,0-1.596,0.76-2.052,1.216
				c-0.835,0.76-1.215,1.292-2.128,2.356c-0.38,0.456-0.912,0.304-0.38-0.38c0.76-0.912,1.216-1.52,2.508-2.888
				c1.216-1.292,3.496-2.584,4.561-0.988c0.759,1.216,0.076,3.116-1.064,5.928c0.912-1.14,1.976-2.432,3.04-3.496
				c1.064-0.988,2.052-1.824,3.42-2.584c2.736-1.52,5.472-0.228,4.561,3.192c-1.52,4.408-6.992,11.932-6.308,12.92
				C469.469,77.099,471.52,75.883,472.357,75.047z"/>
			<path fill="#808080" d="M500.323,64.331c-1.52,1.9-4.104,4.256-6.535,4.712c-1.292,2.888-3.496,5.396-6.08,7.22
				c-2.128,1.444-5.776,2.736-7.904,0.532c-2.204-2.28-1.748-6.536-0.531-9.196c1.9-4.332,6.155-7.828,10.867-8.284
				c1.368-0.152,2.964,0,4.028,1.064c0.608,0.608,1.14,2.052,0.684,3.42c-0.076,0.228-0.38,0.076-0.38-0.152
				c0.152-0.988,0.076-1.976-0.759-2.812c-2.28-1.976-6.232,0.988-7.98,2.888c-2.128,2.356-3.8,5.396-4.94,8.284
				c-0.532,1.368-1.064,3.116-0.228,4.408c0.836,1.292,2.508,1.216,3.724,0.684c2.584-1.292,5.472-5.928,7.068-8.436
				c-0.532-0.304-0.988-0.76-1.14-1.368c-0.38-1.368,0.608-2.888,1.748-3.496c0.912-0.532,1.9-0.38,2.356,0.608
				c0.532,1.292,0.152,2.736-0.304,4.028c2.128-0.608,4.637-2.736,5.928-4.484C500.095,63.723,500.627,63.951,500.323,64.331z
				 M491.66,68.283c0.152-0.228,2.508-4.712,0.532-3.952c-1.064,0.38-1.824,1.824-1.444,2.888
				C490.976,67.751,491.28,68.055,491.66,68.283z"/>
			<path fill="#808080" d="M522.514,60.531c-1.292-0.532-2.964,0.912-3.952,1.748c-2.052,1.824-3.648,4.104-5.092,6.384
				c-1.443,2.736-2.888,5.548-4.332,8.284c-0.456,0.836-1.292,1.216-2.204,0.912c-1.064-0.456-1.14-1.596-0.684-2.508
				c1.139-2.432,2.508-4.788,3.876-7.144c0.836-1.368,1.596-2.66,2.356-4.028c0.456-0.912,1.14-2.28,1.14-3.344
				c-0.456-1.52-3.116,0.836-3.648,1.292c-1.368,1.216-2.432,2.964-3.496,4.408c-2.432,3.344-4.712,6.764-6.84,10.336
				c-0.532,0.836-1.368,1.444-2.432,0.912c-0.532-0.304-0.836-0.836-0.836-1.444c0-0.532,0.228-0.912,0.532-1.368
				c1.9-2.964,3.724-5.928,5.699-9.12c0.532-0.836,2.964-4.712,1.9-5.168c-0.684-0.152-1.52,0.836-2.052,1.292
				c-0.759,0.76-1.443,1.444-2.128,2.356c-0.304,0.38-0.836,0.228-0.38-0.38c0.684-0.836,1.368-1.672,2.508-2.888
				c1.064-1.064,3.42-2.736,4.561-0.912c1.063,1.748-0.456,4.712-1.444,6.688c1.444-2.052,2.964-4.18,4.788-5.776
				c1.064-0.912,2.508-2.052,4.028-1.672c2.508,0.836,1.444,4.028,0.456,6.156c0.836-0.988,1.672-2.052,2.66-2.964
				c1.444-1.444,5.624-4.864,7.296-2.356c0.456,0.836,0.456,1.748,0.152,2.888c-1.292,4.484-6.992,11.932-6.308,12.92
				c0.684,1.064,2.736-0.152,3.572-0.988c3.268-3.344,6.536-7.372,9.5-11.096c0.228-0.304,0.608,0.152,0.38,0.38
				c-1.596,2.052-3.344,4.18-5.016,6.156c-1.976,2.204-4.18,5.168-6.307,6.612c-0.988,0.684-2.28,1.064-3.344,0.684
				c-0.835-0.38-1.367-1.216-1.367-2.128c0.076-3.572,3.648-8.284,5.927-12.692C522.286,62.355,523.198,60.835,522.514,60.531z"/>
			<path fill="#808080" d="M550.179,64.331c-1.52,1.9-4.104,4.256-6.536,4.712c-1.292,2.888-3.496,5.396-6.08,7.22
				c-2.128,1.444-5.776,2.736-7.904,0.532c-2.204-2.28-1.748-6.536-0.531-9.196c1.9-4.332,6.155-7.828,10.867-8.284
				c1.368-0.152,2.964,0,4.028,1.064c0.608,0.608,1.14,2.052,0.684,3.42c-0.076,0.228-0.38,0.076-0.38-0.152
				c0.152-0.988,0.076-1.976-0.759-2.812c-2.28-1.976-6.232,0.988-7.98,2.888c-2.128,2.356-3.8,5.396-4.94,8.284
				c-0.532,1.368-1.064,3.116-0.228,4.408c0.836,1.292,2.508,1.216,3.725,0.684c2.584-1.292,5.471-5.928,7.068-8.436
				c-0.532-0.304-0.988-0.76-1.14-1.368c-0.38-1.368,0.608-2.888,1.748-3.496c0.912-0.532,1.9-0.38,2.356,0.608
				c0.532,1.292,0.152,2.736-0.303,4.028c2.128-0.608,4.636-2.736,5.927-4.484C549.951,63.723,550.483,63.951,550.179,64.331z
				 M541.515,68.283c0.152-0.228,2.508-4.712,0.532-3.952c-1.064,0.38-1.824,1.824-1.444,2.888
				C540.831,67.751,541.135,68.055,541.515,68.283z"/>
			<path fill="#808080" d="M577.537,44.571c-4.256,2.204-9.5,1.216-14.06,1.292c-4.56,7.372-8.816,15.048-13.224,24.32
				c-0.228,0.532-3.116,7.068-0.76,6.004c0.836-0.38,1.52-1.064,2.204-1.672c3.268-3.268,6.231-6.916,9.196-10.564
				c0.228-0.304,0.608,0.152,0.38,0.38c-2.66,3.268-5.396,6.612-8.208,9.652c-1.063,1.14-1.976,2.204-3.344,3.268
				c-0.456,0.38-1.824,0.988-2.736,0.532c-1.216-0.608-1.14-2.28-0.988-3.42c0.456-3.04,1.824-6.004,3.116-8.816
				c3.116-6.764,6.916-13.3,10.868-19.76c-2.584-0.076-5.32,0-7.904,0.456c-0.228,0.076-0.38-0.228-0.152-0.38
				c2.812-0.912,5.775-1.14,8.664-1.14c3.344-5.548,6.839-11.02,10.336-16.416c0.76-1.064,2.736-0.228,2.28,0.988
				c-0.152,0.38-0.684,1.292-0.988,1.824c-2.812,4.484-5.471,9.12-8.132,13.68c2.204,0.076,4.332,0.228,6.46,0.304
				c2.28,0,4.636,0,6.763-0.836C577.917,43.963,578.145,44.191,577.537,44.571z"/>
			<path fill="#808080" d="M566.898,70.487c-2.052,2.28-4.408,5.396-6.612,6.84c-0.836,0.532-2.356,0.988-3.42,0.152
				c-0.836-0.76-0.76-2.052-0.456-3.04c1.292-3.268,3.116-6.764,4.788-10.032c-0.228,0.228-0.684,0.076-0.304-0.456
				c0.684-0.912,1.368-1.9,2.128-3.116c0.303-0.608,0.683-1.14,1.139-1.368c0.988-0.456,2.128,0.228,2.128,1.292
				c0,0.38-0.532,1.444-0.912,2.052c-2.052,3.724-4.56,7.676-6.46,11.552c-0.531,1.064-0.607,2.28,1.14,1.9
				c0.836-0.304,1.368-0.608,1.976-1.216c3.268-3.344,6.536-7.372,9.5-11.096c0.228-0.304,0.608,0.152,0.38,0.38
				C570.318,66.383,568.57,68.511,566.898,70.487z M566.746,51.715c0.38-0.836,1.444-1.292,2.204-0.912
				c0.836,0.456,1.064,1.444,0.608,2.432c-0.456,0.912-1.443,1.292-2.28,0.912C566.518,53.767,566.214,52.627,566.746,51.715z"/>
			<path fill="#808080" d="M590.002,64.331c-1.52,1.9-4.104,4.256-6.535,4.712c-1.292,2.888-3.497,5.396-6.08,7.22
				c-2.128,1.444-5.776,2.736-7.904,0.532c-2.204-2.28-1.747-6.536-0.531-9.196c1.9-4.332,6.155-7.828,10.867-8.284
				c1.368-0.152,2.964,0,4.028,1.064c0.608,0.608,1.14,2.052,0.684,3.42c-0.076,0.228-0.38,0.076-0.38-0.152
				c0.152-0.988,0.076-1.976-0.759-2.812c-2.28-1.976-6.232,0.988-7.98,2.888c-2.128,2.356-3.8,5.396-4.94,8.284
				c-0.532,1.368-1.064,3.116-0.228,4.408c0.836,1.292,2.508,1.216,3.724,0.684c2.584-1.292,5.472-5.928,7.068-8.436
				c-0.532-0.304-0.988-0.76-1.14-1.368c-0.38-1.368,0.608-2.888,1.748-3.496c0.912-0.532,1.9-0.38,2.356,0.608
				c0.532,1.292,0.152,2.736-0.304,4.028c2.128-0.608,4.637-2.736,5.928-4.484C589.774,63.723,590.306,63.951,590.002,64.331z
				 M581.338,68.283c0.152-0.228,2.508-4.712,0.532-3.952c-1.064,0.38-1.824,1.824-1.444,2.888
				C580.654,67.751,580.958,68.055,581.338,68.283z"/>
			<path fill="#808080" d="M603.909,75.047c3.268-3.344,6.536-7.372,9.5-11.096c0.228-0.304,0.608,0.152,0.38,0.38
				c-1.596,2.052-3.344,4.18-5.016,6.156c-1.976,2.204-4.18,5.168-6.308,6.612c-0.987,0.684-2.28,1.064-3.344,0.684
				c-0.836-0.38-1.368-1.216-1.368-2.128c0.076-4.028,4.56-9.5,6.688-14.212c0.228-0.532-0.076-0.912-0.684-1.064
				c-1.596-0.38-3.648,1.52-4.864,2.736c-1.9,1.824-3.572,4.104-5.092,6.308c-1.444,2.584-2.964,4.864-4.56,7.372
				c-0.532,0.836-1.368,1.444-2.356,0.912c-0.532-0.304-0.912-0.836-0.912-1.444c0-0.532,0.304-0.836,0.532-1.292
				c1.9-3.04,3.8-6.08,5.775-9.12c0.152-0.228,3.42-5.092,1.9-5.092c-0.76,0-1.596,0.76-2.052,1.216
				c-0.835,0.76-1.215,1.292-2.128,2.356c-0.38,0.456-0.912,0.304-0.38-0.38c0.76-0.912,1.216-1.52,2.508-2.888
				c1.216-1.292,3.497-2.584,4.561-0.988c0.759,1.216,0.076,3.116-1.064,5.928c0.912-1.14,1.976-2.432,3.04-3.496
				c1.064-0.988,2.052-1.824,3.42-2.584c2.736-1.52,5.472-0.228,4.56,3.192c-1.52,4.408-6.992,11.932-6.307,12.92
				C601.021,77.099,603.073,75.883,603.909,75.047z"/>
			<path fill="#808080" d="M681.807,25.951l0.076,0.076c5.244,4.256,7.828,10.716,7.98,17.328c0.152,6.688-2.128,13.3-5.776,18.772
				c-3.572,5.32-8.588,9.804-14.364,12.692c-2.964,1.444-6.232,2.508-9.576,2.964c-3.344,0.38-6.688,0-10.032-0.684
				c-1.52-0.304-3.04-0.684-4.56-1.064c-1.216,0.608-2.584,1.064-3.952,1.368c-3.344,0.684-6.916,0.608-10.26-0.076
				c-1.52-0.304-3.116-0.76-4.408-1.672c-1.368-0.912-1.216-2.356,0.38-2.812c4.484-1.444,11.475,1.216,17.024,2.356
				c6.992-3.724,14.288-18.924,19.608-27.512c3.496-5.7,7.22-11.4,11.476-16.568c1.596-1.9,3.268-3.8,5.168-5.396
				c-5.472-3.8-12.464-4.484-18.848-3.42c-5.928,0.988-11.476,3.572-15.884,7.6c-4.484,4.104-8.74,9.956-10.336,16.72
				c-0.684,2.812-0.836,6.232,1.14,8.588c2.052,2.432,5.548,3.344,8.588,3.192c2.736-0.152,5.396-1.14,7.676-2.736
				c1.976-1.444,3.801-3.344,4.94-5.472c1.064-2.128,1.292-5.396-0.987-6.84c-1.14-0.76-2.736-0.608-3.801,0.076
				c-1.672,1.064-2.204,3.268-1.672,3.648c0.608,0.38,1.367,0,1.52-0.228c0,1.14-0.759,1.976-2.204,2.356
				c-1.14,0.304-2.204-0.304-2.204-1.672c0.152-2.736,3.268-5.168,6.536-5.168c1.52,0,2.888,0.836,3.648,2.128
				c1.444,2.584,0.228,5.7-1.443,7.904c-1.9,2.432-4.333,4.484-7.22,5.7c-3.04,1.292-6.536,1.596-9.728,0.684
				c-2.812-0.836-5.168-2.584-6.46-5.168c-1.367-3.04-1.292-6.536-0.456-9.728c1.672-6.232,6.156-11.552,11.324-15.352
				c5.244-3.876,11.628-6.308,18.164-7.068c6.156-0.684,12.996,0.152,18.164,3.876c2.432-2.052,5.32-3.572,8.664-3.952
				c0.608-0.076,0.38,0.38,0.152,0.38c-0.836,0.076-2.052,0.304-2.584,0.532C685.304,23.139,683.404,24.203,681.807,25.951z
				 M643.58,75.579c-4.332-1.064-8.74-2.508-13.3-2.584c-0.608,0-4.18,0.304-3.572,1.52c0.608,1.216,2.964,1.748,4.18,2.052
				c3.268,0.76,6.688,0.76,9.88,0C641.756,76.263,642.744,75.959,643.58,75.579z M681.428,26.331
				c-1.596,1.596-2.888,3.496-4.105,5.32c-3.724,5.7-6.612,11.78-10.032,17.632c-4.028,6.916-13.452,21.432-20.975,26.372
				c3.42,0.76,6.84,1.52,10.412,1.444c3.268,0,6.535-0.836,9.576-2.204c5.851-2.736,10.412-7.6,13.832-12.92
				c3.572-5.624,6.308-12.008,7.144-18.62C688.04,37.047,686.52,30.359,681.428,26.331z"/>
			<path fill="#808080" d="M710.079,63.951c0.228-0.228,0.607,0.076,0.379,0.38c-2.28,2.888-6.688,8.284-9.728,11.4
				c-1.519,1.444-3.344,2.812-5.016,1.9c-1.824-1.064-0.987-3.572-0.227-5.396c-1.52,2.052-3.344,4.256-5.776,5.244
				c-1.292,0.532-2.888,0.684-4.104-0.228c-1.292-1.064-1.596-2.888-1.52-4.484c0.152-2.964,1.748-6.156,3.648-8.436
				c2.052-2.356,4.864-4.408,7.98-4.94c1.444-0.228,3.192,0,3.953,1.368c0.532,1.064,0.456,2.204,0.228,3.344
				c0.684-1.14,1.367-2.204,2.052-3.268c0.456-0.76,1.444-0.988,2.204-0.532c0.912,0.608,0.76,1.672,0.304,2.508
				c-1.216,1.976-2.508,4.028-3.725,6.004c-1.063,1.596-2.28,3.496-3.268,5.472c-0.988,2.28,0.684,2.736,3.116,0.684
				C703.619,71.855,707.647,67.143,710.079,63.951z M696.095,70.487c0.988-1.596,2.812-4.484,3.344-6.232
				c0.38-1.596,0-3.952-2.052-3.952c-1.596,0-3.04,1.064-4.104,2.052c-2.964,2.584-6.08,7.22-6.84,11.552
				c-0.152,1.14,0,2.508,1.368,2.812c0.76,0.152,1.596,0,2.28-0.228C692.675,75.427,694.651,72.767,696.095,70.487z"/>
			<path fill="#808080" d="M737.514,44.571c-4.256,2.204-9.5,1.216-14.06,1.292c-4.56,7.372-8.816,15.048-13.224,24.32
				c-0.228,0.532-3.116,7.068-0.76,6.004c0.836-0.38,1.52-1.064,2.204-1.672c3.268-3.268,6.231-6.916,9.196-10.564
				c0.228-0.304,0.608,0.152,0.38,0.38c-2.66,3.268-5.396,6.612-8.208,9.652c-1.063,1.14-1.976,2.204-3.344,3.268
				c-0.456,0.38-1.824,0.988-2.736,0.532c-1.216-0.608-1.14-2.28-0.988-3.42c0.456-3.04,1.824-6.004,3.116-8.816
				c3.116-6.764,6.916-13.3,10.868-19.76c-2.584-0.076-5.32,0-7.904,0.456c-0.228,0.076-0.38-0.228-0.152-0.38
				c2.812-0.912,5.775-1.14,8.664-1.14c3.344-5.548,6.839-11.02,10.336-16.416c0.76-1.064,2.736-0.228,2.28,0.988
				c-0.152,0.38-0.684,1.292-0.988,1.824c-2.812,4.484-5.471,9.12-8.132,13.68c2.204,0.076,4.332,0.228,6.46,0.304
				c2.28,0,4.636,0,6.764-0.836C737.894,43.963,738.122,44.191,737.514,44.571z"/>
			<path fill="#808080" d="M742.531,63.951c0.227-0.228,0.607,0.076,0.379,0.38c-2.28,2.888-6.688,8.284-9.728,11.4
				c-1.519,1.444-3.344,2.812-5.015,1.9c-1.824-1.064-0.988-3.572-0.228-5.396c-1.52,2.052-3.344,4.256-5.776,5.244
				c-1.292,0.532-2.888,0.684-4.104-0.228c-1.292-1.064-1.596-2.888-1.52-4.484c0.152-2.964,1.748-6.156,3.648-8.436
				c2.052-2.356,4.864-4.408,7.98-4.94c1.443-0.228,3.192,0,3.952,1.368c0.532,1.064,0.456,2.204,0.228,3.344
				c0.683-1.14,1.367-2.204,2.052-3.268c0.456-0.76,1.444-0.988,2.204-0.532c0.912,0.608,0.76,1.672,0.304,2.508
				c-1.216,1.976-2.508,4.028-3.725,6.004c-1.063,1.596-2.28,3.496-3.268,5.472c-0.988,2.28,0.684,2.736,3.116,0.684
				C736.07,71.855,740.098,67.143,742.531,63.951z M728.546,70.487c0.988-1.596,2.812-4.484,3.344-6.232
				c0.38-1.596,0-3.952-2.052-3.952c-1.596,0-3.04,1.064-4.104,2.052c-2.964,2.584-6.08,7.22-6.84,11.552
				c-0.152,1.14,0,2.508,1.368,2.812c0.76,0.152,1.596,0,2.28-0.228C725.126,75.427,727.103,72.767,728.546,70.487z"/>
		</g>
	</g>
	<g id="title_x5F_sub">
		<path fill="#7AB6C5" d="M503.899,100.097h-10.137c0.374,1.669,1.793,2.69,3.836,2.69c1.42,0,2.441-0.423,3.362-1.295l2.067,2.242
			c-1.246,1.42-3.114,2.167-5.529,2.167c-4.633,0-7.646-2.914-7.646-6.899c0-4.01,3.063-6.899,7.148-6.899
			c3.935,0,6.974,2.64,6.974,6.949C503.974,99.35,503.924,99.773,503.899,100.097z M493.712,97.83h6.601
			c-0.274-1.694-1.545-2.79-3.288-2.79C495.257,95.041,493.986,96.112,493.712,97.83z"/>
		<path fill="#7AB6C5" d="M514.707,105.701l-2.939-4.11l-3.038,4.11h-4.234l5.156-6.75l-4.982-6.65h4.359l2.839,3.91l2.914-3.91
			h4.135l-4.982,6.551l5.181,6.85H514.707z"/>
		<path fill="#7AB6C5" d="M535.602,99.001c0,4.209-2.914,6.899-6.675,6.899c-1.669,0-3.038-0.523-4.035-1.619v6.252h-3.885V92.301
			h3.711v1.544c0.972-1.171,2.417-1.744,4.209-1.744C532.687,92.102,535.602,94.792,535.602,99.001z M531.666,99.001
			c0-2.317-1.469-3.711-3.412-3.711c-1.943,0-3.413,1.395-3.413,3.711c0,2.317,1.469,3.711,3.413,3.711
			C530.197,102.712,531.666,101.318,531.666,99.001z"/>
		<path fill="#7AB6C5" d="M538.19,87.22h3.885v18.481h-3.885V87.22z"/>
		<path fill="#7AB6C5" d="M544.689,99.001c0-4.035,3.114-6.899,7.373-6.899c4.259,0,7.348,2.864,7.348,6.899
			s-3.089,6.899-7.348,6.899C547.802,105.9,544.689,103.036,544.689,99.001z M555.473,99.001c0-2.317-1.469-3.711-3.412-3.711
			c-1.943,0-3.437,1.395-3.437,3.711c0,2.317,1.494,3.711,3.437,3.711C554.004,102.712,555.473,101.318,555.473,99.001z"/>
		<path fill="#7AB6C5" d="M570.316,92.102v3.587c-0.323-0.025-0.573-0.05-0.872-0.05c-2.142,0-3.562,1.171-3.562,3.736v6.326h-3.885
			v-13.4h3.711v1.768C566.655,92.774,568.249,92.102,570.316,92.102z"/>
		<path fill="#7AB6C5" d="M584.413,98.054v7.647h-3.636v-1.669c-0.722,1.22-2.117,1.868-4.084,1.868
			c-3.139,0-5.007-1.744-5.007-4.06c0-2.366,1.669-4.01,5.754-4.01h3.088c0-1.669-0.996-2.64-3.088-2.64
			c-1.42,0-2.889,0.473-3.861,1.246l-1.395-2.715c1.469-1.046,3.636-1.619,5.778-1.619
			C582.047,92.102,584.413,93.995,584.413,98.054z M580.528,101.467v-1.37h-2.665c-1.818,0-2.391,0.672-2.391,1.569
			c0,0.971,0.822,1.619,2.191,1.619C578.959,103.285,580.079,102.687,580.528,101.467z"/>
		<path fill="#7AB6C5" d="M596.565,105.054c-0.797,0.573-1.968,0.847-3.164,0.847c-3.163,0-5.006-1.619-5.006-4.807v-5.504h-2.067
			V92.6h2.067v-3.263h3.885V92.6h3.338v2.989h-3.338v5.454c0,1.146,0.623,1.769,1.669,1.769c0.572,0,1.145-0.175,1.569-0.498
			L596.565,105.054z"/>
		<path fill="#7AB6C5" d="M598.282,88.266c0-1.22,0.972-2.167,2.416-2.167c1.445,0,2.416,0.897,2.416,2.092
			c0,1.295-0.971,2.242-2.416,2.242C599.253,90.433,598.282,89.486,598.282,88.266z M598.755,92.301h3.885v13.4h-3.885V92.301z"/>
		<path fill="#7AB6C5" d="M605.255,99.001c0-4.035,3.114-6.899,7.373-6.899c4.259,0,7.348,2.864,7.348,6.899
			s-3.089,6.899-7.348,6.899C608.368,105.9,605.255,103.036,605.255,99.001z M616.04,99.001c0-2.317-1.469-3.711-3.412-3.711
			c-1.943,0-3.437,1.395-3.437,3.711c0,2.317,1.494,3.711,3.437,3.711C614.57,102.712,616.04,101.318,616.04,99.001z"/>
		<path fill="#7AB6C5" d="M636.263,98.03v7.671h-3.886v-7.074c0-2.167-0.996-3.163-2.715-3.163c-1.868,0-3.213,1.146-3.213,3.612
			v6.625h-3.885v-13.4h3.711v1.569c1.046-1.146,2.615-1.768,4.434-1.768C633.871,92.102,636.263,93.945,636.263,98.03z"/>
	</g>
	<g id="title_x5F_lines">
		<rect x="662.944" y="98.387" fill="#808080" width="78.569" height="2.203"/>
		<rect x="372.899" y="98.387" fill="#808080" width="91.052" height="2.203"/>
	</g>
</g>
</svg>
