<svg xmlns="http://www.w3.org/2000/svg" viewBox="0 0 370.41 95.53"><defs><style>.cls-1{fill:#af7ac5;}.cls-2{fill:gray;}.cls-3{fill:#16a085;}</style></defs><title>Artboard 10</title><g id="title"><g id="title_main"><path class="cls-1" d="M114.38,7.84a1.44,1.44,0,0,1-2.2.68,2.45,2.45,0,0,1-1-2.66c0,.15.68,1,1.14.68s1.21-1.59-.23-3.26A7.57,7.57,0,0,0,107.77,1c-9.35-1.82-19,4.41-26.22,10.49A122.54,122.54,0,0,0,67.26,26,188.49,188.49,0,0,0,55,42.41q-.68,3.2-1.59,6.39A68.33,68.33,0,0,1,50.54,58,11.58,11.58,0,0,1,48,62c-.76.76-2.43,1.45-3,.08s.46-3.27,1-4.49c1.44-3.26,3.27-6.23,4.94-9.34a184.82,184.82,0,0,1,3.27-20.45C55.56,21.29,57.3,14.52,61,8.67c-.91.91-1.9,1.83-2.81,2.74A156,156,0,0,0,44.76,26.3c-4.25,5.25-8.2,10.72-12.23,16S24.32,53.81,19,57.84a25.76,25.76,0,0,1-8.74,4.56c-2.89.84-6.54.84-8.74-1.52A6.21,6.21,0,0,1,0,56.78C0,54,1.82,50,4.94,49.33c1.37-.3,2.13.76,2,2a2.49,2.49,0,0,1-2.21,2.43c.23-.15.61-1.22.08-1.52s-2.28-.38-3.65,2.05a5.76,5.76,0,0,0,1.22,6.54c2.35,2.12,6,1.59,8.74.6a27,27,0,0,0,8.28-4.71c5.09-4.18,9.27-10.26,13.22-15.58s7.91-10.79,12.09-16A166.79,166.79,0,0,1,58.14,10.34c1.52-1.52,3.12-3,4.79-4.41l-2.43.23c-6.84.76-13.68,1.37-20.37,3.27A49.76,49.76,0,0,0,22.72,18c-4.48,3.42-8.66,7.6-10.26,13.15-.76,2.73-1,5.93.46,8.43,2.58,4.56,9.58,4.26,13.68,1.14C29,39,31.08,36.11,31.31,33.07a3.31,3.31,0,0,0-3.8-3.8,6.47,6.47,0,0,0-4.18,3c-.45.68-.91.38-.61-.07,1.37-2,4-4.34,7.07-3,2.74,1.3,2.28,4.72,1.29,7A13.89,13.89,0,0,1,17,44,8.41,8.41,0,0,1,11,40.13,12.31,12.31,0,0,1,9.8,31C11,25.16,15.2,20.68,19.91,17.34c11-7.83,24.7-10,37.85-11.56,2.05-.22,4.1-.45,6.16-.76A21,21,0,0,1,69.46.92C70.6.31,72.66-.3,73.72.16c1.22.53.53,1.82-.23,2.51A15.34,15.34,0,0,1,66.2,5.48c-.61.15-1.07.61-1.75,1.44-2.51,3.73-3.5,8.21-4.56,12.54-.76,3.2-1.37,6.39-2,9.58-.76,4-1.52,7.9-2.44,11.85,2.89-4.4,6-8.73,9.28-12.84a135,135,0,0,1,13.83-15C83.37,8.59,88.84,4.34,95.07,1.83c5-1.9,13.46-3.19,17.49.84C113.92,4,114.91,6.24,114.38,7.84ZM50.77,49.63C49,53.05,47,56.32,45.9,60c-.3,1.06-.22,2.74,1.14,1.67a10.35,10.35,0,0,0,2.28-4.1A39.41,39.41,0,0,0,50.77,49.63ZM65.44,4.8a22.49,22.49,0,0,0,6.3-1.75c.46-.31,1.9-1.07,1.83-1.9,0-1.29-3.73.38-4.18.68A18.26,18.26,0,0,0,65.44,4.8Z"/><path class="cls-1" d="M85.5,49a.27.27,0,0,1,.38.38c-2.28,2.89-6.69,8.28-9.73,11.4-1.52,1.44-3.34,2.81-5,1.9-1.83-1.06-1-3.57-.23-5.4-1.52,2.06-3.35,4.26-5.78,5.25a4.17,4.17,0,0,1-4.1-.23,5.36,5.36,0,0,1-1.52-4.48,15.34,15.34,0,0,1,3.65-8.44,14.25,14.25,0,0,1,8-4.94c1.44-.23,3.19,0,4,1.37a5.1,5.1,0,0,1,.23,3.34c.68-1.14,1.36-2.2,2.05-3.27a1.6,1.6,0,0,1,2.2-.53,1.81,1.81,0,0,1,.31,2.51c-1.22,2-2.51,4-3.73,6a53.25,53.25,0,0,0-3.27,5.48c-1,2.28.69,2.73,3.12.68A139,139,0,0,0,85.5,49Zm-14,6.54a35.8,35.8,0,0,0,3.34-6.24c.38-1.59,0-4-2-4a6.52,6.52,0,0,0-4.11,2.05c-3,2.59-6.08,7.22-6.84,11.56-.15,1.14,0,2.5,1.37,2.81a4.61,4.61,0,0,0,2.28-.23C68.1,60.43,70.07,57.77,71.52,55.49Z"/><path class="cls-1" d="M99.79,60.05c3.26-3.35,6.53-7.38,9.5-11.1.22-.3.6.15.38.38-1.6,2.05-3.35,4.18-5,6.16-2,2.2-4.18,5.16-6.31,6.61a3.87,3.87,0,0,1-3.34.68,2.33,2.33,0,0,1-1.37-2.13c.08-4,4.56-9.5,6.69-14.21.23-.53-.08-.91-.69-1.06C98,45,96,46.9,94.77,48.11a41.59,41.59,0,0,0-5.09,6.31c-1.45,2.59-3,4.87-4.56,7.37-.53.84-1.37,1.45-2.36.92a1.72,1.72,0,0,1-.91-1.45c0-.53.31-.83.53-1.29,1.9-3,3.8-6.08,5.78-9.12.15-.23,3.42-5.09,1.9-5.09A3.57,3.57,0,0,0,88,47a22.54,22.54,0,0,0-2.13,2.36c-.38.46-.91.3-.38-.38.76-.91,1.22-1.52,2.51-2.89s3.49-2.58,4.56-1c.76,1.22.07,3.12-1.07,5.93a45.19,45.19,0,0,1,3-3.49A17.18,17.18,0,0,1,98,44.92c2.74-1.52,5.47-.23,4.56,3.19-1.52,4.41-7,11.94-6.3,12.92S99,60.88,99.79,60.05Z"/><path class="cls-1" d="M127.75,49.33c-1.52,1.9-4.1,4.26-6.53,4.71a18,18,0,0,1-6.08,7.22c-2.13,1.45-5.78,2.74-7.91.53s-1.74-6.53-.53-9.19c1.9-4.33,6.16-7.83,10.87-8.29a4.85,4.85,0,0,1,4,1.07,3.57,3.57,0,0,1,.68,3.42c-.07.23-.38.07-.38-.15a3,3,0,0,0-.76-2.82c-2.28-2-6.23,1-8,2.89A27.88,27.88,0,0,0,108.22,57c-.53,1.36-1.06,3.11-.23,4.4s2.51,1.22,3.73.69c2.58-1.29,5.47-5.93,7.07-8.44a2.22,2.22,0,0,1-1.14-1.37,3.31,3.31,0,0,1,1.74-3.49,1.55,1.55,0,0,1,2.36.61,5.73,5.73,0,0,1-.3,4A13.22,13.22,0,0,0,127.37,49,.27.27,0,1,1,127.75,49.33Zm-8.66,4c.15-.23,2.51-4.71.53-4a2.48,2.48,0,0,0-1.44,2.89A2.15,2.15,0,0,0,119.09,53.28Z"/><path class="cls-1" d="M149.94,45.53c-1.29-.53-3,.91-3.95,1.75a29.52,29.52,0,0,0-5.09,6.38c-1.44,2.74-2.89,5.55-4.33,8.29a1.78,1.78,0,0,1-2.2.91,1.72,1.72,0,0,1-.69-2.51c1.14-2.43,2.51-4.79,3.88-7.14.83-1.37,1.59-2.66,2.35-4a8.66,8.66,0,0,0,1.14-3.35c-.45-1.52-3.11.84-3.64,1.3a27.38,27.38,0,0,0-3.5,4.4c-2.43,3.35-4.71,6.77-6.84,10.34a1.8,1.8,0,0,1-2.43.91,1.62,1.62,0,0,1-.84-1.44,2.41,2.41,0,0,1,.53-1.37c1.9-3,3.73-5.93,5.7-9.12.53-.84,3-4.71,1.9-5.17-.68-.15-1.52.84-2.05,1.29a22.12,22.12,0,0,0-2.13,2.36c-.3.38-.83.23-.38-.38.69-.84,1.37-1.67,2.51-2.89,1.06-1.06,3.42-2.73,4.56-.91S134,49.86,133,51.84a32.08,32.08,0,0,1,4.79-5.78c1.06-.91,2.5-2.05,4-1.67,2.51.84,1.45,4,.46,6.16a32.12,32.12,0,0,1,2.66-3c1.44-1.44,5.62-4.86,7.29-2.35a3.7,3.7,0,0,1,.16,2.88c-1.3,4.49-7,11.94-6.31,12.92s2.74-.15,3.57-1c3.27-3.35,6.54-7.38,9.5-11.1.23-.3.61.15.38.38-1.59,2.05-3.34,4.18-5,6.16-2,2.2-4.18,5.16-6.3,6.61a3.89,3.89,0,0,1-3.35.68,2.34,2.34,0,0,1-1.36-2.13c.07-3.57,3.64-8.28,5.92-12.69C149.72,47.35,150.63,45.83,149.94,45.53Z"/><path class="cls-1" d="M177.61,49.33c-1.52,1.9-4.1,4.26-6.54,4.71A18,18,0,0,1,165,61.26c-2.12,1.45-5.77,2.74-7.9.53s-1.75-6.53-.53-9.19c1.9-4.33,6.15-7.83,10.86-8.29a4.84,4.84,0,0,1,4,1.07,3.59,3.59,0,0,1,.69,3.42c-.08.23-.38.07-.38-.15a3.07,3.07,0,0,0-.76-2.82c-2.28-2-6.23,1-8,2.89A27.88,27.88,0,0,0,158.08,57c-.53,1.36-1.07,3.11-.23,4.4s2.51,1.22,3.72.69c2.59-1.29,5.47-5.93,7.07-8.44a2.25,2.25,0,0,1-1.14-1.37,3.32,3.32,0,0,1,1.75-3.49,1.54,1.54,0,0,1,2.35.61,5.62,5.62,0,0,1-.3,4A13.2,13.2,0,0,0,177.23,49,.27.27,0,1,1,177.61,49.33Zm-8.66,4c.15-.23,2.5-4.71.53-4A2.47,2.47,0,0,0,168,52.22,2.17,2.17,0,0,0,169,53.28Z"/><path class="cls-1" d="M205,29.57c-4.26,2.21-9.5,1.22-14.06,1.29a245.48,245.48,0,0,0-13.23,24.32c-.22.53-3.11,7.07-.76,6a9.43,9.43,0,0,0,2.21-1.68A133.44,133.44,0,0,0,188.32,49c.23-.3.61.15.38.38-2.66,3.27-5.39,6.61-8.2,9.65a27.41,27.41,0,0,1-3.35,3.27,3,3,0,0,1-2.73.53c-1.22-.61-1.14-2.28-1-3.42a33.66,33.66,0,0,1,3.11-8.81,193.56,193.56,0,0,1,10.87-19.76,39.54,39.54,0,0,0-7.9.45.2.2,0,0,1-.15-.38A28,28,0,0,1,188,29.72c3.34-5.54,6.84-11,10.34-16.41.76-1.07,2.73-.23,2.28,1-.16.38-.69,1.29-1,1.82-2.81,4.48-5.47,9.12-8.13,13.68,2.2.08,4.33.23,6.46.3a18.52,18.52,0,0,0,6.76-.83C205.35,29,205.58,29.19,205,29.57Z"/><path class="cls-1" d="M194.33,55.49c-2.05,2.28-4.41,5.39-6.61,6.84a3.11,3.11,0,0,1-3.42.15,2.93,2.93,0,0,1-.46-3c1.29-3.27,3.12-6.77,4.79-10-.23.22-.69.07-.31-.46.69-.91,1.37-1.9,2.13-3.12a3,3,0,0,1,1.14-1.36,1.48,1.48,0,0,1,2.13,1.29,6.55,6.55,0,0,1-.91,2.05c-2.05,3.72-4.56,7.68-6.46,11.55-.53,1.07-.61,2.28,1.14,1.9a4.81,4.81,0,0,0,2-1.21C192.73,56.7,196,52.67,199,49c.23-.3.61.15.38.38C197.75,51.38,196,53.51,194.33,55.49Zm-.15-18.78a1.73,1.73,0,0,1,2.2-.91,1.77,1.77,0,0,1,.61,2.43,1.62,1.62,0,1,1-2.81-1.52Z"/><path class="cls-1" d="M217.43,49.33c-1.52,1.9-4.1,4.26-6.53,4.71a18.11,18.11,0,0,1-6.08,7.22c-2.13,1.45-5.78,2.74-7.91.53s-1.75-6.53-.53-9.19c1.9-4.33,6.16-7.83,10.87-8.29a4.85,4.85,0,0,1,4,1.07A3.59,3.59,0,0,1,212,48.8c-.08.23-.38.07-.38-.15a3,3,0,0,0-.76-2.82c-2.28-2-6.23,1-8,2.89A27.88,27.88,0,0,0,197.9,57c-.53,1.36-1.06,3.11-.23,4.4s2.51,1.22,3.73.69c2.58-1.29,5.47-5.93,7.06-8.44a2.28,2.28,0,0,1-1.14-1.37,3.32,3.32,0,0,1,1.75-3.49,1.55,1.55,0,0,1,2.36.61,5.67,5.67,0,0,1-.31,4A13.2,13.2,0,0,0,217.05,49,.27.27,0,1,1,217.43,49.33Zm-8.66,4c.15-.23,2.51-4.71.53-4a2.48,2.48,0,0,0-1.44,2.89A2.1,2.1,0,0,0,208.77,53.28Z"/><path class="cls-1" d="M231.34,60.05c3.27-3.35,6.54-7.38,9.5-11.1.23-.3.61.15.38.38-1.6,2.05-3.34,4.18-5,6.16-2,2.2-4.18,5.16-6.31,6.61a3.86,3.86,0,0,1-3.34.68,2.34,2.34,0,0,1-1.37-2.13c.08-4,4.56-9.5,6.69-14.21.23-.53-.07-.91-.68-1.06-1.6-.38-3.65,1.52-4.87,2.73a41.59,41.59,0,0,0-5.09,6.31c-1.44,2.59-3,4.87-4.56,7.37-.53.84-1.37,1.45-2.35.92a1.71,1.71,0,0,1-.92-1.45c0-.53.31-.83.54-1.29,1.9-3,3.8-6.08,5.77-9.12.15-.23,3.42-5.09,1.9-5.09A3.6,3.6,0,0,0,219.56,47a22.54,22.54,0,0,0-2.13,2.36c-.38.46-.91.3-.38-.38.76-.91,1.22-1.52,2.51-2.89s3.5-2.58,4.56-1c.76,1.22.08,3.12-1.06,5.93a41.26,41.26,0,0,1,3-3.49,16.83,16.83,0,0,1,3.41-2.59c2.74-1.52,5.48-.23,4.56,3.19-1.51,4.41-7,11.94-6.3,12.92S230.5,60.88,231.34,60.05Z"/><path class="cls-1" d="M309.24,11l.07.08c5.25,4.25,7.83,10.71,8,17.32a32.94,32.94,0,0,1-5.77,18.78,37.92,37.92,0,0,1-14.37,12.69,31.81,31.81,0,0,1-9.57,3,32,32,0,0,1-10-.68c-1.52-.31-3-.69-4.56-1.07a17.18,17.18,0,0,1-4,1.37,25.87,25.87,0,0,1-10.26-.07,11.46,11.46,0,0,1-4.4-1.68c-1.37-.91-1.22-2.35.38-2.81,4.48-1.44,11.47,1.22,17,2.36,7-3.73,14.29-18.93,19.61-27.51a146.28,146.28,0,0,1,11.47-16.57,44,44,0,0,1,5.17-5.4c-5.47-3.8-12.46-4.48-18.85-3.42a31.08,31.08,0,0,0-15.88,7.6c-4.48,4.11-8.74,10-10.34,16.72-.68,2.82-.83,6.23,1.14,8.59s5.55,3.34,8.59,3.19a14.94,14.94,0,0,0,7.68-2.73,17.13,17.13,0,0,0,4.94-5.48c1.06-2.12,1.29-5.39-1-6.84a3.63,3.63,0,0,0-3.8.08c-1.67,1.07-2.2,3.27-1.67,3.65a1.27,1.27,0,0,0,1.52-.23c0,1.14-.76,2-2.21,2.36a1.64,1.64,0,0,1-2.2-1.67c.15-2.74,3.27-5.17,6.54-5.17a4.22,4.22,0,0,1,3.64,2.13c1.45,2.58.23,5.69-1.44,7.9a18.34,18.34,0,0,1-7.22,5.7,14.79,14.79,0,0,1-9.73.68,10.26,10.26,0,0,1-6.46-5.17,14.67,14.67,0,0,1-.45-9.72c1.67-6.23,6.15-11.55,11.32-15.36a38.22,38.22,0,0,1,18.16-7.06c6.16-.69,13,.15,18.17,3.87a16.27,16.27,0,0,1,8.66-3.95c.61-.07.38.38.15.38a11.68,11.68,0,0,0-2.58.53A15,15,0,0,0,309.24,11ZM271,60.58c-4.33-1.07-8.74-2.51-13.3-2.59-.61,0-4.18.31-3.57,1.52s3,1.75,4.18,2.06a21.69,21.69,0,0,0,9.88,0A25.53,25.53,0,0,0,271,60.58Zm37.85-49.25a34.7,34.7,0,0,0-4.11,5.32c-3.72,5.7-6.61,11.78-10,17.63-4,6.92-13.45,21.43-21,26.37a43.85,43.85,0,0,0,10.41,1.45,23.45,23.45,0,0,0,9.57-2.21c5.86-2.73,10.42-7.6,13.84-12.92a46.14,46.14,0,0,0,7.14-18.62C315.47,22.05,314,15.36,308.86,11.33Z"/><path class="cls-1" d="M337.51,49a.27.27,0,0,1,.38.38c-2.28,2.89-6.69,8.28-9.73,11.4-1.52,1.44-3.34,2.81-5,1.9-1.82-1.06-1-3.57-.22-5.4-1.52,2.06-3.35,4.26-5.78,5.25a4.17,4.17,0,0,1-4.1-.23,5.36,5.36,0,0,1-1.52-4.48,15.34,15.34,0,0,1,3.65-8.44,14.26,14.26,0,0,1,8-4.94c1.45-.23,3.2,0,4,1.37a5.1,5.1,0,0,1,.23,3.34c.68-1.14,1.36-2.2,2.05-3.27a1.6,1.6,0,0,1,2.2-.53,1.81,1.81,0,0,1,.31,2.51c-1.22,2-2.51,4-3.73,6a53.25,53.25,0,0,0-3.27,5.48c-1,2.28.69,2.73,3.12.68A139,139,0,0,0,337.51,49Zm-14,6.54a35.8,35.8,0,0,0,3.34-6.24c.38-1.59,0-4-2.05-4a6.52,6.52,0,0,0-4.11,2.05c-3,2.59-6.08,7.22-6.84,11.56-.15,1.14,0,2.5,1.37,2.81a4.61,4.61,0,0,0,2.28-.23C320.11,60.43,322.08,57.77,323.53,55.49Z"/><path class="cls-1" d="M364.94,29.57c-4.25,2.21-9.5,1.22-14.06,1.29a245.51,245.51,0,0,0-13.22,24.32c-.23.53-3.11,7.07-.76,6a9.43,9.43,0,0,0,2.21-1.68A135.52,135.52,0,0,0,348.3,49c.23-.3.61.15.38.38-2.66,3.27-5.4,6.61-8.21,9.65a26.61,26.61,0,0,1-3.34,3.27,3,3,0,0,1-2.74.53c-1.21-.61-1.14-2.28-1-3.42a33.66,33.66,0,0,1,3.11-8.81,193.56,193.56,0,0,1,10.87-19.76,39.54,39.54,0,0,0-7.9.45.21.21,0,0,1-.16-.38A28.1,28.1,0,0,1,348,29.72c3.34-5.54,6.84-11,10.33-16.41.76-1.07,2.74-.23,2.28,1a20.67,20.67,0,0,1-1,1.82c-2.81,4.48-5.47,9.12-8.13,13.68,2.21.08,4.33.23,6.46.3a18.57,18.57,0,0,0,6.77-.83C365.32,29,365.55,29.19,364.94,29.57Z"/><path class="cls-1" d="M370,49a.27.27,0,0,1,.38.38c-2.28,2.89-6.69,8.28-9.73,11.4-1.52,1.44-3.34,2.81-5,1.9-1.83-1.06-1-3.57-.23-5.4-1.52,2.06-3.35,4.26-5.78,5.25a4.17,4.17,0,0,1-4.1-.23A5.36,5.36,0,0,1,344,57.77a15.34,15.34,0,0,1,3.65-8.44,14.25,14.25,0,0,1,8-4.94c1.44-.23,3.19,0,3.95,1.37a5,5,0,0,1,.23,3.34c.68-1.14,1.36-2.2,2.05-3.27a1.6,1.6,0,0,1,2.2-.53,1.8,1.8,0,0,1,.31,2.51c-1.22,2-2.51,4-3.73,6a53.25,53.25,0,0,0-3.27,5.48c-1,2.28.69,2.73,3.12.68A139,139,0,0,0,370,49Zm-14,6.54a35.8,35.8,0,0,0,3.34-6.24c.38-1.59,0-4-2.05-4a6.52,6.52,0,0,0-4.11,2.05c-3,2.59-6.08,7.22-6.84,11.56-.15,1.14,0,2.5,1.37,2.81a4.61,4.61,0,0,0,2.28-.23C352.56,60.43,354.53,57.77,356,55.49Z"/><path class="cls-2" d="M114.38,7.84a1.44,1.44,0,0,1-2.2.68,2.45,2.45,0,0,1-1-2.66c0,.15.68,1,1.14.68s1.21-1.59-.23-3.26A7.57,7.57,0,0,0,107.77,1c-9.35-1.82-19,4.41-26.22,10.49A122.54,122.54,0,0,0,67.26,26,188.49,188.49,0,0,0,55,42.41q-.68,3.2-1.59,6.39A68.33,68.33,0,0,1,50.54,58,11.58,11.58,0,0,1,48,62c-.76.76-2.43,1.45-3,.08s.46-3.27,1-4.49c1.44-3.26,3.27-6.23,4.94-9.34a184.82,184.82,0,0,1,3.27-20.45C55.56,21.29,57.3,14.52,61,8.67c-.91.91-1.9,1.83-2.81,2.74A156,156,0,0,0,44.76,26.3c-4.25,5.25-8.2,10.72-12.23,16S24.32,53.81,19,57.84a25.76,25.76,0,0,1-8.74,4.56c-2.89.84-6.54.84-8.74-1.52A6.21,6.21,0,0,1,0,56.78C0,54,1.82,50,4.94,49.33c1.37-.3,2.13.76,2,2a2.49,2.49,0,0,1-2.21,2.43c.23-.15.61-1.22.08-1.52s-2.28-.38-3.65,2.05a5.76,5.76,0,0,0,1.22,6.54c2.35,2.12,6,1.59,8.74.6a27,27,0,0,0,8.28-4.71c5.09-4.18,9.27-10.26,13.22-15.58s7.91-10.79,12.09-16A166.79,166.79,0,0,1,58.14,10.34c1.52-1.52,3.12-3,4.79-4.41l-2.43.23c-6.84.76-13.68,1.37-20.37,3.27A49.76,49.76,0,0,0,22.72,18c-4.48,3.42-8.66,7.6-10.26,13.15-.76,2.73-1,5.93.46,8.43,2.58,4.56,9.58,4.26,13.68,1.14C29,39,31.08,36.11,31.31,33.07a3.31,3.31,0,0,0-3.8-3.8,6.47,6.47,0,0,0-4.18,3c-.45.68-.91.38-.61-.07,1.37-2,4-4.34,7.07-3,2.74,1.3,2.28,4.72,1.29,7A13.89,13.89,0,0,1,17,44,8.41,8.41,0,0,1,11,40.13,12.31,12.31,0,0,1,9.8,31C11,25.16,15.2,20.68,19.91,17.34c11-7.83,24.7-10,37.85-11.56,2.05-.22,4.1-.45,6.16-.76A21,21,0,0,1,69.46.92C70.6.31,72.66-.3,73.72.16c1.22.53.53,1.82-.23,2.51A15.34,15.34,0,0,1,66.2,5.48c-.61.15-1.07.61-1.75,1.44-2.51,3.73-3.5,8.21-4.56,12.54-.76,3.2-1.37,6.39-2,9.58-.76,4-1.52,7.9-2.44,11.85,2.89-4.4,6-8.73,9.28-12.84a135,135,0,0,1,13.83-15C83.37,8.59,88.84,4.34,95.07,1.83c5-1.9,13.46-3.19,17.49.84C113.92,4,114.91,6.24,114.38,7.84ZM50.77,49.63C49,53.05,47,56.32,45.9,60c-.3,1.06-.22,2.74,1.14,1.67a10.35,10.35,0,0,0,2.28-4.1A39.41,39.41,0,0,0,50.77,49.63ZM65.44,4.8a22.49,22.49,0,0,0,6.3-1.75c.46-.31,1.9-1.07,1.83-1.9,0-1.29-3.73.38-4.18.68A18.26,18.26,0,0,0,65.44,4.8Z"/><path class="cls-2" d="M85.5,49a.27.27,0,0,1,.38.38c-2.28,2.89-6.69,8.28-9.73,11.4-1.52,1.44-3.34,2.81-5,1.9-1.83-1.06-1-3.57-.23-5.4-1.52,2.06-3.35,4.26-5.78,5.25a4.17,4.17,0,0,1-4.1-.23,5.36,5.36,0,0,1-1.52-4.48,15.34,15.34,0,0,1,3.65-8.44,14.25,14.25,0,0,1,8-4.94c1.44-.23,3.19,0,4,1.37a5.1,5.1,0,0,1,.23,3.34c.68-1.14,1.36-2.2,2.05-3.27a1.6,1.6,0,0,1,2.2-.53,1.81,1.81,0,0,1,.31,2.51c-1.22,2-2.51,4-3.73,6a53.25,53.25,0,0,0-3.27,5.48c-1,2.28.69,2.73,3.12.68A139,139,0,0,0,85.5,49Zm-14,6.54a35.8,35.8,0,0,0,3.34-6.24c.38-1.59,0-4-2-4a6.52,6.52,0,0,0-4.11,2.05c-3,2.59-6.08,7.22-6.84,11.56-.15,1.14,0,2.5,1.37,2.81a4.61,4.61,0,0,0,2.28-.23C68.1,60.43,70.07,57.77,71.52,55.49Z"/><path class="cls-2" d="M99.79,60.05c3.26-3.35,6.53-7.38,9.5-11.1.22-.3.6.15.38.38-1.6,2.05-3.35,4.18-5,6.16-2,2.2-4.18,5.16-6.31,6.61a3.87,3.87,0,0,1-3.34.68,2.33,2.33,0,0,1-1.37-2.13c.08-4,4.56-9.5,6.69-14.21.23-.53-.08-.91-.69-1.06C98,45,96,46.9,94.77,48.11a41.59,41.59,0,0,0-5.09,6.31c-1.45,2.59-3,4.87-4.56,7.37-.53.84-1.37,1.45-2.36.92a1.72,1.72,0,0,1-.91-1.45c0-.53.31-.83.53-1.29,1.9-3,3.8-6.08,5.78-9.12.15-.23,3.42-5.09,1.9-5.09A3.57,3.57,0,0,0,88,47a22.54,22.54,0,0,0-2.13,2.36c-.38.46-.91.3-.38-.38.76-.91,1.22-1.52,2.51-2.89s3.49-2.58,4.56-1c.76,1.22.07,3.12-1.07,5.93a45.19,45.19,0,0,1,3-3.49A17.18,17.18,0,0,1,98,44.92c2.74-1.52,5.47-.23,4.56,3.19-1.52,4.41-7,11.94-6.3,12.92S99,60.88,99.79,60.05Z"/><path class="cls-2" d="M127.75,49.33c-1.52,1.9-4.1,4.26-6.53,4.71a18,18,0,0,1-6.08,7.22c-2.13,1.45-5.78,2.74-7.91.53s-1.74-6.53-.53-9.19c1.9-4.33,6.16-7.83,10.87-8.29a4.85,4.85,0,0,1,4,1.07,3.57,3.57,0,0,1,.68,3.42c-.07.23-.38.07-.38-.15a3,3,0,0,0-.76-2.82c-2.28-2-6.23,1-8,2.89A27.88,27.88,0,0,0,108.22,57c-.53,1.36-1.06,3.11-.23,4.4s2.51,1.22,3.73.69c2.58-1.29,5.47-5.93,7.07-8.44a2.22,2.22,0,0,1-1.14-1.37,3.31,3.31,0,0,1,1.74-3.49,1.55,1.55,0,0,1,2.36.61,5.73,5.73,0,0,1-.3,4A13.22,13.22,0,0,0,127.37,49,.27.27,0,1,1,127.75,49.33Zm-8.66,4c.15-.23,2.51-4.71.53-4a2.48,2.48,0,0,0-1.44,2.89A2.15,2.15,0,0,0,119.09,53.28Z"/><path class="cls-2" d="M149.94,45.53c-1.29-.53-3,.91-3.95,1.75a29.52,29.52,0,0,0-5.09,6.38c-1.44,2.74-2.89,5.55-4.33,8.29a1.78,1.78,0,0,1-2.2.91,1.72,1.72,0,0,1-.69-2.51c1.14-2.43,2.51-4.79,3.88-7.14.83-1.37,1.59-2.66,2.35-4a8.66,8.66,0,0,0,1.14-3.35c-.45-1.52-3.11.84-3.64,1.3a27.38,27.38,0,0,0-3.5,4.4c-2.43,3.35-4.71,6.77-6.84,10.34a1.8,1.8,0,0,1-2.43.91,1.62,1.62,0,0,1-.84-1.44,2.41,2.41,0,0,1,.53-1.37c1.9-3,3.73-5.93,5.7-9.12.53-.84,3-4.71,1.9-5.17-.68-.15-1.52.84-2.05,1.29a22.12,22.12,0,0,0-2.13,2.36c-.3.38-.83.23-.38-.38.69-.84,1.37-1.67,2.51-2.89,1.06-1.06,3.42-2.73,4.56-.91S134,49.86,133,51.84a32.08,32.08,0,0,1,4.79-5.78c1.06-.91,2.5-2.05,4-1.67,2.51.84,1.45,4,.46,6.16a32.12,32.12,0,0,1,2.66-3c1.44-1.44,5.62-4.86,7.29-2.35a3.7,3.7,0,0,1,.16,2.88c-1.3,4.49-7,11.94-6.31,12.92s2.74-.15,3.57-1c3.27-3.35,6.54-7.38,9.5-11.1.23-.3.61.15.38.38-1.59,2.05-3.34,4.18-5,6.16-2,2.2-4.18,5.16-6.3,6.61a3.89,3.89,0,0,1-3.35.68,2.34,2.34,0,0,1-1.36-2.13c.07-3.57,3.64-8.28,5.92-12.69C149.72,47.35,150.63,45.83,149.94,45.53Z"/><path class="cls-2" d="M177.61,49.33c-1.52,1.9-4.1,4.26-6.54,4.71A18,18,0,0,1,165,61.26c-2.12,1.45-5.77,2.74-7.9.53s-1.75-6.53-.53-9.19c1.9-4.33,6.15-7.83,10.86-8.29a4.84,4.84,0,0,1,4,1.07,3.59,3.59,0,0,1,.69,3.42c-.08.23-.38.07-.38-.15a3.07,3.07,0,0,0-.76-2.82c-2.28-2-6.23,1-8,2.89A27.88,27.88,0,0,0,158.08,57c-.53,1.36-1.07,3.11-.23,4.4s2.51,1.22,3.72.69c2.59-1.29,5.47-5.93,7.07-8.44a2.25,2.25,0,0,1-1.14-1.37,3.32,3.32,0,0,1,1.75-3.49,1.54,1.54,0,0,1,2.35.61,5.62,5.62,0,0,1-.3,4A13.2,13.2,0,0,0,177.23,49,.27.27,0,1,1,177.61,49.33Zm-8.66,4c.15-.23,2.5-4.71.53-4A2.47,2.47,0,0,0,168,52.22,2.17,2.17,0,0,0,169,53.28Z"/><path class="cls-2" d="M205,29.57c-4.26,2.21-9.5,1.22-14.06,1.29a245.48,245.48,0,0,0-13.23,24.32c-.22.53-3.11,7.07-.76,6a9.43,9.43,0,0,0,2.21-1.68A133.44,133.44,0,0,0,188.32,49c.23-.3.61.15.38.38-2.66,3.27-5.39,6.61-8.2,9.65a27.41,27.41,0,0,1-3.35,3.27,3,3,0,0,1-2.73.53c-1.22-.61-1.14-2.28-1-3.42a33.66,33.66,0,0,1,3.11-8.81,193.56,193.56,0,0,1,10.87-19.76,39.54,39.54,0,0,0-7.9.45.2.2,0,0,1-.15-.38A28,28,0,0,1,188,29.72c3.34-5.54,6.84-11,10.34-16.41.76-1.07,2.73-.23,2.28,1-.16.38-.69,1.29-1,1.82-2.81,4.48-5.47,9.12-8.13,13.68,2.2.08,4.33.23,6.46.3a18.52,18.52,0,0,0,6.76-.83C205.35,29,205.58,29.19,205,29.57Z"/><path class="cls-2" d="M194.33,55.49c-2.05,2.28-4.41,5.39-6.61,6.84a3.11,3.11,0,0,1-3.42.15,2.93,2.93,0,0,1-.46-3c1.29-3.27,3.12-6.77,4.79-10-.23.22-.69.07-.31-.46.69-.91,1.37-1.9,2.13-3.12a3,3,0,0,1,1.14-1.36,1.48,1.48,0,0,1,2.13,1.29,6.55,6.55,0,0,1-.91,2.05c-2.05,3.72-4.56,7.68-6.46,11.55-.53,1.07-.61,2.28,1.14,1.9a4.81,4.81,0,0,0,2-1.21C192.73,56.7,196,52.67,199,49c.23-.3.61.15.38.38C197.75,51.38,196,53.51,194.33,55.49Zm-.15-18.78a1.73,1.73,0,0,1,2.2-.91,1.77,1.77,0,0,1,.61,2.43,1.62,1.62,0,1,1-2.81-1.52Z"/><path class="cls-2" d="M217.43,49.33c-1.52,1.9-4.1,4.26-6.53,4.71a18.11,18.11,0,0,1-6.08,7.22c-2.13,1.45-5.78,2.74-7.91.53s-1.75-6.53-.53-9.19c1.9-4.33,6.16-7.83,10.87-8.29a4.85,4.85,0,0,1,4,1.07A3.59,3.59,0,0,1,212,48.8c-.08.23-.38.07-.38-.15a3,3,0,0,0-.76-2.82c-2.28-2-6.23,1-8,2.89A27.88,27.88,0,0,0,197.9,57c-.53,1.36-1.06,3.11-.23,4.4s2.51,1.22,3.73.69c2.58-1.29,5.47-5.93,7.06-8.44a2.28,2.28,0,0,1-1.14-1.37,3.32,3.32,0,0,1,1.75-3.49,1.55,1.55,0,0,1,2.36.61,5.67,5.67,0,0,1-.31,4A13.2,13.2,0,0,0,217.05,49,.27.27,0,1,1,217.43,49.33Zm-8.66,4c.15-.23,2.51-4.71.53-4a2.48,2.48,0,0,0-1.44,2.89A2.1,2.1,0,0,0,208.77,53.28Z"/><path class="cls-2" d="M231.34,60.05c3.27-3.35,6.54-7.38,9.5-11.1.23-.3.61.15.38.38-1.6,2.05-3.34,4.18-5,6.16-2,2.2-4.18,5.16-6.31,6.61a3.86,3.86,0,0,1-3.34.68,2.34,2.34,0,0,1-1.37-2.13c.08-4,4.56-9.5,6.69-14.21.23-.53-.07-.91-.68-1.06-1.6-.38-3.65,1.52-4.87,2.73a41.59,41.59,0,0,0-5.09,6.31c-1.44,2.59-3,4.87-4.56,7.37-.53.84-1.37,1.45-2.35.92a1.71,1.71,0,0,1-.92-1.45c0-.53.31-.83.54-1.29,1.9-3,3.8-6.08,5.77-9.12.15-.23,3.42-5.09,1.9-5.09A3.6,3.6,0,0,0,219.56,47a22.54,22.54,0,0,0-2.13,2.36c-.38.46-.91.3-.38-.38.76-.91,1.22-1.52,2.51-2.89s3.5-2.58,4.56-1c.76,1.22.08,3.12-1.06,5.93a41.26,41.26,0,0,1,3-3.49,16.83,16.83,0,0,1,3.41-2.59c2.74-1.52,5.48-.23,4.56,3.19-1.51,4.41-7,11.94-6.3,12.92S230.5,60.88,231.34,60.05Z"/><path class="cls-2" d="M309.24,11l.07.08c5.25,4.25,7.83,10.71,8,17.32a32.94,32.94,0,0,1-5.77,18.78,37.92,37.92,0,0,1-14.37,12.69,31.81,31.81,0,0,1-9.57,3,32,32,0,0,1-10-.68c-1.52-.31-3-.69-4.56-1.07a17.18,17.18,0,0,1-4,1.37,25.87,25.87,0,0,1-10.26-.07,11.46,11.46,0,0,1-4.4-1.68c-1.37-.91-1.22-2.35.38-2.81,4.48-1.44,11.47,1.22,17,2.36,7-3.73,14.29-18.93,19.61-27.51a146.28,146.28,0,0,1,11.47-16.57,44,44,0,0,1,5.17-5.4c-5.47-3.8-12.46-4.48-18.85-3.42a31.08,31.08,0,0,0-15.88,7.6c-4.48,4.11-8.74,10-10.34,16.72-.68,2.82-.83,6.23,1.14,8.59s5.55,3.34,8.59,3.19a14.94,14.94,0,0,0,7.68-2.73,17.13,17.13,0,0,0,4.94-5.48c1.06-2.12,1.29-5.39-1-6.84a3.63,3.63,0,0,0-3.8.08c-1.67,1.07-2.2,3.27-1.67,3.65a1.27,1.27,0,0,0,1.52-.23c0,1.14-.76,2-2.21,2.36a1.64,1.64,0,0,1-2.2-1.67c.15-2.74,3.27-5.17,6.54-5.17a4.22,4.22,0,0,1,3.64,2.13c1.45,2.58.23,5.69-1.44,7.9a18.34,18.34,0,0,1-7.22,5.7,14.79,14.79,0,0,1-9.73.68,10.26,10.26,0,0,1-6.46-5.17,14.67,14.67,0,0,1-.45-9.72c1.67-6.23,6.15-11.55,11.32-15.36a38.22,38.22,0,0,1,18.16-7.06c6.16-.69,13,.15,18.17,3.87a16.27,16.27,0,0,1,8.66-3.95c.61-.07.38.38.15.38a11.68,11.68,0,0,0-2.58.53A15,15,0,0,0,309.24,11ZM271,60.58c-4.33-1.07-8.74-2.51-13.3-2.59-.61,0-4.18.31-3.57,1.52s3,1.75,4.18,2.06a21.69,21.69,0,0,0,9.88,0A25.53,25.53,0,0,0,271,60.58Zm37.85-49.25a34.7,34.7,0,0,0-4.11,5.32c-3.72,5.7-6.61,11.78-10,17.63-4,6.92-13.45,21.43-21,26.37a43.85,43.85,0,0,0,10.41,1.45,23.45,23.45,0,0,0,9.57-2.21c5.86-2.73,10.42-7.6,13.84-12.92a46.14,46.14,0,0,0,7.14-18.62C315.47,22.05,314,15.36,308.86,11.33Z"/><path class="cls-2" d="M337.51,49a.27.27,0,0,1,.38.38c-2.28,2.89-6.69,8.28-9.73,11.4-1.52,1.44-3.34,2.81-5,1.9-1.82-1.06-1-3.57-.22-5.4-1.52,2.06-3.35,4.26-5.78,5.25a4.17,4.17,0,0,1-4.1-.23,5.36,5.36,0,0,1-1.52-4.48,15.34,15.34,0,0,1,3.65-8.44,14.26,14.26,0,0,1,8-4.94c1.45-.23,3.2,0,4,1.37a5.1,5.1,0,0,1,.23,3.34c.68-1.14,1.36-2.2,2.05-3.27a1.6,1.6,0,0,1,2.2-.53,1.81,1.81,0,0,1,.31,2.51c-1.22,2-2.51,4-3.73,6a53.25,53.25,0,0,0-3.27,5.48c-1,2.28.69,2.73,3.12.68A139,139,0,0,0,337.51,49Zm-14,6.54a35.8,35.8,0,0,0,3.34-6.24c.38-1.59,0-4-2.05-4a6.52,6.52,0,0,0-4.11,2.05c-3,2.59-6.08,7.22-6.84,11.56-.15,1.14,0,2.5,1.37,2.81a4.61,4.61,0,0,0,2.28-.23C320.11,60.43,322.08,57.77,323.53,55.49Z"/><path class="cls-2" d="M364.94,29.57c-4.25,2.21-9.5,1.22-14.06,1.29a245.51,245.51,0,0,0-13.22,24.32c-.23.53-3.11,7.07-.76,6a9.43,9.43,0,0,0,2.21-1.68A135.52,135.52,0,0,0,348.3,49c.23-.3.61.15.38.38-2.66,3.27-5.4,6.61-8.21,9.65a26.61,26.61,0,0,1-3.34,3.27,3,3,0,0,1-2.74.53c-1.21-.61-1.14-2.28-1-3.42a33.66,33.66,0,0,1,3.11-8.81,193.56,193.56,0,0,1,10.87-19.76,39.54,39.54,0,0,0-7.9.45.21.21,0,0,1-.16-.38A28.1,28.1,0,0,1,348,29.72c3.34-5.54,6.84-11,10.33-16.41.76-1.07,2.74-.23,2.28,1a20.67,20.67,0,0,1-1,1.82c-2.81,4.48-5.47,9.12-8.13,13.68,2.21.08,4.33.23,6.46.3a18.57,18.57,0,0,0,6.77-.83C365.32,29,365.55,29.19,364.94,29.57Z"/><path class="cls-2" d="M370,49a.27.27,0,0,1,.38.38c-2.28,2.89-6.69,8.28-9.73,11.4-1.52,1.44-3.34,2.81-5,1.9-1.83-1.06-1-3.57-.23-5.4-1.52,2.06-3.35,4.26-5.78,5.25a4.17,4.17,0,0,1-4.1-.23A5.36,5.36,0,0,1,344,57.77a15.34,15.34,0,0,1,3.65-8.44,14.25,14.25,0,0,1,8-4.94c1.44-.23,3.19,0,3.95,1.37a5,5,0,0,1,.23,3.34c.68-1.14,1.36-2.2,2.05-3.27a1.6,1.6,0,0,1,2.2-.53,1.8,1.8,0,0,1,.31,2.51c-1.22,2-2.51,4-3.73,6a53.25,53.25,0,0,0-3.27,5.48c-1,2.28.69,2.73,3.12.68A139,139,0,0,0,370,49Zm-14,6.54a35.8,35.8,0,0,0,3.34-6.24c.38-1.59,0-4-2.05-4a6.52,6.52,0,0,0-4.11,2.05c-3,2.59-6.08,7.22-6.84,11.56-.15,1.14,0,2.5,1.37,2.81a4.61,4.61,0,0,0,2.28-.23C352.56,60.43,354.53,57.77,356,55.49Z"/></g><g id="title_sub"><path class="cls-3" d="M131.33,85.1H121.19c.38,1.67,1.8,2.69,3.84,2.69a4.54,4.54,0,0,0,3.36-1.3l2.07,2.24a7,7,0,0,1-5.53,2.17c-4.63,0-7.65-2.91-7.65-6.9a6.83,6.83,0,0,1,7.15-6.9,6.63,6.63,0,0,1,7,7C131.4,84.35,131.35,84.77,131.33,85.1Zm-10.19-2.27h6.6a3.35,3.35,0,0,0-6.6,0Z"/><path class="cls-3" d="M142.14,90.7l-2.94-4.11-3,4.11h-4.23L137.08,84l-5-6.65h4.36l2.84,3.91,2.91-3.91h4.14l-5,6.55,5.19,6.85Z"/><path class="cls-3" d="M163,84a6.51,6.51,0,0,1-6.67,6.9,5.2,5.2,0,0,1-4-1.62v6.25h-3.88V77.3h3.71v1.55a5.17,5.17,0,0,1,4.21-1.75A6.51,6.51,0,0,1,163,84Zm-3.93,0a3.43,3.43,0,1,0-3.42,3.71A3.38,3.38,0,0,0,159.1,84Z"/><path class="cls-3" d="M165.62,72.22h3.89V90.7h-3.89Z"/><path class="cls-3" d="M172.12,84c0-4,3.11-6.9,7.37-6.9s7.35,2.87,7.35,6.9-3.09,6.9-7.35,6.9S172.12,88,172.12,84Zm10.78,0a3.43,3.43,0,1,0-3.41,3.71A3.38,3.38,0,0,0,182.9,84Z"/><path class="cls-3" d="M197.75,77.1v3.59c-.33,0-.58,0-.88,0-2.14,0-3.56,1.17-3.56,3.73V90.7h-3.88V77.3h3.71v1.77A5.4,5.4,0,0,1,197.75,77.1Z"/><path class="cls-3" d="M211.84,83.05V90.7h-3.63V89c-.73,1.22-2.12,1.87-4.09,1.87-3.14,0-5-1.74-5-4.06s1.66-4,5.75-4H208c0-1.67-1-2.64-3.09-2.64A6.39,6.39,0,0,0,201,81.44l-1.4-2.72a10.28,10.28,0,0,1,5.78-1.62C209.48,77.1,211.84,79,211.84,83.05ZM208,86.47V85.1h-2.67c-1.82,0-2.39.67-2.39,1.57s.82,1.62,2.19,1.62A2.87,2.87,0,0,0,208,86.47Z"/><path class="cls-3" d="M224,90.05a5.52,5.52,0,0,1-3.17.85c-3.16,0-5-1.62-5-4.81v-5.5h-2.07v-3h2.07V74.34h3.88V77.6h3.34v3h-3.34V86a1.56,1.56,0,0,0,1.67,1.77,2.58,2.58,0,0,0,1.57-.5Z"/><path class="cls-3" d="M225.71,73.27a2.22,2.22,0,0,1,2.42-2.17,2.18,2.18,0,0,1,2.41,2.09,2.43,2.43,0,0,1-4.83.08Zm.48,4h3.88V90.7h-3.88Z"/><path class="cls-3" d="M232.69,84c0-4,3.11-6.9,7.37-6.9s7.35,2.87,7.35,6.9-3.09,6.9-7.35,6.9S232.69,88,232.69,84Zm10.78,0a3.44,3.44,0,1,0-3.41,3.71A3.38,3.38,0,0,0,243.47,84Z"/><path class="cls-3" d="M263.69,83V90.7h-3.88V83.63c0-2.17-1-3.17-2.72-3.17s-3.21,1.15-3.21,3.62V90.7H250V77.3h3.71v1.57a5.87,5.87,0,0,1,4.44-1.77C261.3,77.1,263.69,78.94,263.69,83Z"/></g><g id="title_lines"><rect class="cls-2" x="290.37" y="83.39" width="78.57" height="2.2"/><rect class="cls-2" x="0.33" y="83.39" width="91.05" height="2.2"/></g></g></svg>